<svg xmlns="http://www.w3.org/2000/svg" viewBox="0 0 42.6 35.5"><defs><style>.cls-1{fill:none;stroke:#000;stroke-miterlimit:10;stroke-width:0.5px;}</style></defs><title>Ресурс 19</title><g id="Слой_2" data-name="Слой 2"><g id="Content"><line class="cls-1" x1="1.86" y1="32.94" x2="40.74" y2="32.94"/><line class="cls-1" y1="35.25" x2="42.6" y2="35.25"/><line class="cls-1" x1="6.08" y1="32.94" x2="6.08" y2="13.92"/><line class="cls-1" x1="10.82" y1="13.92" x2="10.82" y2="32.94"/><line class="cls-1" x1="18.93" y1="32.94" x2="18.93" y2="13.92"/><line class="cls-1" x1="23.67" y1="13.92" x2="23.67" y2="32.94"/><line class="cls-1" x1="31.78" y1="32.94" x2="31.78" y2="13.92"/><line class="cls-1" x1="36.52" y1="13.92" x2="36.52" y2="32.94"/><path class="cls-1" d="M21.34.3,40.15,10.85a.4.4,0,0,1-.19.76H2.33a.41.41,0,0,1-.2-.76L21,.3A.39.39,0,0,1,21.34.3Z"/><line class="cls-1" x1="3.95" y1="13.92" x2="12.95" y2="13.92"/><line class="cls-1" x1="16.8" y1="13.92" x2="25.8" y2="13.92"/><line class="cls-1" x1="29.65" y1="13.92" x2="38.65" y2="13.92"/><circle class="cls-1" cx="21.14" cy="5.93" r="2.09"/></g></g></svg>