<svg xmlns="http://www.w3.org/2000/svg" viewBox="0 0 25.67 30.5"><defs><style>.cls-1{fill:none;stroke:#000;stroke-miterlimit:10;stroke-width:0.5px;}</style></defs><title>Ресурс 20</title><g id="Слой_2" data-name="Слой 2"><g id="Content"><path class="cls-1" d="M15.89,4.28a2.1,2.1,0,0,0-1.49-.73c-.69,0-.83.57-1.66,1-1.44.78-2.38,1.66-3.43.68C9.18,5.14,7.86,6.55,8,6.67H8"/><path class="cls-1" d="M1.26,30.25l-1-7.33c0-4.82,4.34-6.7,8.75-6.7v4"/><path class="cls-1" d="M18.49,9.47l0,.52c-.16,1.71-2.25,3.46-3.66,4.46a2.24,2.24,0,0,1-2.56.05c-1.48-1-3.72-2.77-3.89-4.51l-.05-.52a2,2,0,0,1-.6-1.09c-.09-.63.13-1.22.37-1.25L7.86,5.22a5,5,0,0,1,5-5h1.11a5,5,0,0,1,5,5l-.19,1.91c.23,0,.45.62.36,1.25A2,2,0,0,1,18.49,9.47Z"/><line class="cls-1" x1="15.16" y1="18.33" x2="25.67" y2="18.33"/><line class="cls-1" x1="15.16" y1="24.29" x2="25.67" y2="24.29"/><line class="cls-1" x1="15.16" y1="30.25" x2="25.67" y2="30.25"/></g></g></svg>