<svg xmlns="http://www.w3.org/2000/svg" viewBox="0 0 38.53 35.5"><defs><style>.cls-1{fill:none;stroke:#000;stroke-miterlimit:10;stroke-width:0.5px;}</style></defs><title>Ресурс 21</title><g id="Слой_2" data-name="Слой 2"><g id="Content"><path class="cls-1" d="M26.25,16.3a.79.79,0,0,0-.86-.53l-3.56.61a9.36,9.36,0,0,0-1.23-1.5l1.29-3.37a.77.77,0,0,0-.35-.94L18.71,9.05a.79.79,0,0,0-1,.23l-2.08,3A9.6,9.6,0,0,0,13.71,12l-1.47-3.3a.79.79,0,0,0-.91-.42l-3.07.93a.8.8,0,0,0-.53.86l.61,3.56a8.94,8.94,0,0,0-1.5,1.23L3.46,13.61a.79.79,0,0,0-.94.35L1,16.79a.79.79,0,0,0,.23,1l3,2.08A9.6,9.6,0,0,0,4,21.79L.7,23.26a.77.77,0,0,0-.42.91l.93,3.07a.79.79,0,0,0,.85.53l3.57-.61a8.94,8.94,0,0,0,1.23,1.5L5.57,32a.76.76,0,0,0,.35.94l2.82,1.51a.78.78,0,0,0,1-.23l2.09-2.94a9.56,9.56,0,0,0,1.93.18l1.48,3.3a.77.77,0,0,0,.91.42l3.07-.93a.79.79,0,0,0,.53-.86l-.61-3.55a10,10,0,0,0,1.5-1.24L24,29.94a.8.8,0,0,0,1-.35l1.51-2.84a.78.78,0,0,0-.23-1l-2.95-2.09a9.57,9.57,0,0,0,.19-1.93l3.3-1.47a.8.8,0,0,0,.42-.92ZM15.42,27.36a5.84,5.84,0,1,1,3.89-7.28A5.85,5.85,0,0,1,15.42,27.36Zm2.29-6.79a4.16,4.16,0,1,1-5.19-2.77A4.16,4.16,0,0,1,17.71,20.57ZM38,11.33l-2-1.33a5.91,5.91,0,0,0,0-1.33,5.48,5.48,0,0,0-.27-1.29L37.4,5.65a.66.66,0,0,0,.07-.84L36.35,3.26a.68.68,0,0,0-.82-.19l-2.19,1.1a6.43,6.43,0,0,0-2.4-1.07L30.32.73a.68.68,0,0,0-.7-.48l-1.9.2a.68.68,0,0,0-.58.61L27,3.51a6.3,6.3,0,0,0-2.13,1.54l-2.36-.64a.68.68,0,0,0-.77.36L21,6.51a.67.67,0,0,0,.24.81l2.05,1.34a7.27,7.27,0,0,0,0,1.32,7,7,0,0,0,.27,1.3L21.8,13a.67.67,0,0,0-.07.84l1.12,1.55a.67.67,0,0,0,.82.2l2.18-1.11a6.51,6.51,0,0,0,2.4,1.07l.63,2.37a.67.67,0,0,0,.7.48l1.89-.2a.67.67,0,0,0,.59-.61l.13-2.44a6.32,6.32,0,0,0,2.13-1.55l2.36.65a.67.67,0,0,0,.76-.37l.79-1.74A.68.68,0,0,0,38,11.33Zm-8,1.36A3.38,3.38,0,1,1,33,9,3.38,3.38,0,0,1,30,12.69Z"/></g></g></svg>