<svg xmlns="http://www.w3.org/2000/svg" viewBox="0 0 27.53 40.72"><defs><style>.cls-1{fill:none;stroke:#000;stroke-miterlimit:10;stroke-width:0.5px;}</style></defs><title>Ресурс 22</title><g id="Слой_2" data-name="Слой 2"><g id="Content"><path class="cls-1" d="M16.5,4.44A2.16,2.16,0,0,0,15,3.67c-.72,0-.86.6-1.73,1.08-1.49.81-2.47,1.72-3.56.7-.13-.12-1.5,1.34-1.37,1.47h0"/><path class="cls-1" d="M1.3,31.42l-1-7.62c0-5,4.51-7,9.09-7V21l4.42-2.1L18.19,21v-4.2c4.57,0,9.09,1.95,9.09,7l-1.05,7.62"/><polyline class="cls-1" points="14.84 21.68 16.02 36.2 13.49 40.25 10.97 36.2 12.15 21.68"/><path class="cls-1" d="M19.2,9.83l-.05.54C19,12.14,16.81,14,15.35,15a2.33,2.33,0,0,1-2.66,0c-1.54-1-3.87-2.88-4-4.68l-.05-.54A2.15,2.15,0,0,1,8,8.7c-.09-.66.14-1.27.38-1.31l-.19-2A5.16,5.16,0,0,1,13.32.25h1.15a5.16,5.16,0,0,1,5.16,5.17l-.19,2c.24,0,.47.65.37,1.31A2.09,2.09,0,0,1,19.2,9.83Z"/></g></g></svg>