<svg xmlns="http://www.w3.org/2000/svg" viewBox="0 0 28.29 35.5"><defs><style>.cls-1{fill:none;stroke:#000;stroke-miterlimit:10;stroke-width:0.5px;}</style></defs><title>Ресурс 23</title><g id="Слой_2" data-name="Слой 2"><g id="Content"><path class="cls-1" d="M11.89,32.94C7.58,32,4.34,29.58,4.34,25"/><path class="cls-1" d="M.25,20.94v-6.8A13.89,13.89,0,0,1,14.14.25h0A13.89,13.89,0,0,1,28,14.14v6.8"/><path class="cls-1" d="M.25,14.77H2.83a1.51,1.51,0,0,1,1.51,1.51V25a0,0,0,0,1,0,0h0A4.09,4.09,0,0,1,.25,20.9V14.77A0,0,0,0,1,.25,14.77Z"/><path class="cls-1" d="M28,14.77h0a0,0,0,0,1,0,0v8.72A1.51,1.51,0,0,1,26.53,25H23.95a0,0,0,0,1,0,0V18.86A4.09,4.09,0,0,1,28,14.77Z" transform="translate(51.99 39.76) rotate(180)"/><circle class="cls-1" cx="14.14" cy="33.15" r="2.1"/></g></g></svg>