<svg xmlns="http://www.w3.org/2000/svg" viewBox="0 0 41.65 40"><defs><style>.cls-1{fill:#4d824d;fill-rule:evenodd;}</style></defs><title>Ресурс 5</title><g id="Слой_2" data-name="Слой 2"><g id="Content"><path class="cls-1" d="M12.69,11.89,31.31,1.19A21.71,21.71,0,0,0,29,0L12.83,9.27,5.52,5.06A22.91,22.91,0,0,0,4,6.92Z"/><path class="cls-1" d="M12.69,17.12l22.51-13a21.87,21.87,0,0,0-1.79-1.53L12.69,14.5,2.78,8.79a20.32,20.32,0,0,0-1,2Z"/><path class="cls-1" d="M12.69,22.36,38.19,7.7a20.3,20.3,0,0,0-1.36-1.84L12.69,19.74.94,13a21.46,21.46,0,0,0-.57,2.3Z"/><path class="cls-1" d="M12.69,25,.05,17.72c0,.48,0,1,0,1.46A20.83,20.83,0,1,0,39.35,9.66Z"/></g></g></svg>