<svg xmlns="http://www.w3.org/2000/svg" viewBox="0 0 37.27 35.5"><defs><style>.cls-1{fill:none;stroke:#fff;stroke-miterlimit:10;stroke-width:0.5px;}</style></defs><title>Ресурс 9</title><g id="Слой_2" data-name="Слой 2"><g id="Content"><rect class="cls-1" x="0.25" y="0.25" width="10.14" height="35" rx="0.96"/><circle class="cls-1" cx="5.32" cy="30.28" r="2.87"/><line class="cls-1" x1="2.34" y1="6.32" x2="8.19" y2="6.32"/><line class="cls-1" x1="2.34" y1="8.27" x2="8.19" y2="8.27"/><line class="cls-1" x1="2.34" y1="10.21" x2="8.19" y2="10.21"/><rect class="cls-1" x="13.57" y="0.25" width="10.14" height="35" rx="0.96"/><circle class="cls-1" cx="18.64" cy="30.28" r="2.87"/><line class="cls-1" x1="15.65" y1="6.32" x2="21.51" y2="6.32"/><line class="cls-1" x1="15.65" y1="8.27" x2="21.51" y2="8.27"/><line class="cls-1" x1="15.65" y1="10.21" x2="21.51" y2="10.21"/><rect class="cls-1" x="26.88" y="0.25" width="10.14" height="35" rx="0.96"/><circle class="cls-1" cx="31.95" cy="30.28" r="2.87"/><line class="cls-1" x1="28.97" y1="6.32" x2="34.82" y2="6.32"/><line class="cls-1" x1="28.97" y1="8.27" x2="34.82" y2="8.27"/><line class="cls-1" x1="28.97" y1="10.21" x2="34.82" y2="10.21"/></g></g></svg>