<svg xmlns="http://www.w3.org/2000/svg" viewBox="0 0 43.96 40.5"><defs><style>.cls-1{fill:none;stroke:#fff;stroke-miterlimit:10;stroke-width:0.5px;}</style></defs><title>Ресурс 11</title><g id="Слой_2" data-name="Слой 2"><g id="Content"><path class="cls-1" d="M30,18.59a.89.89,0,0,0-1-.6l-4.06.69A11.66,11.66,0,0,0,23.51,17L25,13.12A.89.89,0,0,0,24.58,12l-3.23-1.73a.9.9,0,0,0-1.12.26l-2.38,3.37a11.58,11.58,0,0,0-2.21-.22L14,10a.89.89,0,0,0-1.05-.47L9.4,10.54a.89.89,0,0,0-.6,1l.69,4.07A11,11,0,0,0,7.78,17L3.92,15.52a.89.89,0,0,0-1.07.4L1.12,19.15a.9.9,0,0,0,.26,1.12l3.37,2.38a10.83,10.83,0,0,0-.22,2.21L.76,26.54a.92.92,0,0,0-.48,1.05L1.35,31.1a.89.89,0,0,0,1,.6L6.39,31A11.66,11.66,0,0,0,7.8,32.72L6.32,36.58a.88.88,0,0,0,.41,1.07L10,39.38a.9.9,0,0,0,1.12-.26l2.38-3.37a10.83,10.83,0,0,0,2.21.22l1.68,3.77a.91.91,0,0,0,1,.48l3.51-1.07a.89.89,0,0,0,.6-1l-.69-4.07a11.66,11.66,0,0,0,1.71-1.41l3.86,1.48a.89.89,0,0,0,1.07-.4l1.73-3.24a.88.88,0,0,0-.26-1.11L26.56,27a10.83,10.83,0,0,0,.22-2.21l3.77-1.68a.89.89,0,0,0,.47-1ZM17.59,31.23A6.67,6.67,0,1,1,22,22.91,6.67,6.67,0,0,1,17.59,31.23Zm2.61-7.76a4.75,4.75,0,1,1-5.92-3.17A4.75,4.75,0,0,1,20.2,23.47ZM43.38,12.91,41,11.39a6.93,6.93,0,0,0,0-1.51,7.07,7.07,0,0,0-.31-1.48l2-2a.77.77,0,0,0,.07-1L41.51,3.69a.77.77,0,0,0-.94-.22l-2.5,1.26a7.3,7.3,0,0,0-2.74-1.22L34.61.8a.78.78,0,0,0-.79-.55L31.65.48a.78.78,0,0,0-.67.7L30.83,4A7.37,7.37,0,0,0,28.4,5.73L25.7,5a.79.79,0,0,0-.88.42l-.89,2a.77.77,0,0,0,.27.92l2.35,1.53a7.62,7.62,0,0,0,0,1.51,7.2,7.2,0,0,0,.31,1.48l-2,2a.76.76,0,0,0-.08,1l1.28,1.77a.75.75,0,0,0,.93.23l2.5-1.27a7.32,7.32,0,0,0,2.74,1.23l.72,2.7a.77.77,0,0,0,.8.55l2.16-.22a.78.78,0,0,0,.67-.7l.15-2.79a7.16,7.16,0,0,0,2.43-1.77l2.71.74a.77.77,0,0,0,.87-.42l.89-2A.78.78,0,0,0,43.38,12.91Zm-9.19,1.55a3.86,3.86,0,1,1,3.44-4.23A3.86,3.86,0,0,1,34.19,14.46Z"/></g></g></svg>