<svg xmlns="http://www.w3.org/2000/svg" viewBox="0 0 48.69 40.5"><defs><style>.cls-1{fill:none;stroke:#fff;stroke-miterlimit:10;stroke-width:0.5px;}</style></defs><title>Ресурс 12</title><g id="Слой_2" data-name="Слой 2"><g id="Content"><line class="cls-1" x1="2.13" y1="37.61" x2="46.56" y2="37.61"/><line class="cls-1" y1="40.25" x2="48.69" y2="40.25"/><line class="cls-1" x1="6.95" y1="37.61" x2="6.95" y2="15.87"/><line class="cls-1" x1="12.37" y1="15.87" x2="12.37" y2="37.61"/><line class="cls-1" x1="21.63" y1="37.61" x2="21.63" y2="15.87"/><line class="cls-1" x1="27.06" y1="15.87" x2="27.06" y2="37.61"/><line class="cls-1" x1="36.32" y1="37.61" x2="36.32" y2="15.87"/><line class="cls-1" x1="41.74" y1="15.87" x2="41.74" y2="37.61"/><path class="cls-1" d="M24.39.31l21.5,12a.46.46,0,0,1-.23.87h-43a.46.46,0,0,1-.23-.87l21.5-12A.45.45,0,0,1,24.39.31Z"/><line class="cls-1" x1="4.52" y1="15.87" x2="14.8" y2="15.87"/><line class="cls-1" x1="19.2" y1="15.87" x2="29.49" y2="15.87"/><line class="cls-1" x1="33.89" y1="15.87" x2="44.17" y2="15.87"/><circle class="cls-1" cx="24.17" cy="6.75" r="2.39"/></g></g></svg>