<svg xmlns="http://www.w3.org/2000/svg" viewBox="0 0 30.91 45.72"><defs><style>.cls-1{fill:none;stroke:#fff;stroke-miterlimit:10;stroke-width:0.5px;}</style></defs><title>Ресурс 13</title><g id="Слой_2" data-name="Слой 2"><g id="Content"><path class="cls-1" d="M18.53,5a2.48,2.48,0,0,0-1.75-.86c-.8,0-1,.68-1.94,1.21-1.68.91-2.78,1.94-4,.8C10.69,6,9.15,7.61,9.3,7.75h0"/><path class="cls-1" d="M1.43,35.31.25,26.74c0-5.63,5.08-7.83,10.23-7.83v4.73l5-2.36,5,2.36V18.91c5.15,0,10.23,2.2,10.23,7.83l-1.19,8.57"/><polyline class="cls-1" points="16.66 24.36 18 40.7 15.15 45.25 12.31 40.7 13.64 24.36"/><path class="cls-1" d="M21.57,11l-.06.6c-.19,2-2.63,4-4.28,5.22a2.62,2.62,0,0,1-3,0c-1.72-1.16-4.35-3.24-4.55-5.27L9.63,11a2.3,2.3,0,0,1-.69-1.27c-.11-.74.15-1.42.42-1.46L9.14,6.06A5.82,5.82,0,0,1,15,.25h1.29a5.81,5.81,0,0,1,5.81,5.81l-.23,2.23c.28,0,.53.72.43,1.46A2.42,2.42,0,0,1,21.57,11Z"/></g></g></svg>