<svg xmlns="http://www.w3.org/2000/svg" viewBox="0 0 32.26 40.5"><defs><style>.cls-1{fill:none;stroke:#fff;stroke-miterlimit:10;stroke-width:0.5px;}</style></defs><title>Ресурс 14</title><g id="Слой_2" data-name="Слой 2"><g id="Content"><path class="cls-1" d="M13.55,37.61c-4.93-1-8.63-3.84-8.63-9.08"/><path class="cls-1" d="M.25,23.9V16.13A15.88,15.88,0,0,1,16.13.25h0A15.88,15.88,0,0,1,32,16.13V23.9"/><path class="cls-1" d="M.25,16.84H3.2a1.72,1.72,0,0,1,1.72,1.72v10a0,0,0,0,1,0,0h0A4.67,4.67,0,0,1,.25,23.85v-7A0,0,0,0,1,.25,16.84Z"/><path class="cls-1" d="M32,16.84h0a0,0,0,0,1,0,0v10a1.72,1.72,0,0,1-1.72,1.72H27.33a0,0,0,0,1,0,0v-7A4.67,4.67,0,0,1,32,16.84Z" transform="matrix(-1, 0, 0, -1, 59.34, 45.37)"/><circle class="cls-1" cx="16.13" cy="37.85" r="2.4"/></g></g></svg>