<svg xmlns="http://www.w3.org/2000/svg" viewBox="0 0 51 51"><defs><style>.cls-1{fill:none;stroke:#fff;stroke-miterlimit:10;}</style></defs><title>Ресурс 4</title><g id="Слой_2" data-name="Слой 2"><g id="Content"><polyline class="cls-1" points="26.76 14.51 25.52 11.43 24.24 14.51"/><polyline class="cls-1" points="26.76 14.51 25.52 11.43 24.24 14.51"/><circle class="cls-1" cx="25.5" cy="25.5" r="25"/><circle class="cls-1" cx="25.5" cy="25.5" r="21.62"/><circle class="cls-1" cx="25.5" cy="25.5" r="11.05"/><line class="cls-1" x1="25.47" y1="2.59" x2="25.47" y2="6.13"/><line class="cls-1" x1="25.57" y1="44.84" x2="25.4" y2="47.02"/><line class="cls-1" x1="12.76" y1="8.03" x2="14.16" y2="9.87"/><line class="cls-1" x1="36.82" y1="41.1" x2="38.19" y2="42.95"/><line class="cls-1" x1="4.98" y1="18.77" x2="7.09" y2="19.58"/><line class="cls-1" x1="38.19" y1="8.03" x2="36.8" y2="9.87"/><line class="cls-1" x1="14.14" y1="41.1" x2="12.76" y2="42.95"/><line class="cls-1" x1="7.08" y1="31.38" x2="4.98" y2="32.22"/><line class="cls-1" x1="46.12" y1="18.77" x2="44.16" y2="19.58"/><line class="cls-1" x1="44.16" y1="31.38" x2="46.12" y2="32.22"/></g></g></svg>