<svg xmlns="http://www.w3.org/2000/svg" viewBox="0 0 55.62 34.23"><defs><style>.cls-1{fill:#fff;}.cls-2{fill:none;stroke:#fff;stroke-miterlimit:10;}</style></defs><title>Ресурс 5</title><g id="Слой_2" data-name="Слой 2"><g id="Content"><path class="cls-1" d="M2.33,18.41V0H7.77a7.08,7.08,0,0,1,4.48,1.22,4.35,4.35,0,0,1,1.53,3.6A4.09,4.09,0,0,1,13,7.31a4.26,4.26,0,0,1-2.13,1.51,4.46,4.46,0,0,1,3.56,4.41A4.77,4.77,0,0,1,12.87,17a6.42,6.42,0,0,1-4.38,1.37ZM3.88,8.26H8.13a4.79,4.79,0,0,0,3-.92,3.15,3.15,0,0,0,1.07-2.57,3.06,3.06,0,0,0-1.11-2.61,5.5,5.5,0,0,0-3.34-.84H3.88Zm0,1.31V17.1H8.55a4.66,4.66,0,0,0,3.17-1,3.54,3.54,0,0,0,1.17-2.82,3.46,3.46,0,0,0-1.12-2.7,4.52,4.52,0,0,0-3.09-1Z"/><path class="cls-1" d="M21.62,9.83a4,4,0,0,0-.71-.07,2.59,2.59,0,0,0-1.66.55,3,3,0,0,0-1,1.59v6.51h-1V8.93h1l0,1.51A2.8,2.8,0,0,1,21,8.76a1.86,1.86,0,0,1,.7.11Z"/><path class="cls-1" d="M22.52,13.53a5.62,5.62,0,0,1,.53-2.46,4,4,0,0,1,3.7-2.31,3.89,3.89,0,0,1,3.06,1.32A5.1,5.1,0,0,1,31,13.6v.22a5.71,5.71,0,0,1-.53,2.48A4,4,0,0,1,29,18a4.06,4.06,0,0,1-2.2.6,3.9,3.9,0,0,1-3.06-1.33,5.13,5.13,0,0,1-1.18-3.52Zm1.05.29a4.31,4.31,0,0,0,.88,2.79,2.82,2.82,0,0,0,2.31,1.09,2.79,2.79,0,0,0,2.3-1.09,4.4,4.4,0,0,0,.88-2.88v-.2a4.85,4.85,0,0,0-.4-2,3.2,3.2,0,0,0-1.13-1.39,2.88,2.88,0,0,0-1.66-.5,2.81,2.81,0,0,0-2.29,1.1,4.44,4.44,0,0,0-.89,2.88Z"/><path class="cls-1" d="M35.4,13.64l-1.2,1.15v3.62H33.15V5H34.2v8.62l1-1.07,3.63-3.57h1.32l-4,4,4.37,5.48H39.24Z"/><path class="cls-1" d="M45.61,18.59a4.08,4.08,0,0,1-2.18-.6,3.94,3.94,0,0,1-1.52-1.66,5.07,5.07,0,0,1-.55-2.39v-.37a5.62,5.62,0,0,1,.53-2.46,4.32,4.32,0,0,1,1.48-1.73,3.68,3.68,0,0,1,2.05-.62,3.42,3.42,0,0,1,2.74,1.18,4.78,4.78,0,0,1,1,3.22v.58H42.4v.2a4,4,0,0,0,.93,2.69,2.93,2.93,0,0,0,2.33,1.07,3.46,3.46,0,0,0,1.48-.3,3.34,3.34,0,0,0,1.17-1l.66.5A3.84,3.84,0,0,1,45.61,18.59Zm-.19-8.94a2.61,2.61,0,0,0-2,.87,4,4,0,0,0-1,2.33h5.69v-.11a3.48,3.48,0,0,0-.78-2.23A2.44,2.44,0,0,0,45.42,9.65Z"/><path class="cls-1" d="M55.59,9.83a4,4,0,0,0-.71-.07,2.59,2.59,0,0,0-1.66.55,3.1,3.1,0,0,0-1,1.59v6.51h-1V8.93h1v1.51a2.8,2.8,0,0,1,2.68-1.68,1.84,1.84,0,0,1,.69.11Z"/><line class="cls-2" y1="33.73" x2="21.93" y2="33.73"/></g></g></svg>