<svg xmlns="http://www.w3.org/2000/svg" viewBox="0 0 53.05 52.95"><defs><style>.cls-1{fill:none;stroke:#fff;stroke-miterlimit:10;}</style></defs><title>Ресурс 6</title><g id="Слой_2" data-name="Слой 2"><g id="Content"><polygon class="cls-1" points="26.77 1.64 27.58 4.17 30.21 4.17 28.09 5.73 28.9 8.27 26.77 6.7 24.64 8.27 25.46 5.73 23.33 4.17 25.96 4.17 26.77 1.64"/><polygon class="cls-1" points="37 4.51 37.81 7.04 40.44 7.04 38.31 8.6 39.12 11.13 37 9.57 34.87 11.13 35.68 8.6 33.55 7.04 36.18 7.04 37 4.51"/><polygon class="cls-1" points="44.85 12.58 45.67 15.11 48.3 15.11 46.17 16.68 46.98 19.21 44.85 17.64 42.73 19.21 43.54 16.68 41.41 15.11 44.04 15.11 44.85 12.58"/><polygon class="cls-1" points="48.08 23.26 48.89 25.8 51.52 25.8 49.4 27.36 50.21 29.89 48.08 28.33 45.95 29.89 46.77 27.36 44.64 25.8 47.27 25.8 48.08 23.26"/><polygon class="cls-1" points="45.16 34.14 45.97 36.67 48.6 36.67 46.47 38.24 47.29 40.77 45.16 39.2 43.03 40.77 43.84 38.24 41.72 36.67 44.35 36.67 45.16 34.14"/><polygon class="cls-1" points="37.11 42.18 37.92 44.71 40.55 44.71 38.42 46.28 39.24 48.81 37.11 47.25 34.98 48.81 35.8 46.28 33.67 44.71 36.3 44.71 37.11 42.18"/><polygon class="cls-1" points="26.88 45.01 27.7 47.54 30.33 47.54 28.2 49.1 29.01 51.64 26.88 50.07 24.76 51.64 25.57 49.1 23.44 47.54 26.07 47.54 26.88 45.01"/><polygon class="cls-1" points="15.9 42.18 16.71 44.71 19.34 44.71 17.21 46.28 18.03 48.81 15.9 47.25 13.77 48.81 14.59 46.28 12.46 44.71 15.09 44.71 15.9 42.18"/><polygon class="cls-1" points="8 34.14 8.81 36.67 11.44 36.67 9.32 38.24 10.13 40.77 8 39.2 5.88 40.77 6.69 38.24 4.56 36.67 7.19 36.67 8 34.14"/><polygon class="cls-1" points="4.96 23.26 5.78 25.8 8.41 25.8 6.28 27.36 7.09 29.89 4.96 28.33 2.84 29.89 3.65 27.36 1.52 25.8 4.15 25.8 4.96 23.26"/><polygon class="cls-1" points="7.93 12.41 8.74 14.94 11.37 14.94 9.24 16.51 10.05 19.04 7.93 17.48 5.8 19.04 6.61 16.51 4.49 14.94 7.11 14.94 7.93 12.41"/><polygon class="cls-1" points="15.75 4.58 16.56 7.12 19.19 7.12 17.06 8.68 17.88 11.21 15.75 9.65 13.62 11.21 14.43 8.68 12.31 7.12 14.94 7.12 15.75 4.58"/></g></g></svg>