<svg xmlns="http://www.w3.org/2000/svg" viewBox="0 0 26.11 38.63"><defs><style>.cls-1{fill:none;stroke:#929496;stroke-miterlimit:10;stroke-width:0.75px;}</style></defs><title>Ресурс 19</title><g id="Слой_2" data-name="Слой 2"><g id="Content"><path class="cls-1" d="M.73,12.42l6.14-5V6.21l3.66-1.37L9.77.64l5,2.29A10.17,10.17,0,0,1,20.08,4.3c3.37,2.26,5.11,5.25,5.12,9a24.91,24.91,0,0,1-2.72,10.21,9.89,9.89,0,0,0-.33,2.54v3.37H6C6,24.09,7.45,19.76,12.4,18a.57.57,0,0,0,.39-.53v-.79a.67.67,0,0,0-.62-.66l-4.25-.27a.68.68,0,0,0-.5.18L5.79,17.51a2,2,0,0,1-2.34.29L.68,16.26a.58.58,0,0,1-.3-.52V13.17A1,1,0,0,1,.73,12.42Z"/><rect class="cls-1" x="4.08" y="30.98" width="19.25" height="2.81"/><rect class="cls-1" x="1.67" y="33.79" width="24.06" height="4.47"/></g></g></svg>