<svg xmlns="http://www.w3.org/2000/svg" viewBox="0 0 44.21 40.75"><defs><style>.cls-1{fill:none;stroke:#000;stroke-miterlimit:10;stroke-width:0.75px;}</style></defs><title>Ресурс 10</title><g id="Слой_2" data-name="Слой 2"><g id="Content"><path class="cls-1" d="M30.09,18.72a.91.91,0,0,0-1-.6L25,18.81a10.59,10.59,0,0,0-1.41-1.72l1.48-3.85a.9.9,0,0,0-.4-1.08l-3.23-1.73a.91.91,0,0,0-1.12.27L18,14.07a10.83,10.83,0,0,0-2.21-.22l-1.68-3.77a.9.9,0,0,0-1-.48L9.53,10.67a.9.9,0,0,0-.61,1l.7,4.07A10.68,10.68,0,0,0,7.9,17.12L4.05,15.64A.9.9,0,0,0,3,16L1.24,19.28a.88.88,0,0,0,.27,1.11l3.36,2.39A11.58,11.58,0,0,0,4.66,25L.89,26.67a.89.89,0,0,0-.48,1l1.06,3.51a.89.89,0,0,0,1,.61l4.07-.7a10.17,10.17,0,0,0,1.41,1.72L6.45,36.7a.9.9,0,0,0,.4,1.08l3.23,1.73a.89.89,0,0,0,1.12-.27l2.39-3.36a10.82,10.82,0,0,0,2.21.21l1.68,3.77a.89.89,0,0,0,1,.48L22,39.28a.9.9,0,0,0,.61-1l-.7-4.07a10.59,10.59,0,0,0,1.72-1.41l3.85,1.48a.9.9,0,0,0,1.08-.4l1.73-3.23a.9.9,0,0,0-.27-1.12l-3.37-2.39A10.83,10.83,0,0,0,26.9,25l3.77-1.68a.89.89,0,0,0,.48-1ZM17.71,31.35A6.67,6.67,0,1,1,22.16,23,6.66,6.66,0,0,1,17.71,31.35ZM43.5,13l-2.34-1.53a7.62,7.62,0,0,0,0-1.51,7.93,7.93,0,0,0-.31-1.48l2-2a.77.77,0,0,0,.08-1L41.63,3.82a.77.77,0,0,0-.94-.23L38.2,4.86a7.36,7.36,0,0,0-2.75-1.23L34.74.93a.77.77,0,0,0-.8-.55L31.77.6a.77.77,0,0,0-.66.7L31,4.1a7.17,7.17,0,0,0-2.44,1.76l-2.7-.73a.76.76,0,0,0-.87.41l-.89,2a.78.78,0,0,0,.27.93L26.67,10a7.62,7.62,0,0,0,0,1.51A8.11,8.11,0,0,0,27,13l-2,2a.77.77,0,0,0-.08,1l1.28,1.77a.79.79,0,0,0,.94.23l2.49-1.27a7.36,7.36,0,0,0,2.75,1.23l.72,2.7a.77.77,0,0,0,.79.55l2.17-.23a.77.77,0,0,0,.67-.69l.15-2.8a7.37,7.37,0,0,0,2.43-1.76l2.7.73a.76.76,0,0,0,.87-.41l.9-2A.78.78,0,0,0,43.5,13Zm-9.19,1.55a3.86,3.86,0,1,1,3.45-4.24A3.85,3.85,0,0,1,34.31,14.59Z"/></g></g></svg>