<svg xmlns="http://www.w3.org/2000/svg" viewBox="0 0 41.18 42.49"><defs><style>.cls-1{fill:none;stroke:#000;stroke-miterlimit:10;stroke-width:0.75px;}</style></defs><title>Ресурс 12</title><g id="Слой_2" data-name="Слой 2"><g id="Content"><polygon class="cls-1" points="7.4 31.22 9.59 27.86 13.79 32.88 10.62 35.05 7.4 31.22"/><polygon class="cls-1" points="0.43 41.67 3.83 33.53 7.51 31.35 10.58 35.01 8.34 38.9 0.74 42.04 0.43 41.67"/><line class="cls-1" x1="0.58" y1="41.85" x2="6.26" y2="36.04"/><ellipse class="cls-1" cx="6.85" cy="35.43" rx="0.88" ry="0.79" transform="translate(-29.19 33.75) rotate(-76.38)"/><path class="cls-1" d="M40.22,2.82l-1.4-1.67a2.17,2.17,0,0,0-3.28,0L9.5,27.76,14,33.1,40,6.44A2.75,2.75,0,0,0,40.22,2.82Z"/><path class="cls-1" d="M34.82,1.83h0a3,3,0,0,0-4.59-.06l-8,8.2"/><line class="cls-1" x1="33.44" y1="3.24" x2="38.08" y2="8.55"/></g></g></svg>