<svg xmlns="http://www.w3.org/2000/svg" viewBox="0 0 89.64 88.59"><defs><style>.cls-1{opacity:0.9;}.cls-2{fill:none;stroke:#00afa2;stroke-miterlimit:10;}</style></defs><title>Ресурс 25</title><g id="Слой_2" data-name="Слой 2"><g id="Content"><g id="icon-2" class="cls-1"><path class="cls-2" d="M52.42,88.53l1.43-22.47a3.64,3.64,0,0,0,2.84,1.46h0a3.75,3.75,0,0,0,3.68-3.73l.08-23a3.72,3.72,0,0,0-3.67-3.73H32.86a3.7,3.7,0,0,0-3.69,3.71l.08,23a3.72,3.72,0,0,0,3.68,3.72h0a3.74,3.74,0,0,0,2.84-1.39l1.45,22.42"/><path class="cls-2" d="M18.76,60.82,19.9,43.18a2.83,2.83,0,0,0,2.23,1.14h0A3,3,0,0,0,25,41.39l.06-18.07a2.93,2.93,0,0,0-2.88-2.94H3.4A2.92,2.92,0,0,0,.5,23.3L.56,41.4a2.92,2.92,0,0,0,2.89,2.92h0a2.89,2.89,0,0,0,2.23-1.09L6.83,60.84"/><path class="cls-2" d="M70.88,60.82,69.74,43.18a2.85,2.85,0,0,1-2.24,1.14h0a3,3,0,0,1-2.89-2.93l0-18.07a2.93,2.93,0,0,1,2.89-2.94h18.8a2.92,2.92,0,0,1,2.9,2.92l-.07,18.1a2.91,2.91,0,0,1-2.89,2.92h0A2.87,2.87,0,0,1,84,43.23L82.81,60.84"/><g class="cls-1"><path class="cls-2" d="M55,22.46A10.19,10.19,0,1,1,44.83,12.27,10.19,10.19,0,0,1,55,22.46Z"/></g><g class="cls-1"><path class="cls-2" d="M20.8,8.51a8,8,0,1,1-8-8,8,8,0,0,1,8,8Z"/></g><g class="cls-1"><path class="cls-2" d="M84.85,8.51a8,8,0,1,1-8-8,8,8,0,0,1,8,8Z"/></g></g></g></g></svg>