<svg xmlns="http://www.w3.org/2000/svg" viewBox="0 0 89.55 90.24"><defs><style>.cls-1{opacity:0.9;}.cls-2{fill:none;stroke:#00afa2;stroke-miterlimit:10;}.cls-3{fill:#00afa2;}</style></defs><title>Ресурс 26</title><g id="Слой_2" data-name="Слой 2"><g id="Content"><g class="cls-1"><path class="cls-2" d="M85.11,61A43.62,43.62,0,0,0,59.4,5.3"/><polygon class="cls-3" points="89.55 59.78 85.53 59.78 82.74 56.88 82.7 66.4 89.55 59.78"/><path class="cls-2" d="M11.2,74.73a43.57,43.57,0,0,0,63.2,2.75"/><polygon class="cls-3" points="10.06 79.17 12.02 75.66 15.91 74.63 7.6 69.97 10.06 79.17"/><path class="cls-2" d="M36.41,3.22A43.63,43.63,0,0,0,1.78,56.65"/><polygon class="cls-3" points="33.18 0 35.2 3.48 34.1 7.35 42.35 2.58 33.18 0"/><g id="_Group_" data-name="&lt;Group&gt;"><g class="cls-1"><line class="cls-2" x1="32.92" y1="48.81" x2="32.92" y2="24.1"/></g><g class="cls-1"><line class="cls-2" x1="32.92" y1="68.21" x2="32.92" y2="48.81"/></g><path class="cls-2" d="M32.92,24.1H48.81A12.73,12.73,0,0,1,58,27.55a11.85,11.85,0,0,1,3.58,8.91A11.84,11.84,0,0,1,58,45.36a12.73,12.73,0,0,1-9.23,3.45H26.59"/><line class="cls-2" x1="26.59" y1="55.59" x2="44.5" y2="55.59"/></g></g></g></g></svg>