<svg xmlns="http://www.w3.org/2000/svg" viewBox="0 0 25 25"><defs><style>.cls-1{fill:#dcdcdc;}.cls-2{fill:#fff;}</style></defs><title>Ресурс 27</title><g id="Слой_2" data-name="Слой 2"><g id="Content"><circle class="cls-1" cx="12.5" cy="12.5" r="12.5"/><path class="cls-2" d="M10.87,16.9a4.5,4.5,0,0,1,.15-1l1-4.22H8.88l.33-1.56h5.1L13,16a2,2,0,0,0-.07.53,1.08,1.08,0,0,0,1.23,1.18,4,4,0,0,0,1.57-.41l.42,1.49a6,6,0,0,1-2.59.56A2.36,2.36,0,0,1,10.87,16.9Zm1.31-9.72a1.55,1.55,0,0,1,1.56-1.51,1.19,1.19,0,0,1,1.34,1.22A1.53,1.53,0,0,1,13.5,8.4,1.2,1.2,0,0,1,12.18,7.18Z"/></g></g></svg>