<svg xmlns="http://www.w3.org/2000/svg" viewBox="0 0 76.31 80.99"><defs><style>.cls-1,.cls-2{fill:none;stroke-miterlimit:10;stroke-width:0.99px;}.cls-1{stroke:#589b95;}.cls-2{stroke:#000;opacity:0.9;}</style></defs><title>Ресурс 17</title><g id="Слой_2" data-name="Слой 2"><g id="Content"><g id="icon-4"><path class="cls-1" d="M6.68.5h13.8a6.18,6.18,0,0,1,6.18,6.18V35a6.19,6.19,0,0,1-6.19,6.19H6.68A6.18,6.18,0,0,1,.5,35V6.68A6.18,6.18,0,0,1,6.68.5Z"/><line class="cls-2" x1="16.29" y1="79.06" x2="59.28" y2="0.5"/><path class="cls-1" d="M55.83,39.81h13.8A6.18,6.18,0,0,1,75.82,46V74.31a6.18,6.18,0,0,1-6.18,6.18H55.83a6.18,6.18,0,0,1-6.18-6.18V46a6.19,6.19,0,0,1,6.19-6.19Z"/></g></g></g></svg>