<svg xmlns="http://www.w3.org/2000/svg" viewBox="0 0 25.28 24.08"><defs><style>.cls-1{fill:none;stroke:#fff;stroke-miterlimit:10;stroke-width:0.5px;}</style></defs><title>Ресурс 5</title><g id="Слой_2" data-name="Слой 2"><g id="Content"><g id="DU"><rect class="cls-1" x="0.25" y="0.25" width="6.83" height="23.58" rx="0.65"/><circle class="cls-1" cx="3.67" cy="20.48" r="1.93"/><line class="cls-1" x1="1.65" y1="4.34" x2="5.6" y2="4.34"/><line class="cls-1" x1="1.65" y1="5.65" x2="5.6" y2="5.65"/><line class="cls-1" x1="1.65" y1="6.96" x2="5.6" y2="6.96"/><rect class="cls-1" x="9.22" y="0.25" width="6.83" height="23.58" rx="0.65"/><circle class="cls-1" cx="12.64" cy="20.48" r="1.93"/><line class="cls-1" x1="10.63" y1="4.34" x2="14.57" y2="4.34"/><line class="cls-1" x1="10.63" y1="5.65" x2="14.57" y2="5.65"/><line class="cls-1" x1="10.63" y1="6.96" x2="14.57" y2="6.96"/><rect class="cls-1" x="18.19" y="0.25" width="6.83" height="23.58" rx="0.65"/><circle class="cls-1" cx="21.61" cy="20.48" r="1.93"/><line class="cls-1" x1="19.6" y1="4.34" x2="23.54" y2="4.34"/><line class="cls-1" x1="19.6" y1="5.65" x2="23.54" y2="5.65"/><line class="cls-1" x1="19.6" y1="6.96" x2="23.54" y2="6.96"/></g></g></g></svg>