<svg xmlns="http://www.w3.org/2000/svg" viewBox="0 0 37.24 35.21"><defs><style>.cls-1{fill:none;stroke:#000;stroke-miterlimit:10;}</style></defs><title>Ресурс 5</title><g id="Слой_2" data-name="Слой 2"><g id="Content"><path class="cls-1" d="M35.72,33.44s2.66-9.26-.62-16.19a51.25,51.25,0,0,0-6.78-9.47,37.69,37.69,0,0,0-9.48-5.59C13.78.52,9.82,0,2.29,1.11c3.28,1,7.18,6.45,7.7,9.1a58.59,58.59,0,0,1,16.78,15C29.81,26,34.86,30.61,35.72,33.44Z"/><path class="cls-1" d="M31.48,4.2,5.58,32S3.76,34,2.23,32.46c-1.09-1.07-.74-3.17,1.38-3.89"/><path class="cls-1" d="M28.34,7.72C29,8.88,32.22,13.55,26.83,25"/><path class="cls-1" d="M28.21,7.66C27,7,21.38,3.37,10,10.08"/></g></g></svg>