<svg xmlns="http://www.w3.org/2000/svg" viewBox="0 0 35.89 34.21"><defs><style>.cls-1{fill:none;stroke:#000;stroke-miterlimit:10;}</style></defs><title>Ресурс 6</title><g id="Слой_2" data-name="Слой 2"><g id="Content"><rect class="cls-1" x="0.5" y="0.5" width="9.62" height="33.21" rx="0.91"/><circle class="cls-1" cx="5.31" cy="28.99" r="2.72"/><line class="cls-1" x1="2.48" y1="6.26" x2="8.03" y2="6.26"/><line class="cls-1" x1="2.48" y1="8.11" x2="8.03" y2="8.11"/><line class="cls-1" x1="2.48" y1="9.95" x2="8.03" y2="9.95"/><rect class="cls-1" x="13.13" y="0.5" width="9.62" height="33.21" rx="0.91"/><circle class="cls-1" cx="17.95" cy="28.99" r="2.72"/><line class="cls-1" x1="15.11" y1="6.26" x2="20.67" y2="6.26"/><line class="cls-1" x1="15.11" y1="8.11" x2="20.67" y2="8.11"/><line class="cls-1" x1="15.11" y1="9.95" x2="20.67" y2="9.95"/><rect class="cls-1" x="25.77" y="0.5" width="9.62" height="33.21" rx="0.91"/><circle class="cls-1" cx="30.58" cy="28.99" r="2.72"/><line class="cls-1" x1="27.75" y1="6.26" x2="33.3" y2="6.26"/><line class="cls-1" x1="27.75" y1="8.11" x2="33.3" y2="8.11"/><line class="cls-1" x1="27.75" y1="9.95" x2="33.3" y2="9.95"/></g></g></svg>