<svg xmlns="http://www.w3.org/2000/svg" viewBox="0 0 29.87 28.45"><defs><style>.cls-1{fill:none;stroke:#333;stroke-miterlimit:10;stroke-width:0.5px;}</style></defs><title>Ресурс 10</title><g id="Слой_2" data-name="Слой 2"><g id="Content"><rect class="cls-1" x="0.25" y="0.25" width="8.1" height="27.95" rx="0.77"/><circle class="cls-1" cx="4.3" cy="24.23" r="2.29"/><line class="cls-1" x1="1.92" y1="5.1" x2="6.59" y2="5.1"/><line class="cls-1" x1="1.92" y1="6.65" x2="6.59" y2="6.65"/><line class="cls-1" x1="1.92" y1="8.2" x2="6.59" y2="8.2"/><rect class="cls-1" x="10.88" y="0.25" width="8.1" height="27.95" rx="0.77"/><circle class="cls-1" cx="14.93" cy="24.23" r="2.29"/><line class="cls-1" x1="12.55" y1="5.1" x2="17.22" y2="5.1"/><line class="cls-1" x1="12.55" y1="6.65" x2="17.22" y2="6.65"/><line class="cls-1" x1="12.55" y1="8.2" x2="17.22" y2="8.2"/><rect class="cls-1" x="21.52" y="0.25" width="8.1" height="27.95" rx="0.77"/><circle class="cls-1" cx="25.57" cy="24.23" r="2.29"/><line class="cls-1" x1="23.18" y1="5.1" x2="27.86" y2="5.1"/><line class="cls-1" x1="23.18" y1="6.65" x2="27.86" y2="6.65"/><line class="cls-1" x1="23.18" y1="8.2" x2="27.86" y2="8.2"/></g></g></svg>