<svg xmlns="http://www.w3.org/2000/svg" viewBox="0 0 50 60"><defs><style>.cls-1{fill:#333;}.cls-2{fill:#fff;}</style></defs><title>Ресурс 13</title><g id="Слой_2" data-name="Слой 2"><g id="Content"><polygon class="cls-1" points="50 60 25 50.82 0 60 0 0 50 0 50 60"/><path class="cls-2" d="M17.36,22.13h1V33.51h-1V23.78l-6.48,9.73h-1V22.13h1v9.73Z"/><path class="cls-2" d="M28.72,22.13h1V33.51h-1V23.78l-6.48,9.73h-1V22.13h1v9.73Z"/><path class="cls-2" d="M40.66,30a4,4,0,0,1-1.29,2.75,4.23,4.23,0,0,1-2.9,1A4,4,0,0,1,34.23,33a4.08,4.08,0,0,1-1.5-1.79,6.21,6.21,0,0,1-.54-2.65V27.11a6.36,6.36,0,0,1,.53-2.69,4,4,0,0,1,1.53-1.8,4.6,4.6,0,0,1,5.18.34,4.2,4.2,0,0,1,1.23,2.73h-1a2.9,2.9,0,0,0-3.15-2.9A3,3,0,0,0,34.07,24a5,5,0,0,0-.91,3.2v1.39a5,5,0,0,0,.89,3.14,2.89,2.89,0,0,0,2.42,1.17,3.2,3.2,0,0,0,2.27-.72A3.45,3.45,0,0,0,39.69,30Z"/></g></g></svg>