<?xml version="1.0" encoding="utf-8"?>
<!-- Generator: Adobe Illustrator 23.0.1, SVG Export Plug-In . SVG Version: 6.00 Build 0)  -->
<svg version="1.1" id="Слой_1" xmlns="http://www.w3.org/2000/svg" xmlns:xlink="http://www.w3.org/1999/xlink" x="0px" y="0px"
	 viewBox="0 0 169.3 57" style="enable-background:new 0 0 169.3 57;" xml:space="preserve">
<style type="text/css">
	.st0{fill:#FFFFFF;}
	.st1{enable-background:new    ;}
</style>
<title>Ресурс 11</title>
<g>
	<g id="Head">
		<g id="side-menu">
			<g id="Иллюстрация_1">
				<path class="st0" d="M0,0v40.9h40.9V0H0z M12,34.1H8.2V6.8H12V34.1z M22.4,34.1h-3.8V6.8h3.8L22.4,34.1z M32.7,34.1h-3.8V6.8
					h3.8L32.7,34.1z"/>
				<g class="st1">
					<path class="st0" d="M86.4,31.2l2.3,1.6l-1.7,2.5l-2.4-1.7c-0.8,0.6-1.7,1-2.8,1.3c-1.1,0.2-2.7,0.4-4.9,0.4H64.3
						c-2.5,0-4.5-0.3-6.1-0.9c-1.5-0.6-2.7-1.6-3.4-3c-0.8-1.4-1.2-3.4-1.2-5.9v-9c0-2.4,0.4-4.3,1-5.8c0.6-1.5,1.7-2.6,3.3-3.3
						c1.5-0.7,3.7-1.1,6.4-1.1h12.6c2.4,0,4.4,0.3,5.9,0.8c1.5,0.6,2.6,1.6,3.4,3.1c0.8,1.5,1.2,3.6,1.2,6.3v9
						C87.4,27.8,87,29.7,86.4,31.2z M84.4,25.4v-9c0-1.7-0.2-3-0.4-3.9c-0.2-0.9-0.6-1.7-1.2-2.1c-0.5-0.5-1.3-0.8-2.2-1
						c-0.9-0.2-2.1-0.3-3.7-0.3H64.4c-1.5,0-2.8,0.1-3.8,0.4s-1.8,0.7-2.4,1.2c-0.6,0.6-1,1.3-1.3,2.2s-0.4,2.1-0.4,3.4v9
						c0,1.3,0.1,2.5,0.4,3.3c0.3,0.9,0.7,1.6,1.3,2.1c0.6,0.5,1.4,0.9,2.4,1.1c1,0.2,2.2,0.4,3.7,0.4h12.5c0.8,0,1.7-0.1,2.7-0.2
						c0.9-0.1,1.6-0.3,2-0.5l-10-6.5l1.8-2.4l10.5,6.8C84.2,28.7,84.4,27.3,84.4,25.4z"/>
					<path class="st0" d="M96.1,35.3V6.5h21.4c3.4,0,6,0.6,7.6,1.8s2.4,3.1,2.4,5.6c0,2-0.4,3.4-1.1,4.4c-0.7,0.9-1.6,1.6-2.5,1.9
						c0.5,0.1,1.1,0.4,1.8,0.8s1.3,1.1,1.8,2.1c0.6,1,0.8,2.2,0.8,3.8c0,2.1-0.4,3.7-1.1,5c-0.8,1.2-1.9,2.1-3.4,2.7
						c-1.5,0.5-3.4,0.8-5.6,0.8H96.1z M99,9.4v9.4h19.6c2.1,0,3.5-0.3,4.5-1c0.9-0.6,1.4-1.8,1.4-3.6c0-1.6-0.5-2.8-1.4-3.6
						c-0.9-0.8-2.4-1.2-4.5-1.2H99z M99,21.7v10.7h20.3c2,0,3.5-0.4,4.5-1.3c1-0.9,1.5-2.3,1.5-4.2c0-1.8-0.5-3.2-1.6-3.9
						c-1-0.8-2.6-1.2-4.7-1.2H99z"/>
					<path class="st0" d="M137,35.3V6.5h25.5v2.9H140V19h21.9v2.9H140v13.4H137z"/>
				</g>
				
			</g>
		</g>
	</g>
</g>
</svg>
