<svg xmlns="http://www.w3.org/2000/svg" viewBox="0 0 13.34 15.5"><defs><style>.cls-1{fill:none;stroke:#000;stroke-miterlimit:10;stroke-width:0.5px;}</style></defs><title>Ресурс 7</title><g id="Слой_2" data-name="Слой 2"><g id="Head"><g id="menu"><path class="cls-1" d="M11.67,15.25a1.43,1.43,0,0,0,1.42-1.42V12a2.61,2.61,0,0,0-1.25-2.08L8.33,8a.81.81,0,0,1-.11-1.49l.27-.19A3.13,3.13,0,0,0,9.63,4.1V2.54a2.31,2.31,0,0,0-1.3-2L7.54.25H5.8L5,.58a2.3,2.3,0,0,0-1.31,2V4.1A3.14,3.14,0,0,0,4.85,6.35l.27.19A.81.81,0,0,1,5,8L1.5,9.89A2.58,2.58,0,0,0,.25,12v1.86a1.43,1.43,0,0,0,1.42,1.42Z"/></g></g></g></svg>