<svg xmlns="http://www.w3.org/2000/svg" viewBox="0 0 126.05 90.41"><defs><style>.cls-1{fill:none;stroke:#84b332;stroke-miterlimit:10;}</style></defs><title>Ресурс 8</title><g id="Слой_2" data-name="Слой 2"><g id="Lead"><polyline class="cls-1" points="61.29 35.42 56.87 28.38 55.08 36.53"/><polyline class="cls-1" points="61.29 35.42 56.87 28.38 55.08 36.53"/><path class="cls-1" d="M6.69,90.15a62.52,62.52,0,1,1,112.66,0"/><path class="cls-1" d="M16.25,90.15a54.07,54.07,0,1,1,93.53,0"/><circle class="cls-1" cx="63.63" cy="62.16" r="26.9"/><line class="cls-1" x1="52.86" y1="6.64" x2="54.42" y2="15.35"/><line class="cls-1" x1="23.97" y1="25.64" x2="28.22" y2="29.55"/><line class="cls-1" x1="9.54" y1="55.5" x2="15.09" y2="56.56"/><line class="cls-1" x1="86.57" y1="14.43" x2="83.95" y2="19.58"/><line class="cls-1" x1="20.28" y1="85.62" x2="15.46" y2="88.6"/><line class="cls-1" x1="110.82" y1="37.38" x2="106.34" y2="40.23"/><line class="cls-1" x1="111.55" y1="69.28" x2="116.74" y2="70.47"/></g></g></svg>