<svg xmlns="http://www.w3.org/2000/svg" viewBox="0 0 471.33 470.98"><defs><style>.cls-1{fill:#909847;}.cls-1,.cls-10,.cls-11,.cls-12,.cls-2,.cls-3,.cls-4,.cls-5,.cls-6,.cls-7,.cls-8,.cls-9{stroke:#fff;stroke-miterlimit:10;stroke-width:3px;}.cls-2{fill:#00a1a7;}.cls-3{fill:#00b453;}.cls-4{fill:#9b6d8c;}.cls-5{fill:#e5dc3b;}.cls-6{fill:#28a8c6;}.cls-7{fill:#347272;}.cls-8{fill:#dbadc7;}.cls-9{fill:#36ad8a;}.cls-10{fill:#ff6d4a;}.cls-11{fill:#969696;}.cls-12{fill:#bcbcbc;}</style></defs><title>Ресурс 3</title><g id="Слой_2" data-name="Слой 2"><g id="Content"><path class="cls-1" d="M235.45,30V1.5c-41.34,0-77.24,9.29-113.4,29.33l13.87,25A204.45,204.45,0,0,1,235.45,30Z"/><path class="cls-2" d="M235.66,30A204.55,204.55,0,0,1,356.25,69.14l16.69-23C331.13,15.8,287.12,1.5,235.45,1.5V30Z"/><path class="cls-3" d="M431.06,171.85l26.85-8.72c-16-49.15-43.17-86.59-85-117l-16.69,23A205.86,205.86,0,0,1,431.06,171.85Z"/><path class="cls-4" d="M457.91,163.13l-26.85,8.72a206.83,206.83,0,0,1,7,99.28L465.8,276C473,235.31,470.68,202.44,457.91,163.13Z"/><path class="cls-5" d="M438,271.13a204.56,204.56,0,0,1-42.75,93.71l21.94,17.77c26-32.13,41.4-65.88,48.57-106.59Z"/><path class="cls-6" d="M312.49,426.09l10.58,26.19c38.33-15.48,68.15-37.55,94.16-69.67l-21.94-17.77A205.93,205.93,0,0,1,312.49,426.09Z"/><path class="cls-7" d="M235.66,441a206.53,206.53,0,0,1-25.26-1.55L207,467.57c41,5,77.8.2,116.12-15.29l-10.58-26.19A204.77,204.77,0,0,1,235.66,441Z"/><path class="cls-8" d="M114.72,401.58,98,424.64c33.45,24.3,68,37.89,109,42.93l3.45-28.17A204.32,204.32,0,0,1,114.72,401.58Z"/><path class="cls-9" d="M50.89,325.42,25.22,337.94c18.12,37.16,39.3,62.4,72.74,86.7l16.76-23.06A206.36,206.36,0,0,1,50.89,325.42Z"/><path class="cls-10" d="M30.21,235.49q0-5.44.28-10.82L1.87,223.16C-.3,264.45,7.1,300.79,25.22,337.94l25.67-12.52A204.65,204.65,0,0,1,30.21,235.49Z"/><path class="cls-11" d="M61.39,126.64l-24.3-15.19C15.18,146.51,4,181.88,1.87,223.16l28.62,1.51A204.28,204.28,0,0,1,61.39,126.64Z"/><path class="cls-12" d="M135.92,55.84l-13.87-25c-36.15,20-63.06,45.57-85,80.62l24.3,15.19A206.45,206.45,0,0,1,135.92,55.84Z"/></g></g></svg>