<?xml version="1.0" encoding="utf-8"?>
<!-- Generator: Adobe Illustrator 23.0.1, SVG Export Plug-In . SVG Version: 6.00 Build 0)  -->
<svg version="1.1" id="Слой_1" xmlns="http://www.w3.org/2000/svg" xmlns:xlink="http://www.w3.org/1999/xlink" x="0px" y="0px"
	 viewBox="0 0 1280.3 272" style="enable-background:new 0 0 1280.3 272;" xml:space="preserve">
<style type="text/css">
	.st0{enable-background:new    ;}
	.st1{fill:#666666;}
	.st2{fill:none;stroke:#CCCECE;stroke-miterlimit:10;}
	.st3{fill:none;stroke:#00A19B;stroke-miterlimit:10;}
</style>
<title>Ресурс 4</title>
<g>
	<g id="Content">
		<g class="st0">
			<path class="st1" d="M3.1,237.8H0.3v-0.6h2.8V237.8z"/>
			<path class="st1" d="M10.2,241.3H4.8v-0.5l2.9-3.3c0.5-0.6,0.8-1,1-1.4S9,235.3,9,235c0-0.5-0.2-1-0.5-1.3s-0.8-0.5-1.3-0.5
				c-0.6,0-1,0.2-1.4,0.6s-0.5,0.8-0.5,1.4H4.6c0-0.5,0.1-0.9,0.3-1.3s0.5-0.7,0.9-0.9s0.9-0.3,1.4-0.3c0.8,0,1.4,0.2,1.8,0.6
				s0.7,1,0.7,1.7c0,0.4-0.1,0.8-0.4,1.3s-0.7,1.1-1.3,1.8l-2.4,2.7h4.5V241.3z"/>
			<path class="st1" d="M12.1,242.9l-0.4-0.3c0.4-0.5,0.5-1,0.6-1.5v-0.9h0.7v0.7C12.9,241.7,12.6,242.4,12.1,242.9z"/>
			<path class="st1" d="M19.4,237.3c-0.3,0.4-0.6,0.7-0.9,0.9s-0.8,0.3-1.2,0.3c-0.5,0-0.9-0.1-1.3-0.4s-0.7-0.6-0.9-1
				s-0.3-0.9-0.3-1.4c0-0.6,0.1-1.1,0.3-1.5s0.5-0.8,0.9-1.1s0.8-0.4,1.3-0.4c0.9,0,1.5,0.3,2,0.9s0.7,1.5,0.7,2.6v0.6
				c0,1.5-0.3,2.7-1,3.5s-1.7,1.2-3,1.2h-0.1l0-0.6h0.2c1,0,1.8-0.3,2.3-0.9S19.3,238.4,19.4,237.3z M17.3,237.9
				c0.5,0,0.9-0.1,1.3-0.4s0.6-0.6,0.8-1.1V236c0-0.9-0.2-1.5-0.5-2s-0.8-0.7-1.5-0.7c-0.6,0-1,0.2-1.4,0.7s-0.5,1-0.5,1.7
				c0,0.7,0.2,1.2,0.5,1.6S16.8,237.9,17.3,237.9z"/>
			<path class="st1" d="M22.1,234.4c0-0.5,0.2-0.9,0.5-1.3s0.7-0.5,1.2-0.5s0.9,0.2,1.2,0.5s0.5,0.8,0.5,1.3v0.4
				c0,0.5-0.2,0.9-0.5,1.3s-0.7,0.5-1.2,0.5c-0.5,0-0.9-0.2-1.2-0.5s-0.5-0.8-0.5-1.3V234.4z M22.6,234.8c0,0.4,0.1,0.7,0.3,0.9
				c0.2,0.2,0.5,0.4,0.8,0.4c0.3,0,0.6-0.1,0.8-0.4c0.2-0.2,0.3-0.5,0.3-0.9v-0.4c0-0.4-0.1-0.7-0.3-0.9c-0.2-0.2-0.5-0.4-0.8-0.4
				c-0.3,0-0.6,0.1-0.8,0.4c-0.2,0.2-0.3,0.5-0.3,0.9V234.8z M24,240.6l-0.4-0.3l4.2-6.7l0.4,0.3L24,240.6z M26.4,239.2
				c0-0.5,0.2-0.9,0.5-1.3s0.7-0.5,1.2-0.5s0.9,0.2,1.2,0.5s0.5,0.8,0.5,1.3v0.4c0,0.5-0.2,0.9-0.5,1.3s-0.7,0.5-1.2,0.5
				s-0.9-0.2-1.2-0.5s-0.5-0.8-0.5-1.3V239.2z M26.9,239.6c0,0.4,0.1,0.7,0.3,0.9c0.2,0.2,0.5,0.4,0.8,0.4c0.3,0,0.6-0.1,0.8-0.4
				c0.2-0.2,0.3-0.5,0.3-0.9v-0.4c0-0.4-0.1-0.7-0.3-0.9c-0.2-0.2-0.5-0.3-0.8-0.3c-0.3,0-0.6,0.1-0.8,0.3c-0.2,0.2-0.3,0.5-0.3,0.9
				V239.6z"/>
		</g>
		<g class="st0">
			<path class="st1" d="M100.6,268.8h-0.7v-7.7l-2.3,0.9v-0.7l2.9-1.1h0.1V268.8z"/>
			<path class="st1" d="M109.9,268.8h-5.3v-0.5l2.9-3.3c0.5-0.6,0.8-1,1-1.4s0.3-0.7,0.3-1.1c0-0.5-0.2-1-0.5-1.3s-0.8-0.5-1.3-0.5
				c-0.6,0-1,0.2-1.4,0.6s-0.5,0.8-0.5,1.4h-0.7c0-0.5,0.1-0.9,0.3-1.3s0.5-0.7,0.9-0.9s0.9-0.3,1.4-0.3c0.8,0,1.4,0.2,1.8,0.6
				s0.7,1,0.7,1.7c0,0.4-0.1,0.8-0.4,1.3s-0.7,1.1-1.3,1.8l-2.4,2.7h4.5V268.8z"/>
			<path class="st1" d="M111.8,268.3c0-0.1,0-0.3,0.1-0.3s0.2-0.1,0.4-0.1s0.3,0,0.4,0.1s0.1,0.2,0.1,0.3s0,0.2-0.1,0.3
				s-0.2,0.1-0.4,0.1s-0.3,0-0.4-0.1S111.8,268.5,111.8,268.3z"/>
			<path class="st1" d="M118.5,268.8h-0.7v-7.7l-2.3,0.9v-0.7l2.9-1.1h0.1V268.8z"/>
			<path class="st1" d="M125.8,268.8h-0.7v-7.7l-2.3,0.9v-0.7l2.9-1.1h0.1V268.8z"/>
			<path class="st1" d="M129.8,268.3c0-0.1,0-0.3,0.1-0.3s0.2-0.1,0.4-0.1s0.3,0,0.4,0.1s0.1,0.2,0.1,0.3s0,0.2-0.1,0.3
				s-0.2,0.1-0.4,0.1s-0.3,0-0.4-0.1S129.8,268.5,129.8,268.3z"/>
			<path class="st1" d="M136.5,268.8h-0.7v-7.7l-2.3,0.9v-0.7l2.9-1.1h0.1V268.8z"/>
			<path class="st1" d="M145.5,262.4c0,0.4-0.1,0.8-0.4,1.2s-0.6,0.6-1,0.8c0.5,0.2,0.9,0.4,1.2,0.8s0.4,0.8,0.4,1.3
				c0,0.7-0.2,1.3-0.7,1.7s-1.2,0.6-2,0.6c-0.8,0-1.5-0.2-2-0.6s-0.7-1-0.7-1.7c0-0.5,0.1-0.9,0.4-1.3s0.7-0.7,1.2-0.8
				c-0.4-0.2-0.8-0.4-1-0.8s-0.4-0.7-0.4-1.2c0-0.7,0.2-1.3,0.7-1.7s1.1-0.6,1.8-0.6s1.4,0.2,1.8,0.6S145.5,261.7,145.5,262.4z
				 M145,266.5c0-0.5-0.2-1-0.6-1.3s-0.9-0.5-1.5-0.5s-1.1,0.2-1.4,0.5s-0.6,0.8-0.6,1.3s0.2,1,0.5,1.3s0.9,0.5,1.5,0.5
				c0.6,0,1.1-0.2,1.5-0.5S145,267.1,145,266.5z M144.8,262.4c0-0.5-0.2-0.9-0.5-1.2s-0.8-0.5-1.3-0.5c-0.5,0-1,0.2-1.3,0.5
				s-0.5,0.7-0.5,1.2c0,0.5,0.2,0.9,0.5,1.2s0.8,0.5,1.3,0.5c0.5,0,1-0.2,1.3-0.5S144.8,262.9,144.8,262.4z"/>
		</g>
		<g class="st0">
			<path class="st1" d="M280.4,268.8h-5.3v-0.5l2.9-3.3c0.5-0.6,0.8-1,1-1.4s0.3-0.7,0.3-1.1c0-0.5-0.2-1-0.5-1.3s-0.8-0.5-1.3-0.5
				c-0.6,0-1,0.2-1.4,0.6s-0.5,0.8-0.5,1.4h-0.7c0-0.5,0.1-0.9,0.3-1.3s0.5-0.7,0.9-0.9s0.9-0.3,1.4-0.3c0.8,0,1.4,0.2,1.8,0.6
				s0.7,1,0.7,1.7c0,0.4-0.1,0.8-0.4,1.3s-0.7,1.1-1.3,1.8l-2.4,2.7h4.5V268.8z"/>
			<path class="st1" d="M283.9,264.1h0.7c0.4,0,0.8-0.1,1.1-0.2s0.5-0.3,0.7-0.6s0.2-0.5,0.2-0.9c0-0.5-0.2-1-0.5-1.3
				s-0.8-0.5-1.3-0.5c-0.5,0-1,0.2-1.3,0.5s-0.5,0.7-0.5,1.3h-0.7c0-0.4,0.1-0.8,0.3-1.2s0.5-0.6,0.9-0.8s0.8-0.3,1.3-0.3
				c0.8,0,1.4,0.2,1.8,0.6s0.7,1,0.7,1.7c0,0.4-0.1,0.8-0.4,1.1s-0.6,0.6-1.1,0.8c0.5,0.1,0.9,0.4,1.2,0.8s0.4,0.8,0.4,1.3
				c0,0.7-0.2,1.3-0.7,1.8s-1.1,0.7-1.9,0.7c-0.5,0-1-0.1-1.4-0.3s-0.8-0.5-1-0.9s-0.3-0.8-0.3-1.3h0.7c0,0.5,0.2,1,0.6,1.3
				s0.9,0.5,1.5,0.5c0.6,0,1.1-0.2,1.4-0.5s0.5-0.8,0.5-1.4c0-0.6-0.2-1-0.5-1.3s-0.9-0.5-1.6-0.5h-0.7V264.1z"/>
			<path class="st1" d="M289.6,268.3c0-0.1,0-0.3,0.1-0.3s0.2-0.1,0.4-0.1s0.3,0,0.4,0.1s0.1,0.2,0.1,0.3s0,0.2-0.1,0.3
				s-0.2,0.1-0.4,0.1s-0.3,0-0.4-0.1S289.6,268.5,289.6,268.3z"/>
			<path class="st1" d="M296.3,268.8h-0.7v-7.7l-2.3,0.9v-0.7l2.9-1.1h0.1V268.8z"/>
			<path class="st1" d="M303.5,268.8h-0.7v-7.7l-2.3,0.9v-0.7l2.9-1.1h0.1V268.8z"/>
			<path class="st1" d="M307.6,268.3c0-0.1,0-0.3,0.1-0.3s0.2-0.1,0.4-0.1s0.3,0,0.4,0.1s0.1,0.2,0.1,0.3s0,0.2-0.1,0.3
				s-0.2,0.1-0.4,0.1s-0.3,0-0.4-0.1S307.6,268.5,307.6,268.3z"/>
			<path class="st1" d="M314.3,268.8h-0.7v-7.7l-2.3,0.9v-0.7l2.9-1.1h0.1V268.8z"/>
			<path class="st1" d="M323.3,262.4c0,0.4-0.1,0.8-0.4,1.2s-0.6,0.6-1,0.8c0.5,0.2,0.9,0.4,1.2,0.8s0.4,0.8,0.4,1.3
				c0,0.7-0.2,1.3-0.7,1.7s-1.2,0.6-2,0.6c-0.8,0-1.5-0.2-2-0.6s-0.7-1-0.7-1.7c0-0.5,0.1-0.9,0.4-1.3s0.7-0.7,1.2-0.8
				c-0.4-0.2-0.8-0.4-1-0.8s-0.4-0.7-0.4-1.2c0-0.7,0.2-1.3,0.7-1.7s1.1-0.6,1.8-0.6s1.4,0.2,1.8,0.6S323.3,261.7,323.3,262.4z
				 M322.8,266.5c0-0.5-0.2-1-0.6-1.3s-0.9-0.5-1.5-0.5s-1.1,0.2-1.4,0.5s-0.6,0.8-0.6,1.3s0.2,1,0.5,1.3s0.9,0.5,1.5,0.5
				c0.6,0,1.1-0.2,1.5-0.5S322.8,267.1,322.8,266.5z M322.6,262.4c0-0.5-0.2-0.9-0.5-1.2s-0.8-0.5-1.3-0.5c-0.5,0-1,0.2-1.3,0.5
				s-0.5,0.7-0.5,1.2c0,0.5,0.2,0.9,0.5,1.2s0.8,0.5,1.3,0.5c0.5,0,1-0.2,1.3-0.5S322.6,262.9,322.6,262.4z"/>
		</g>
		<g class="st0">
			<path class="st1" d="M458,265.2c0,1.2-0.2,2.1-0.7,2.7s-1.1,0.9-2,0.9c-0.8,0-1.5-0.3-1.9-0.9s-0.7-1.5-0.7-2.7v-1.5
				c0-1.2,0.2-2.1,0.7-2.7s1.1-0.9,2-0.9c0.8,0,1.5,0.3,1.9,0.9s0.7,1.5,0.7,2.6V265.2z M457.3,263.7c0-1-0.2-1.7-0.5-2.2
				s-0.8-0.8-1.4-0.8c-0.6,0-1.1,0.2-1.4,0.7s-0.5,1.2-0.5,2.2v1.7c0,1,0.2,1.7,0.5,2.2s0.8,0.8,1.4,0.8c0.6,0,1.1-0.3,1.4-0.8
				s0.5-1.2,0.5-2.2V263.7z"/>
			<path class="st1" d="M460.6,264.4l0.4-4.2h4.3v0.7h-3.7l-0.3,2.9c0.5-0.3,1-0.5,1.6-0.5c0.8,0,1.4,0.3,1.8,0.8s0.7,1.2,0.7,2
				c0,0.9-0.2,1.6-0.7,2.1s-1.1,0.7-1.9,0.7c-0.7,0-1.3-0.2-1.8-0.6s-0.7-1-0.8-1.7h0.7c0.1,0.6,0.3,1,0.6,1.3s0.8,0.4,1.3,0.4
				c0.6,0,1.1-0.2,1.4-0.6s0.5-0.9,0.5-1.7c0-0.6-0.2-1.1-0.5-1.5s-0.8-0.6-1.4-0.6c-0.3,0-0.6,0-0.9,0.1s-0.5,0.2-0.8,0.5
				L460.6,264.4z"/>
			<path class="st1" d="M467.4,268.3c0-0.1,0-0.3,0.1-0.3s0.2-0.1,0.4-0.1s0.3,0,0.4,0.1s0.1,0.2,0.1,0.3s0,0.2-0.1,0.3
				s-0.2,0.1-0.4,0.1s-0.3,0-0.4-0.1S467.4,268.5,467.4,268.3z"/>
			<path class="st1" d="M474.1,268.8h-0.7v-7.7l-2.3,0.9v-0.7l2.9-1.1h0.1V268.8z"/>
			<path class="st1" d="M483.4,268.8h-5.3v-0.5l2.9-3.3c0.5-0.6,0.8-1,1-1.4s0.3-0.7,0.3-1.1c0-0.5-0.2-1-0.5-1.3s-0.8-0.5-1.3-0.5
				c-0.6,0-1,0.2-1.4,0.6s-0.5,0.8-0.5,1.4h-0.7c0-0.5,0.1-0.9,0.3-1.3s0.5-0.7,0.9-0.9s0.9-0.3,1.4-0.3c0.8,0,1.4,0.2,1.8,0.6
				s0.7,1,0.7,1.7c0,0.4-0.1,0.8-0.4,1.3s-0.7,1.1-1.3,1.8l-2.4,2.7h4.5V268.8z"/>
			<path class="st1" d="M485.4,268.3c0-0.1,0-0.3,0.1-0.3s0.2-0.1,0.4-0.1s0.3,0,0.4,0.1s0.1,0.2,0.1,0.3s0,0.2-0.1,0.3
				s-0.2,0.1-0.4,0.1s-0.3,0-0.4-0.1S485.4,268.5,485.4,268.3z"/>
			<path class="st1" d="M492,268.8h-0.7v-7.7l-2.3,0.9v-0.7l2.9-1.1h0.1V268.8z"/>
			<path class="st1" d="M501.1,262.4c0,0.4-0.1,0.8-0.4,1.2s-0.6,0.6-1,0.8c0.5,0.2,0.9,0.4,1.2,0.8s0.4,0.8,0.4,1.3
				c0,0.7-0.2,1.3-0.7,1.7s-1.2,0.6-2,0.6c-0.8,0-1.5-0.2-2-0.6s-0.7-1-0.7-1.7c0-0.5,0.1-0.9,0.4-1.3s0.7-0.7,1.2-0.8
				c-0.4-0.2-0.8-0.4-1-0.8s-0.4-0.7-0.4-1.2c0-0.7,0.2-1.3,0.7-1.7s1.1-0.6,1.8-0.6s1.4,0.2,1.8,0.6S501.1,261.7,501.1,262.4z
				 M500.6,266.5c0-0.5-0.2-1-0.6-1.3s-0.9-0.5-1.5-0.5s-1.1,0.2-1.4,0.5s-0.6,0.8-0.6,1.3s0.2,1,0.5,1.3s0.9,0.5,1.5,0.5
				c0.6,0,1.1-0.2,1.5-0.5S500.6,267.1,500.6,266.5z M500.3,262.4c0-0.5-0.2-0.9-0.5-1.2s-0.8-0.5-1.3-0.5c-0.5,0-1,0.2-1.3,0.5
				s-0.5,0.7-0.5,1.2c0,0.5,0.2,0.9,0.5,1.2s0.8,0.5,1.3,0.5c0.5,0,1-0.2,1.3-0.5S500.3,262.9,500.3,262.4z"/>
		</g>
		<g class="st0">
			<path class="st1" d="M633.9,268.8h-0.7v-7.7l-2.3,0.9v-0.7l2.9-1.1h0.1V268.8z"/>
			<path class="st1" d="M643.1,260.6l-3.6,8.1h-0.7l3.6-7.9h-4.9v-0.6h5.6V260.6z"/>
			<path class="st1" d="M645.2,268.3c0-0.1,0-0.3,0.1-0.3s0.2-0.1,0.4-0.1s0.3,0,0.4,0.1s0.1,0.2,0.1,0.3s0,0.2-0.1,0.3
				s-0.2,0.1-0.4,0.1s-0.3,0-0.4-0.1S645.2,268.5,645.2,268.3z"/>
			<path class="st1" d="M651.8,268.8h-0.7v-7.7l-2.3,0.9v-0.7l2.9-1.1h0.1V268.8z"/>
			<path class="st1" d="M661.2,268.8h-5.3v-0.5l2.9-3.3c0.5-0.6,0.8-1,1-1.4s0.3-0.7,0.3-1.1c0-0.5-0.2-1-0.5-1.3s-0.8-0.5-1.3-0.5
				c-0.6,0-1,0.2-1.4,0.6s-0.5,0.8-0.5,1.4h-0.7c0-0.5,0.1-0.9,0.3-1.3s0.5-0.7,0.9-0.9s0.9-0.3,1.4-0.3c0.8,0,1.4,0.2,1.8,0.6
				s0.7,1,0.7,1.7c0,0.4-0.1,0.8-0.4,1.3s-0.7,1.1-1.3,1.8l-2.4,2.7h4.5V268.8z"/>
			<path class="st1" d="M663.1,268.3c0-0.1,0-0.3,0.1-0.3s0.2-0.1,0.4-0.1s0.3,0,0.4,0.1s0.1,0.2,0.1,0.3s0,0.2-0.1,0.3
				s-0.2,0.1-0.4,0.1s-0.3,0-0.4-0.1S663.1,268.5,663.1,268.3z"/>
			<path class="st1" d="M669.8,268.8h-0.7v-7.7l-2.3,0.9v-0.7l2.9-1.1h0.1V268.8z"/>
			<path class="st1" d="M678.8,262.4c0,0.4-0.1,0.8-0.4,1.2s-0.6,0.6-1,0.8c0.5,0.2,0.9,0.4,1.2,0.8s0.4,0.8,0.4,1.3
				c0,0.7-0.2,1.3-0.7,1.7s-1.2,0.6-2,0.6c-0.8,0-1.5-0.2-2-0.6s-0.7-1-0.7-1.7c0-0.5,0.1-0.9,0.4-1.3s0.7-0.7,1.2-0.8
				c-0.4-0.2-0.8-0.4-1-0.8s-0.4-0.7-0.4-1.2c0-0.7,0.2-1.3,0.7-1.7s1.1-0.6,1.8-0.6s1.4,0.2,1.8,0.6S678.8,261.7,678.8,262.4z
				 M678.3,266.5c0-0.5-0.2-1-0.6-1.3s-0.9-0.5-1.5-0.5s-1.1,0.2-1.4,0.5s-0.6,0.8-0.6,1.3s0.2,1,0.5,1.3s0.9,0.5,1.5,0.5
				c0.6,0,1.1-0.2,1.5-0.5S678.3,267.1,678.3,266.5z M678.1,262.4c0-0.5-0.2-0.9-0.5-1.2s-0.8-0.5-1.3-0.5c-0.5,0-1,0.2-1.3,0.5
				s-0.5,0.7-0.5,1.2c0,0.5,0.2,0.9,0.5,1.2s0.8,0.5,1.3,0.5c0.5,0,1-0.2,1.3-0.5S678.1,262.9,678.1,262.4z"/>
		</g>
		<g class="st0">
			<path class="st1" d="M813.7,268.8h-5.3v-0.5l2.9-3.3c0.5-0.6,0.8-1,1-1.4s0.3-0.7,0.3-1.1c0-0.5-0.2-1-0.5-1.3s-0.8-0.5-1.3-0.5
				c-0.6,0-1,0.2-1.4,0.6s-0.5,0.8-0.5,1.4h-0.7c0-0.5,0.1-0.9,0.3-1.3s0.5-0.7,0.9-0.9s0.9-0.3,1.4-0.3c0.8,0,1.4,0.2,1.8,0.6
				s0.7,1,0.7,1.7c0,0.4-0.1,0.8-0.4,1.3s-0.7,1.1-1.3,1.8l-2.4,2.7h4.5V268.8z"/>
			<path class="st1" d="M820.7,262.4c0,0.4-0.1,0.8-0.4,1.2s-0.6,0.6-1,0.8c0.5,0.2,0.9,0.4,1.2,0.8s0.4,0.8,0.4,1.3
				c0,0.7-0.2,1.3-0.7,1.7s-1.2,0.6-2,0.6c-0.8,0-1.5-0.2-2-0.6s-0.7-1-0.7-1.7c0-0.5,0.1-0.9,0.4-1.3s0.7-0.7,1.2-0.8
				c-0.4-0.2-0.8-0.4-1-0.8s-0.4-0.7-0.4-1.2c0-0.7,0.2-1.3,0.7-1.7s1.1-0.6,1.8-0.6s1.4,0.2,1.8,0.6S820.7,261.7,820.7,262.4z
				 M820.2,266.5c0-0.5-0.2-1-0.6-1.3s-0.9-0.5-1.5-0.5s-1.1,0.2-1.4,0.5s-0.6,0.8-0.6,1.3s0.2,1,0.5,1.3s0.9,0.5,1.5,0.5
				c0.6,0,1.1-0.2,1.5-0.5S820.2,267.1,820.2,266.5z M820,262.4c0-0.5-0.2-0.9-0.5-1.2s-0.8-0.5-1.3-0.5c-0.5,0-1,0.2-1.3,0.5
				s-0.5,0.7-0.5,1.2c0,0.5,0.2,0.9,0.5,1.2s0.8,0.5,1.3,0.5c0.5,0,1-0.2,1.3-0.5S820,262.9,820,262.4z"/>
			<path class="st1" d="M822.9,268.3c0-0.1,0-0.3,0.1-0.3s0.2-0.1,0.4-0.1s0.3,0,0.4,0.1s0.1,0.2,0.1,0.3s0,0.2-0.1,0.3
				s-0.2,0.1-0.4,0.1s-0.3,0-0.4-0.1S822.9,268.5,822.9,268.3z"/>
			<path class="st1" d="M829.6,268.8h-0.7v-7.7l-2.3,0.9v-0.7l2.9-1.1h0.1V268.8z"/>
			<path class="st1" d="M838.9,268.8h-5.3v-0.5l2.9-3.3c0.5-0.6,0.8-1,1-1.4s0.3-0.7,0.3-1.1c0-0.5-0.2-1-0.5-1.3s-0.8-0.5-1.3-0.5
				c-0.6,0-1,0.2-1.4,0.6s-0.5,0.8-0.5,1.4h-0.7c0-0.5,0.1-0.9,0.3-1.3s0.5-0.7,0.9-0.9s0.9-0.3,1.4-0.3c0.8,0,1.4,0.2,1.8,0.6
				s0.7,1,0.7,1.7c0,0.4-0.1,0.8-0.4,1.3s-0.7,1.1-1.3,1.8l-2.4,2.7h4.5V268.8z"/>
			<path class="st1" d="M840.9,268.3c0-0.1,0-0.3,0.1-0.3s0.2-0.1,0.4-0.1s0.3,0,0.4,0.1s0.1,0.2,0.1,0.3s0,0.2-0.1,0.3
				s-0.2,0.1-0.4,0.1s-0.3,0-0.4-0.1S840.9,268.5,840.9,268.3z"/>
			<path class="st1" d="M847.6,268.8h-0.7v-7.7l-2.3,0.9v-0.7l2.9-1.1h0.1V268.8z"/>
			<path class="st1" d="M856.6,262.4c0,0.4-0.1,0.8-0.4,1.2s-0.6,0.6-1,0.8c0.5,0.2,0.9,0.4,1.2,0.8s0.4,0.8,0.4,1.3
				c0,0.7-0.2,1.3-0.7,1.7s-1.2,0.6-2,0.6c-0.8,0-1.5-0.2-2-0.6s-0.7-1-0.7-1.7c0-0.5,0.1-0.9,0.4-1.3s0.7-0.7,1.2-0.8
				c-0.4-0.2-0.8-0.4-1-0.8s-0.4-0.7-0.4-1.2c0-0.7,0.2-1.3,0.7-1.7s1.1-0.6,1.8-0.6s1.4,0.2,1.8,0.6S856.6,261.7,856.6,262.4z
				 M856.1,266.5c0-0.5-0.2-1-0.6-1.3s-0.9-0.5-1.5-0.5s-1.1,0.2-1.4,0.5s-0.6,0.8-0.6,1.3s0.2,1,0.5,1.3s0.9,0.5,1.5,0.5
				c0.6,0,1.1-0.2,1.5-0.5S856.1,267.1,856.1,266.5z M855.9,262.4c0-0.5-0.2-0.9-0.5-1.2s-0.8-0.5-1.3-0.5c-0.5,0-1,0.2-1.3,0.5
				s-0.5,0.7-0.5,1.2c0,0.5,0.2,0.9,0.5,1.2s0.8,0.5,1.3,0.5c0.5,0,1-0.2,1.3-0.5S855.9,262.9,855.9,262.4z"/>
		</g>
		<g class="st0">
			<path class="st1" d="M991.3,265.2c0,1.2-0.2,2.1-0.7,2.7s-1.1,0.9-2,0.9c-0.8,0-1.5-0.3-1.9-0.9s-0.7-1.5-0.7-2.7v-1.5
				c0-1.2,0.2-2.1,0.7-2.7s1.1-0.9,2-0.9c0.8,0,1.5,0.3,1.9,0.9s0.7,1.5,0.7,2.6V265.2z M990.6,263.7c0-1-0.2-1.7-0.5-2.2
				s-0.8-0.8-1.4-0.8c-0.6,0-1.1,0.2-1.4,0.7s-0.5,1.2-0.5,2.2v1.7c0,1,0.2,1.7,0.5,2.2s0.8,0.8,1.4,0.8c0.6,0,1.1-0.3,1.4-0.8
				s0.5-1.2,0.5-2.2V263.7z"/>
			<path class="st1" d="M997.8,264.8c-0.3,0.4-0.6,0.7-0.9,0.9s-0.8,0.3-1.2,0.3c-0.5,0-0.9-0.1-1.3-0.4s-0.7-0.6-0.9-1
				s-0.3-0.9-0.3-1.4c0-0.6,0.1-1.1,0.3-1.5s0.5-0.8,0.9-1.1s0.8-0.4,1.3-0.4c0.9,0,1.5,0.3,2,0.9s0.7,1.5,0.7,2.6v0.6
				c0,1.5-0.3,2.7-1,3.5s-1.7,1.2-3,1.2h-0.1l0-0.6h0.2c1,0,1.8-0.3,2.3-0.9S997.8,265.9,997.8,264.8z M995.7,265.4
				c0.5,0,0.9-0.1,1.3-0.4s0.6-0.6,0.8-1.1v-0.4c0-0.9-0.2-1.5-0.5-2s-0.8-0.7-1.5-0.7c-0.6,0-1,0.2-1.4,0.7s-0.5,1-0.5,1.7
				c0,0.7,0.2,1.2,0.5,1.6S995.2,265.4,995.7,265.4z"/>
			<path class="st1" d="M1000.7,268.3c0-0.1,0-0.3,0.1-0.3s0.2-0.1,0.4-0.1s0.3,0,0.4,0.1s0.1,0.2,0.1,0.3s0,0.2-0.1,0.3
				s-0.2,0.1-0.4,0.1s-0.3,0-0.4-0.1S1000.7,268.5,1000.7,268.3z"/>
			<path class="st1" d="M1009.3,265.2c0,1.2-0.2,2.1-0.7,2.7s-1.1,0.9-2,0.9c-0.8,0-1.5-0.3-1.9-0.9s-0.7-1.5-0.7-2.7v-1.5
				c0-1.2,0.2-2.1,0.7-2.7s1.1-0.9,2-0.9c0.8,0,1.5,0.3,1.9,0.9s0.7,1.5,0.7,2.6V265.2z M1008.6,263.7c0-1-0.2-1.7-0.5-2.2
				s-0.8-0.8-1.4-0.8c-0.6,0-1.1,0.2-1.4,0.7s-0.5,1.2-0.5,2.2v1.7c0,1,0.2,1.7,0.5,2.2s0.8,0.8,1.4,0.8c0.6,0,1.1-0.3,1.4-0.8
				s0.5-1.2,0.5-2.2V263.7z"/>
			<path class="st1" d="M1014.6,268.8h-0.7v-7.7l-2.3,0.9v-0.7l2.9-1.1h0.1V268.8z"/>
			<path class="st1" d="M1018.7,268.3c0-0.1,0-0.3,0.1-0.3s0.2-0.1,0.4-0.1s0.3,0,0.4,0.1s0.1,0.2,0.1,0.3s0,0.2-0.1,0.3
				s-0.2,0.1-0.4,0.1s-0.3,0-0.4-0.1S1018.7,268.5,1018.7,268.3z"/>
			<path class="st1" d="M1025.3,268.8h-0.7v-7.7l-2.3,0.9v-0.7l2.9-1.1h0.1V268.8z"/>
			<path class="st1" d="M1033.7,264.8c-0.3,0.4-0.6,0.7-0.9,0.9s-0.8,0.3-1.2,0.3c-0.5,0-0.9-0.1-1.3-0.4s-0.7-0.6-0.9-1
				s-0.3-0.9-0.3-1.4c0-0.6,0.1-1.1,0.3-1.5s0.5-0.8,0.9-1.1s0.8-0.4,1.3-0.4c0.9,0,1.5,0.3,2,0.9s0.7,1.5,0.7,2.6v0.6
				c0,1.5-0.3,2.7-1,3.5s-1.7,1.2-3,1.2h-0.1l0-0.6h0.2c1,0,1.8-0.3,2.3-0.9S1033.7,265.9,1033.7,264.8z M1031.7,265.4
				c0.5,0,0.9-0.1,1.3-0.4s0.6-0.6,0.8-1.1v-0.4c0-0.9-0.2-1.5-0.5-2s-0.8-0.7-1.5-0.7c-0.6,0-1,0.2-1.4,0.7s-0.5,1-0.5,1.7
				c0,0.7,0.2,1.2,0.5,1.6S1031.1,265.4,1031.7,265.4z"/>
		</g>
		<g class="st0">
			<path class="st1" d="M1169.3,268.8h-5.3v-0.5l2.9-3.3c0.5-0.6,0.8-1,1-1.4s0.3-0.7,0.3-1.1c0-0.5-0.2-1-0.5-1.3s-0.8-0.5-1.3-0.5
				c-0.6,0-1,0.2-1.4,0.6s-0.5,0.8-0.5,1.4h-0.7c0-0.5,0.1-0.9,0.3-1.3s0.5-0.7,0.9-0.9s0.9-0.3,1.4-0.3c0.8,0,1.4,0.2,1.8,0.6
				s0.7,1,0.7,1.7c0,0.4-0.1,0.8-0.4,1.3s-0.7,1.1-1.3,1.8l-2.4,2.7h4.5V268.8z"/>
			<path class="st1" d="M1176.3,265.2c0,1.2-0.2,2.1-0.7,2.7s-1.1,0.9-2,0.9c-0.8,0-1.5-0.3-1.9-0.9s-0.7-1.5-0.7-2.7v-1.5
				c0-1.2,0.2-2.1,0.7-2.7s1.1-0.9,2-0.9c0.8,0,1.5,0.3,1.9,0.9s0.7,1.5,0.7,2.6V265.2z M1175.6,263.7c0-1-0.2-1.7-0.5-2.2
				s-0.8-0.8-1.4-0.8c-0.6,0-1.1,0.2-1.4,0.7s-0.5,1.2-0.5,2.2v1.7c0,1,0.2,1.7,0.5,2.2s0.8,0.8,1.4,0.8c0.6,0,1.1-0.3,1.4-0.8
				s0.5-1.2,0.5-2.2V263.7z"/>
			<path class="st1" d="M1178.5,268.3c0-0.1,0-0.3,0.1-0.3s0.2-0.1,0.4-0.1s0.3,0,0.4,0.1s0.1,0.2,0.1,0.3s0,0.2-0.1,0.3
				s-0.2,0.1-0.4,0.1s-0.3,0-0.4-0.1S1178.5,268.5,1178.5,268.3z"/>
			<path class="st1" d="M1187,265.2c0,1.2-0.2,2.1-0.7,2.7s-1.1,0.9-2,0.9c-0.8,0-1.5-0.3-1.9-0.9s-0.7-1.5-0.7-2.7v-1.5
				c0-1.2,0.2-2.1,0.7-2.7s1.1-0.9,2-0.9c0.8,0,1.5,0.3,1.9,0.9s0.7,1.5,0.7,2.6V265.2z M1186.3,263.7c0-1-0.2-1.7-0.5-2.2
				s-0.8-0.8-1.4-0.8c-0.6,0-1.1,0.2-1.4,0.7s-0.5,1.2-0.5,2.2v1.7c0,1,0.2,1.7,0.5,2.2s0.8,0.8,1.4,0.8c0.6,0,1.1-0.3,1.4-0.8
				s0.5-1.2,0.5-2.2V263.7z"/>
			<path class="st1" d="M1192.4,268.8h-0.7v-7.7l-2.3,0.9v-0.7l2.9-1.1h0.1V268.8z"/>
			<path class="st1" d="M1196.4,268.3c0-0.1,0-0.3,0.1-0.3s0.2-0.1,0.4-0.1s0.3,0,0.4,0.1s0.1,0.2,0.1,0.3s0,0.2-0.1,0.3
				s-0.2,0.1-0.4,0.1s-0.3,0-0.4-0.1S1196.4,268.5,1196.4,268.3z"/>
			<path class="st1" d="M1203.1,268.8h-0.7v-7.7l-2.3,0.9v-0.7l2.9-1.1h0.1V268.8z"/>
			<path class="st1" d="M1211.5,264.8c-0.3,0.4-0.6,0.7-0.9,0.9s-0.8,0.3-1.2,0.3c-0.5,0-0.9-0.1-1.3-0.4s-0.7-0.6-0.9-1
				s-0.3-0.9-0.3-1.4c0-0.6,0.1-1.1,0.3-1.5s0.5-0.8,0.9-1.1s0.8-0.4,1.3-0.4c0.9,0,1.5,0.3,2,0.9s0.7,1.5,0.7,2.6v0.6
				c0,1.5-0.3,2.7-1,3.5s-1.7,1.2-3,1.2h-0.1l0-0.6h0.2c1,0,1.8-0.3,2.3-0.9S1211.5,265.9,1211.5,264.8z M1209.4,265.4
				c0.5,0,0.9-0.1,1.3-0.4s0.6-0.6,0.8-1.1v-0.4c0-0.9-0.2-1.5-0.5-2s-0.8-0.7-1.5-0.7c-0.6,0-1,0.2-1.4,0.7s-0.5,1-0.5,1.7
				c0,0.7,0.2,1.2,0.5,1.6S1208.9,265.4,1209.4,265.4z"/>
		</g>
		<g class="st0">
			<path class="st1" d="M3.1,214.8H0.3v-0.6h2.8V214.8z"/>
			<path class="st1" d="M10.2,218.3H4.8v-0.5l2.9-3.3c0.5-0.6,0.8-1,1-1.4S9,212.3,9,212c0-0.5-0.2-1-0.5-1.3s-0.8-0.5-1.3-0.5
				c-0.6,0-1,0.2-1.4,0.6s-0.5,0.8-0.5,1.4H4.6c0-0.5,0.1-0.9,0.3-1.3s0.5-0.7,0.9-0.9s0.9-0.3,1.4-0.3c0.8,0,1.4,0.2,1.8,0.6
				s0.7,1,0.7,1.7c0,0.4-0.1,0.8-0.4,1.3s-0.7,1.1-1.3,1.8l-2.4,2.7h4.5V218.3z"/>
			<path class="st1" d="M12.1,219.9l-0.4-0.3c0.4-0.5,0.5-1,0.6-1.5v-0.9h0.7v0.7C12.9,218.7,12.6,219.4,12.1,219.9z"/>
			<path class="st1" d="M20.1,214.7c0,1.2-0.2,2.1-0.7,2.7s-1.1,0.9-2,0.9c-0.8,0-1.5-0.3-1.9-0.9s-0.7-1.5-0.7-2.7v-1.5
				c0-1.2,0.2-2.1,0.7-2.7s1.1-0.9,2-0.9c0.8,0,1.5,0.3,1.9,0.9s0.7,1.5,0.7,2.6V214.7z M19.4,213.2c0-1-0.2-1.7-0.5-2.2
				s-0.8-0.8-1.4-0.8c-0.6,0-1.1,0.2-1.4,0.7s-0.5,1.2-0.5,2.2v1.7c0,1,0.2,1.7,0.5,2.2s0.8,0.8,1.4,0.8c0.6,0,1.1-0.3,1.4-0.8
				s0.5-1.2,0.5-2.2V213.2z"/>
			<path class="st1" d="M22.1,211.4c0-0.5,0.2-0.9,0.5-1.3s0.7-0.5,1.2-0.5s0.9,0.2,1.2,0.5s0.5,0.8,0.5,1.3v0.4
				c0,0.5-0.2,0.9-0.5,1.3s-0.7,0.5-1.2,0.5c-0.5,0-0.9-0.2-1.2-0.5s-0.5-0.8-0.5-1.3V211.4z M22.6,211.8c0,0.4,0.1,0.7,0.3,0.9
				c0.2,0.2,0.5,0.4,0.8,0.4c0.3,0,0.6-0.1,0.8-0.4c0.2-0.2,0.3-0.5,0.3-0.9v-0.4c0-0.4-0.1-0.7-0.3-0.9c-0.2-0.2-0.5-0.4-0.8-0.4
				c-0.3,0-0.6,0.1-0.8,0.4c-0.2,0.2-0.3,0.5-0.3,0.9V211.8z M24,217.6l-0.4-0.3l4.2-6.7l0.4,0.3L24,217.6z M26.4,216.2
				c0-0.5,0.2-0.9,0.5-1.3s0.7-0.5,1.2-0.5s0.9,0.2,1.2,0.5s0.5,0.8,0.5,1.3v0.4c0,0.5-0.2,0.9-0.5,1.3s-0.7,0.5-1.2,0.5
				s-0.9-0.2-1.2-0.5s-0.5-0.8-0.5-1.3V216.2z M26.9,216.6c0,0.4,0.1,0.7,0.3,0.9c0.2,0.2,0.5,0.4,0.8,0.4c0.3,0,0.6-0.1,0.8-0.4
				c0.2-0.2,0.3-0.5,0.3-0.9v-0.4c0-0.4-0.1-0.7-0.3-0.9c-0.2-0.2-0.5-0.3-0.8-0.3c-0.3,0-0.6,0.1-0.8,0.3c-0.2,0.2-0.3,0.5-0.3,0.9
				V216.6z"/>
		</g>
		<g class="st0">
			<path class="st1" d="M20.1,156.7c0,1.2-0.2,2.1-0.7,2.7s-1.1,0.9-2,0.9c-0.8,0-1.5-0.3-1.9-0.9s-0.7-1.5-0.7-2.7v-1.5
				c0-1.2,0.2-2.1,0.7-2.7s1.1-0.9,2-0.9c0.8,0,1.5,0.3,1.9,0.9s0.7,1.5,0.7,2.6V156.7z M19.4,155.2c0-1-0.2-1.7-0.5-2.2
				s-0.8-0.8-1.4-0.8c-0.6,0-1.1,0.2-1.4,0.7s-0.5,1.2-0.5,2.2v1.7c0,1,0.2,1.7,0.5,2.2s0.8,0.8,1.4,0.8c0.6,0,1.1-0.3,1.4-0.8
				s0.5-1.2,0.5-2.2V155.2z"/>
			<path class="st1" d="M22.1,153.4c0-0.5,0.2-0.9,0.5-1.3s0.7-0.5,1.2-0.5s0.9,0.2,1.2,0.5s0.5,0.8,0.5,1.3v0.4
				c0,0.5-0.2,0.9-0.5,1.3s-0.7,0.5-1.2,0.5c-0.5,0-0.9-0.2-1.2-0.5s-0.5-0.8-0.5-1.3V153.4z M22.6,153.8c0,0.4,0.1,0.7,0.3,0.9
				c0.2,0.2,0.5,0.4,0.8,0.4c0.3,0,0.6-0.1,0.8-0.4c0.2-0.2,0.3-0.5,0.3-0.9v-0.4c0-0.4-0.1-0.7-0.3-0.9c-0.2-0.2-0.5-0.4-0.8-0.4
				c-0.3,0-0.6,0.1-0.8,0.4c-0.2,0.2-0.3,0.5-0.3,0.9V153.8z M24,159.6l-0.4-0.3l4.2-6.7l0.4,0.3L24,159.6z M26.4,158.2
				c0-0.5,0.2-0.9,0.5-1.3s0.7-0.5,1.2-0.5s0.9,0.2,1.2,0.5c0.3,0.3,0.5,0.8,0.5,1.3v0.4c0,0.5-0.2,0.9-0.5,1.3
				c-0.3,0.3-0.7,0.5-1.2,0.5s-0.9-0.2-1.2-0.5s-0.5-0.8-0.5-1.3V158.2z M26.9,158.6c0,0.4,0.1,0.7,0.3,0.9c0.2,0.2,0.5,0.4,0.8,0.4
				c0.3,0,0.6-0.1,0.8-0.4c0.2-0.2,0.3-0.5,0.3-0.9v-0.4c0-0.4-0.1-0.7-0.3-0.9c-0.2-0.2-0.5-0.3-0.8-0.3c-0.3,0-0.6,0.1-0.8,0.3
				c-0.2,0.2-0.3,0.5-0.3,0.9V158.6z"/>
		</g>
		<g class="st0">
			<path class="st1" d="M10.2,103.8H4.8v-0.5l2.9-3.3c0.5-0.6,0.8-1,1-1.4S9,97.8,9,97.5c0-0.5-0.2-1-0.5-1.3s-0.8-0.5-1.3-0.5
				c-0.6,0-1,0.2-1.4,0.6s-0.5,0.8-0.5,1.4H4.6c0-0.5,0.1-0.9,0.3-1.3s0.5-0.7,0.9-0.9s0.9-0.3,1.4-0.3c0.8,0,1.4,0.2,1.8,0.6
				s0.7,1,0.7,1.7c0,0.4-0.1,0.8-0.4,1.3s-0.7,1.1-1.3,1.8l-2.4,2.7h4.5V103.8z"/>
			<path class="st1" d="M12,105.4l-0.4-0.3c0.4-0.5,0.5-1,0.6-1.5v-0.9h0.7v0.7C12.9,104.2,12.6,104.9,12,105.4z"/>
			<path class="st1" d="M20.1,100.2c0,1.2-0.2,2.1-0.7,2.7s-1.1,0.9-2,0.9c-0.8,0-1.5-0.3-1.9-0.9s-0.7-1.5-0.7-2.7v-1.5
				c0-1.2,0.2-2.1,0.7-2.7s1.1-0.9,2-0.9c0.8,0,1.5,0.3,1.9,0.9s0.7,1.5,0.7,2.6V100.2z M19.4,98.7c0-1-0.2-1.7-0.5-2.2
				s-0.8-0.8-1.4-0.8c-0.6,0-1.1,0.2-1.4,0.7s-0.5,1.2-0.5,2.2v1.7c0,1,0.2,1.7,0.5,2.2s0.8,0.8,1.4,0.8c0.6,0,1.1-0.3,1.4-0.8
				s0.5-1.2,0.5-2.2V98.7z"/>
			<path class="st1" d="M22.1,96.9c0-0.5,0.2-0.9,0.5-1.3s0.7-0.5,1.2-0.5s0.9,0.2,1.2,0.5s0.5,0.8,0.5,1.3v0.4
				c0,0.5-0.2,0.9-0.5,1.3s-0.7,0.5-1.2,0.5c-0.5,0-0.9-0.2-1.2-0.5s-0.5-0.8-0.5-1.3V96.9z M22.6,97.3c0,0.4,0.1,0.7,0.3,0.9
				c0.2,0.2,0.5,0.4,0.8,0.4c0.3,0,0.6-0.1,0.8-0.4c0.2-0.2,0.3-0.5,0.3-0.9v-0.4c0-0.4-0.1-0.7-0.3-0.9c-0.2-0.2-0.5-0.4-0.8-0.4
				c-0.3,0-0.6,0.1-0.8,0.4c-0.2,0.2-0.3,0.5-0.3,0.9V97.3z M24,103.1l-0.4-0.3l4.2-6.7l0.4,0.3L24,103.1z M26.4,101.7
				c0-0.5,0.2-0.9,0.5-1.3s0.7-0.5,1.2-0.5s0.9,0.2,1.2,0.5s0.5,0.8,0.5,1.3v0.4c0,0.5-0.2,0.9-0.5,1.3s-0.7,0.5-1.2,0.5
				s-0.9-0.2-1.2-0.5s-0.5-0.8-0.5-1.3V101.7z M26.9,102.1c0,0.4,0.1,0.7,0.3,0.9c0.2,0.2,0.5,0.4,0.8,0.4c0.3,0,0.6-0.1,0.8-0.4
				c0.2-0.2,0.3-0.5,0.3-0.9v-0.4c0-0.4-0.1-0.7-0.3-0.9c-0.2-0.2-0.5-0.3-0.8-0.3c-0.3,0-0.6,0.1-0.8,0.3c-0.2,0.2-0.3,0.5-0.3,0.9
				V102.1z"/>
		</g>
		<g class="st0">
			<path class="st1" d="M9.1,37.5h1.3v0.6H9.1v2.2H8.4v-2.2h-4v-0.4l3.9-6h0.8V37.5z M5.3,37.5h3.2v-4.9l-0.3,0.5L5.3,37.5z"/>
			<path class="st1" d="M12,41.9l-0.4-0.3c0.4-0.5,0.5-1,0.6-1.5v-0.9h0.7v0.7C12.9,40.7,12.6,41.4,12,41.9z"/>
			<path class="st1" d="M20.1,36.7c0,1.2-0.2,2.1-0.7,2.7s-1.1,0.9-2,0.9c-0.8,0-1.5-0.3-1.9-0.9s-0.7-1.5-0.7-2.7v-1.5
				c0-1.2,0.2-2.1,0.7-2.7c0.4-0.6,1.1-0.9,2-0.9c0.8,0,1.5,0.3,1.9,0.9c0.4,0.6,0.7,1.5,0.7,2.6V36.7z M19.4,35.2
				c0-1-0.2-1.7-0.5-2.2s-0.8-0.8-1.4-0.8c-0.6,0-1.1,0.2-1.4,0.7s-0.5,1.2-0.5,2.2v1.7c0,1,0.2,1.7,0.5,2.2s0.8,0.8,1.4,0.8
				c0.6,0,1.1-0.3,1.4-0.8s0.5-1.2,0.5-2.2V35.2z"/>
			<path class="st1" d="M22.1,33.4c0-0.5,0.2-0.9,0.5-1.3c0.3-0.3,0.7-0.5,1.2-0.5s0.9,0.2,1.2,0.5c0.3,0.3,0.5,0.8,0.5,1.3v0.4
				c0,0.5-0.2,0.9-0.5,1.3s-0.7,0.5-1.2,0.5c-0.5,0-0.9-0.2-1.2-0.5s-0.5-0.8-0.5-1.3V33.4z M22.6,33.8c0,0.4,0.1,0.7,0.3,0.9
				c0.2,0.2,0.5,0.4,0.8,0.4c0.3,0,0.6-0.1,0.8-0.4c0.2-0.2,0.3-0.5,0.3-0.9v-0.4c0-0.4-0.1-0.7-0.3-0.9c-0.2-0.2-0.5-0.4-0.8-0.4
				c-0.3,0-0.6,0.1-0.8,0.4c-0.2,0.2-0.3,0.5-0.3,0.9V33.8z M24,39.6l-0.4-0.3l4.2-6.7l0.4,0.3L24,39.6z M26.4,38.2
				c0-0.5,0.2-0.9,0.5-1.3s0.7-0.5,1.2-0.5s0.9,0.2,1.2,0.5s0.5,0.8,0.5,1.3v0.4c0,0.5-0.2,0.9-0.5,1.3s-0.7,0.5-1.2,0.5
				s-0.9-0.2-1.2-0.5s-0.5-0.8-0.5-1.3V38.2z M26.9,38.6c0,0.4,0.1,0.7,0.3,0.9c0.2,0.2,0.5,0.4,0.8,0.4c0.3,0,0.6-0.1,0.8-0.4
				c0.2-0.2,0.3-0.5,0.3-0.9v-0.4c0-0.4-0.1-0.7-0.3-0.9c-0.2-0.2-0.5-0.3-0.8-0.3c-0.3,0-0.6,0.1-0.8,0.3c-0.2,0.2-0.3,0.5-0.3,0.9
				V38.6z"/>
		</g>
		<g class="st0">
			<path class="st1" d="M5.3,5.9l0.4-4.2H10v0.7H6.3L6,5.3C6.5,5,7,4.8,7.6,4.8c0.8,0,1.4,0.3,1.8,0.8s0.7,1.2,0.7,2
				c0,0.9-0.2,1.6-0.7,2.1s-1.1,0.7-1.9,0.7c-0.7,0-1.3-0.2-1.8-0.6S5.1,8.8,5,8h0.7C5.8,8.6,6,9,6.3,9.3s0.8,0.4,1.3,0.4
				c0.6,0,1.1-0.2,1.4-0.6s0.5-0.9,0.5-1.7c0-0.6-0.2-1.1-0.5-1.5S8.1,5.4,7.5,5.4c-0.3,0-0.6,0-0.9,0.1S6.1,5.8,5.9,6.1L5.3,5.9z"
				/>
			<path class="st1" d="M12,11.9l-0.4-0.3c0.4-0.5,0.5-1,0.6-1.5V9.2h0.7v0.7C12.9,10.7,12.6,11.4,12,11.9z"/>
			<path class="st1" d="M18.2,10.3h-0.7V2.6l-2.3,0.9V2.8l2.9-1.1h0.1V10.3z"/>
			<path class="st1" d="M22.1,3.4c0-0.5,0.2-0.9,0.5-1.3s0.7-0.5,1.2-0.5s0.9,0.2,1.2,0.5s0.5,0.8,0.5,1.3v0.4
				c0,0.5-0.2,0.9-0.5,1.3s-0.7,0.5-1.2,0.5c-0.5,0-0.9-0.2-1.2-0.5s-0.5-0.8-0.5-1.3V3.4z M22.6,3.8c0,0.4,0.1,0.7,0.3,0.9
				c0.2,0.2,0.5,0.4,0.8,0.4c0.3,0,0.6-0.1,0.8-0.4c0.2-0.2,0.3-0.5,0.3-0.9V3.4c0-0.4-0.1-0.7-0.3-0.9c-0.2-0.2-0.5-0.4-0.8-0.4
				c-0.3,0-0.6,0.1-0.8,0.4c-0.2,0.2-0.3,0.5-0.3,0.9V3.8z M24,9.6l-0.4-0.3l4.2-6.7l0.4,0.3L24,9.6z M26.4,8.2
				c0-0.5,0.2-0.9,0.5-1.3s0.7-0.5,1.2-0.5s0.9,0.2,1.2,0.5s0.5,0.8,0.5,1.3v0.4c0,0.5-0.2,0.9-0.5,1.3s-0.7,0.5-1.2,0.5
				s-0.9-0.2-1.2-0.5s-0.5-0.8-0.5-1.3V8.2z M26.9,8.6c0,0.4,0.1,0.7,0.3,0.9c0.2,0.2,0.5,0.4,0.8,0.4c0.3,0,0.6-0.1,0.8-0.4
				C29,9.3,29.1,9,29.1,8.6V8.2c0-0.4-0.1-0.7-0.3-0.9C28.6,7,28.4,6.9,28,6.9c-0.3,0-0.6,0.1-0.8,0.3c-0.2,0.2-0.3,0.5-0.3,0.9V8.6
				z"/>
		</g>
		<line class="st2" x1="53.6" y1="36.4" x2="1280.3" y2="36.4"/>
		<line class="st2" x1="53.6" y1="98" x2="1280.3" y2="98"/>
		<line class="st2" x1="53.6" y1="155.8" x2="1280.3" y2="155.8"/>
		<line class="st2" x1="53.6" y1="213.6" x2="1280.3" y2="213.6"/>
		<line class="st2" x1="121.7" y1="5.2" x2="121.7" y2="241.3"/>
		<line class="st2" x1="299.5" y1="5.2" x2="299.5" y2="241.3"/>
		<line class="st2" x1="477.3" y1="5.2" x2="477.3" y2="241.3"/>
		<line class="st2" x1="655" y1="5.2" x2="655" y2="241.3"/>
		<line class="st2" x1="832.8" y1="5.2" x2="832.8" y2="241.3"/>
		<line class="st2" x1="1010.6" y1="5.2" x2="1010.6" y2="241.3"/>
		<line class="st2" x1="1188.3" y1="5.2" x2="1188.3" y2="241.3"/>
		<polyline class="st3" points="53.6,155.8 72.3,5.2 86.4,170.4 134.2,170.4 148.2,179.7 166.4,168.8 178.4,146 193.4,155.8 
			226.7,155.8 240.2,151.4 255.8,179.7 270.9,179.7 287.5,155.8 302.6,179.7 332.2,179.7 347.8,197.6 379.5,155.8 393.6,143.3 
			439.8,141.1 455.9,120 477.3,125.4 501.7,140 514.7,134.6 546.4,133.5 578.1,155.8 592.7,175.3 608.2,174.8 622.3,188.4 
			655,188.9 669.1,181.3 684.7,189.4 701.3,174.2 716.4,194.3 763.7,193.2 776.7,203 791.2,241.3 820.3,193.2 852,181.8 
			870.2,181.3 882.7,186.2 914.3,184.6 945.1,161.8 990.8,162.3 1005.4,171 1021.5,155.8 1052.7,105.3 1084.9,102.6 1100.5,112.9 
			1115.1,86.3 1146.2,66.2 1159.2,52.1 1190.4,52.1 1204.5,36.4 1228.4,36.4 1237.2,31.5 1267.9,47.2 1280.3,47.2 		"/>
	</g>
</g>
</svg>
