<?xml version="1.0" encoding="utf-8"?>
<!-- Generator: Adobe Illustrator 23.0.1, SVG Export Plug-In . SVG Version: 6.00 Build 0)  -->
<svg version="1.1" id="Слой_1" xmlns="http://www.w3.org/2000/svg" xmlns:xlink="http://www.w3.org/1999/xlink" x="0px" y="0px"
	 viewBox="0 0 665.4 272" style="enable-background:new 0 0 665.4 272;" xml:space="preserve">
<style type="text/css">
	.st0{enable-background:new    ;}
	.st1{fill:#666666;}
	.st2{fill:none;stroke:#CCCECE;stroke-miterlimit:10;}
	.st3{fill:none;stroke:#00A19B;stroke-miterlimit:10;}
</style>
<title>Ресурс 17</title>
<g>
	<g id="Content">
		<g class="st0">
			<path class="st1" d="M3.1,237.8H0.3v-0.6h2.8V237.8z"/>
			<path class="st1" d="M10.2,241.3H4.8v-0.5l2.9-3.3c0.5-0.6,0.8-1,1-1.4S9,235.3,9,235c0-0.5-0.2-1-0.5-1.3s-0.8-0.5-1.3-0.5
				c-0.6,0-1,0.2-1.4,0.6s-0.5,0.8-0.5,1.4H4.6c0-0.5,0.1-0.9,0.3-1.3s0.5-0.7,0.9-0.9s0.9-0.3,1.4-0.3c0.8,0,1.4,0.2,1.8,0.6
				s0.7,1,0.7,1.7c0,0.4-0.1,0.8-0.4,1.3s-0.7,1.1-1.3,1.8l-2.4,2.7h4.5V241.3z"/>
			<path class="st1" d="M12.1,242.9l-0.4-0.3c0.4-0.5,0.5-1,0.6-1.5v-0.9h0.7v0.7C12.9,241.7,12.6,242.4,12.1,242.9z"/>
			<path class="st1" d="M19.4,237.3c-0.3,0.4-0.6,0.7-0.9,0.9s-0.8,0.3-1.2,0.3c-0.5,0-0.9-0.1-1.3-0.4s-0.7-0.6-0.9-1
				s-0.3-0.9-0.3-1.4c0-0.6,0.1-1.1,0.3-1.5s0.5-0.8,0.9-1.1s0.8-0.4,1.3-0.4c0.9,0,1.5,0.3,2,0.9s0.7,1.5,0.7,2.6v0.6
				c0,1.5-0.3,2.7-1,3.5s-1.7,1.2-3,1.2h-0.1l0-0.6h0.2c1,0,1.8-0.3,2.3-0.9S19.3,238.4,19.4,237.3z M17.3,237.9
				c0.5,0,0.9-0.1,1.3-0.4s0.6-0.6,0.8-1.1V236c0-0.9-0.2-1.5-0.5-2s-0.8-0.7-1.5-0.7c-0.6,0-1,0.2-1.4,0.7s-0.5,1-0.5,1.7
				c0,0.7,0.2,1.2,0.5,1.6S16.8,237.9,17.3,237.9z"/>
			<path class="st1" d="M22.1,234.4c0-0.5,0.2-0.9,0.5-1.3s0.7-0.5,1.2-0.5s0.9,0.2,1.2,0.5s0.5,0.8,0.5,1.3v0.4
				c0,0.5-0.2,0.9-0.5,1.3s-0.7,0.5-1.2,0.5c-0.5,0-0.9-0.2-1.2-0.5s-0.5-0.8-0.5-1.3V234.4z M22.6,234.8c0,0.4,0.1,0.7,0.3,0.9
				c0.2,0.2,0.5,0.4,0.8,0.4c0.3,0,0.6-0.1,0.8-0.4c0.2-0.2,0.3-0.5,0.3-0.9v-0.4c0-0.4-0.1-0.7-0.3-0.9c-0.2-0.2-0.5-0.4-0.8-0.4
				c-0.3,0-0.6,0.1-0.8,0.4c-0.2,0.2-0.3,0.5-0.3,0.9V234.8z M24,240.6l-0.4-0.3l4.2-6.7l0.4,0.3L24,240.6z M26.4,239.2
				c0-0.5,0.2-0.9,0.5-1.3s0.7-0.5,1.2-0.5s0.9,0.2,1.2,0.5s0.5,0.8,0.5,1.3v0.4c0,0.5-0.2,0.9-0.5,1.3s-0.7,0.5-1.2,0.5
				s-0.9-0.2-1.2-0.5s-0.5-0.8-0.5-1.3V239.2z M26.9,239.6c0,0.4,0.1,0.7,0.3,0.9c0.2,0.2,0.5,0.4,0.8,0.4c0.3,0,0.6-0.1,0.8-0.4
				c0.2-0.2,0.3-0.5,0.3-0.9v-0.4c0-0.4-0.1-0.7-0.3-0.9c-0.2-0.2-0.5-0.3-0.8-0.3c-0.3,0-0.6,0.1-0.8,0.3c-0.2,0.2-0.3,0.5-0.3,0.9
				V239.6z"/>
		</g>
		<g class="st0">
			<path class="st1" d="M66.4,268.8h-0.7v-7.7l-2.3,0.9v-0.7l2.9-1.1h0.1V268.8z"/>
			<path class="st1" d="M75.7,268.8h-5.3v-0.5l2.9-3.3c0.5-0.6,0.8-1,1-1.4s0.3-0.7,0.3-1.1c0-0.5-0.2-1-0.5-1.3s-0.8-0.5-1.3-0.5
				c-0.6,0-1,0.2-1.4,0.6s-0.5,0.8-0.5,1.4h-0.7c0-0.5,0.1-0.9,0.3-1.3s0.5-0.7,0.9-0.9s0.9-0.3,1.4-0.3c0.8,0,1.4,0.2,1.8,0.6
				s0.7,1,0.7,1.7c0,0.4-0.1,0.8-0.4,1.3s-0.7,1.1-1.3,1.8l-2.4,2.7h4.5V268.8z"/>
			<path class="st1" d="M77.7,268.3c0-0.1,0-0.3,0.1-0.3s0.2-0.1,0.4-0.1s0.3,0,0.4,0.1s0.1,0.2,0.1,0.3s0,0.2-0.1,0.3
				s-0.2,0.1-0.4,0.1s-0.3,0-0.4-0.1S77.7,268.5,77.7,268.3z"/>
			<path class="st1" d="M84.4,268.8h-0.7v-7.7l-2.3,0.9v-0.7l2.9-1.1h0.1V268.8z"/>
			<path class="st1" d="M91.6,268.8h-0.7v-7.7l-2.3,0.9v-0.7l2.9-1.1h0.1V268.8z"/>
			<path class="st1" d="M95.7,268.3c0-0.1,0-0.3,0.1-0.3s0.2-0.1,0.4-0.1s0.3,0,0.4,0.1s0.1,0.2,0.1,0.3s0,0.2-0.1,0.3
				s-0.2,0.1-0.4,0.1s-0.3,0-0.4-0.1S95.7,268.5,95.7,268.3z"/>
			<path class="st1" d="M102.3,268.8h-0.7v-7.7l-2.3,0.9v-0.7l2.9-1.1h0.1V268.8z"/>
			<path class="st1" d="M111.4,262.4c0,0.4-0.1,0.8-0.4,1.2s-0.6,0.6-1,0.8c0.5,0.2,0.9,0.4,1.2,0.8s0.4,0.8,0.4,1.3
				c0,0.7-0.2,1.3-0.7,1.7s-1.2,0.6-2,0.6c-0.8,0-1.5-0.2-2-0.6s-0.7-1-0.7-1.7c0-0.5,0.1-0.9,0.4-1.3s0.7-0.7,1.2-0.8
				c-0.4-0.2-0.8-0.4-1-0.8s-0.4-0.7-0.4-1.2c0-0.7,0.2-1.3,0.7-1.7s1.1-0.6,1.8-0.6s1.4,0.2,1.8,0.6S111.4,261.7,111.4,262.4z
				 M110.9,266.5c0-0.5-0.2-1-0.6-1.3s-0.9-0.5-1.5-0.5s-1.1,0.2-1.4,0.5s-0.6,0.8-0.6,1.3s0.2,1,0.5,1.3s0.9,0.5,1.5,0.5
				c0.6,0,1.1-0.2,1.5-0.5S110.9,267.1,110.9,266.5z M110.7,262.4c0-0.5-0.2-0.9-0.5-1.2s-0.8-0.5-1.3-0.5c-0.5,0-1,0.2-1.3,0.5
				s-0.5,0.7-0.5,1.2c0,0.5,0.2,0.9,0.5,1.2s0.8,0.5,1.3,0.5c0.5,0,1-0.2,1.3-0.5S110.7,262.9,110.7,262.4z"/>
		</g>
		<g class="st0">
			<path class="st1" d="M157.2,268.8h-5.3v-0.5l2.9-3.3c0.5-0.6,0.8-1,1-1.4s0.3-0.7,0.3-1.1c0-0.5-0.2-1-0.5-1.3s-0.8-0.5-1.3-0.5
				c-0.6,0-1,0.2-1.4,0.6s-0.5,0.8-0.5,1.4h-0.7c0-0.5,0.1-0.9,0.3-1.3s0.5-0.7,0.9-0.9s0.9-0.3,1.4-0.3c0.8,0,1.4,0.2,1.8,0.6
				s0.7,1,0.7,1.7c0,0.4-0.1,0.8-0.4,1.3s-0.7,1.1-1.3,1.8l-2.4,2.7h4.5V268.8z"/>
			<path class="st1" d="M160.6,264.1h0.7c0.4,0,0.8-0.1,1.1-0.2s0.5-0.3,0.7-0.6s0.2-0.5,0.2-0.9c0-0.5-0.2-1-0.5-1.3
				s-0.8-0.5-1.3-0.5c-0.5,0-1,0.2-1.3,0.5s-0.5,0.7-0.5,1.3H159c0-0.4,0.1-0.8,0.3-1.2s0.5-0.6,0.9-0.8s0.8-0.3,1.3-0.3
				c0.8,0,1.4,0.2,1.8,0.6s0.7,1,0.7,1.7c0,0.4-0.1,0.8-0.4,1.1s-0.6,0.6-1.1,0.8c0.5,0.1,0.9,0.4,1.2,0.8s0.4,0.8,0.4,1.3
				c0,0.7-0.2,1.3-0.7,1.8s-1.1,0.7-1.9,0.7c-0.5,0-1-0.1-1.4-0.3s-0.8-0.5-1-0.9s-0.3-0.8-0.3-1.3h0.7c0,0.5,0.2,1,0.6,1.3
				s0.9,0.5,1.5,0.5c0.6,0,1.1-0.2,1.4-0.5s0.5-0.8,0.5-1.4c0-0.6-0.2-1-0.5-1.3s-0.9-0.5-1.6-0.5h-0.7V264.1z"/>
			<path class="st1" d="M166.4,268.3c0-0.1,0-0.3,0.1-0.3s0.2-0.1,0.4-0.1s0.3,0,0.4,0.1s0.1,0.2,0.1,0.3s0,0.2-0.1,0.3
				s-0.2,0.1-0.4,0.1s-0.3,0-0.4-0.1S166.4,268.5,166.4,268.3z"/>
			<path class="st1" d="M173,268.8h-0.7v-7.7l-2.3,0.9v-0.7l2.9-1.1h0.1V268.8z"/>
			<path class="st1" d="M180.3,268.8h-0.7v-7.7l-2.3,0.9v-0.7l2.9-1.1h0.1V268.8z"/>
			<path class="st1" d="M184.3,268.3c0-0.1,0-0.3,0.1-0.3s0.2-0.1,0.4-0.1s0.3,0,0.4,0.1s0.1,0.2,0.1,0.3s0,0.2-0.1,0.3
				s-0.2,0.1-0.4,0.1s-0.3,0-0.4-0.1S184.3,268.5,184.3,268.3z"/>
			<path class="st1" d="M191,268.8h-0.7v-7.7l-2.3,0.9v-0.7l2.9-1.1h0.1V268.8z"/>
			<path class="st1" d="M200,262.4c0,0.4-0.1,0.8-0.4,1.2s-0.6,0.6-1,0.8c0.5,0.2,0.9,0.4,1.2,0.8s0.4,0.8,0.4,1.3
				c0,0.7-0.2,1.3-0.7,1.7s-1.2,0.6-2,0.6c-0.8,0-1.5-0.2-2-0.6s-0.7-1-0.7-1.7c0-0.5,0.1-0.9,0.4-1.3s0.7-0.7,1.2-0.8
				c-0.4-0.2-0.8-0.4-1-0.8s-0.4-0.7-0.4-1.2c0-0.7,0.2-1.3,0.7-1.7s1.1-0.6,1.8-0.6s1.4,0.2,1.8,0.6S200,261.7,200,262.4z
				 M199.5,266.5c0-0.5-0.2-1-0.6-1.3s-0.9-0.5-1.5-0.5s-1.1,0.2-1.4,0.5s-0.6,0.8-0.6,1.3s0.2,1,0.5,1.3s0.9,0.5,1.5,0.5
				c0.6,0,1.1-0.2,1.5-0.5S199.5,267.1,199.5,266.5z M199.3,262.4c0-0.5-0.2-0.9-0.5-1.2s-0.8-0.5-1.3-0.5c-0.5,0-1,0.2-1.3,0.5
				s-0.5,0.7-0.5,1.2c0,0.5,0.2,0.9,0.5,1.2s0.8,0.5,1.3,0.5c0.5,0,1-0.2,1.3-0.5S199.3,262.9,199.3,262.4z"/>
		</g>
		<g class="st0">
			<path class="st1" d="M245.6,265.2c0,1.2-0.2,2.1-0.7,2.7s-1.1,0.9-2,0.9c-0.8,0-1.5-0.3-1.9-0.9s-0.7-1.5-0.7-2.7v-1.5
				c0-1.2,0.2-2.1,0.7-2.7s1.1-0.9,2-0.9c0.8,0,1.5,0.3,1.9,0.9s0.7,1.5,0.7,2.6V265.2z M244.9,263.7c0-1-0.2-1.7-0.5-2.2
				s-0.8-0.8-1.4-0.8c-0.6,0-1.1,0.2-1.4,0.7s-0.5,1.2-0.5,2.2v1.7c0,1,0.2,1.7,0.5,2.2s0.8,0.8,1.4,0.8c0.6,0,1.1-0.3,1.4-0.8
				s0.5-1.2,0.5-2.2V263.7z"/>
			<path class="st1" d="M248.2,264.4l0.4-4.2h4.3v0.7h-3.7l-0.3,2.9c0.5-0.3,1-0.5,1.6-0.5c0.8,0,1.4,0.3,1.8,0.8s0.7,1.2,0.7,2
				c0,0.9-0.2,1.6-0.7,2.1s-1.1,0.7-1.9,0.7c-0.7,0-1.3-0.2-1.8-0.6s-0.7-1-0.8-1.7h0.7c0.1,0.6,0.3,1,0.6,1.3s0.8,0.4,1.3,0.4
				c0.6,0,1.1-0.2,1.4-0.6s0.5-0.9,0.5-1.7c0-0.6-0.2-1.1-0.5-1.5s-0.8-0.6-1.4-0.6c-0.3,0-0.6,0-0.9,0.1s-0.5,0.2-0.8,0.5
				L248.2,264.4z"/>
			<path class="st1" d="M255,268.3c0-0.1,0-0.3,0.1-0.3s0.2-0.1,0.4-0.1s0.3,0,0.4,0.1s0.1,0.2,0.1,0.3s0,0.2-0.1,0.3
				s-0.2,0.1-0.4,0.1s-0.3,0-0.4-0.1S255,268.5,255,268.3z"/>
			<path class="st1" d="M261.7,268.8H261v-7.7l-2.3,0.9v-0.7l2.9-1.1h0.1V268.8z"/>
			<path class="st1" d="M271,268.8h-5.3v-0.5l2.9-3.3c0.5-0.6,0.8-1,1-1.4s0.3-0.7,0.3-1.1c0-0.5-0.2-1-0.5-1.3s-0.8-0.5-1.3-0.5
				c-0.6,0-1,0.2-1.4,0.6s-0.5,0.8-0.5,1.4h-0.7c0-0.5,0.1-0.9,0.3-1.3s0.5-0.7,0.9-0.9s0.9-0.3,1.4-0.3c0.8,0,1.4,0.2,1.8,0.6
				s0.7,1,0.7,1.7c0,0.4-0.1,0.8-0.4,1.3s-0.7,1.1-1.3,1.8l-2.4,2.7h4.5V268.8z"/>
			<path class="st1" d="M273,268.3c0-0.1,0-0.3,0.1-0.3s0.2-0.1,0.4-0.1s0.3,0,0.4,0.1s0.1,0.2,0.1,0.3s0,0.2-0.1,0.3
				s-0.2,0.1-0.4,0.1s-0.3,0-0.4-0.1S273,268.5,273,268.3z"/>
			<path class="st1" d="M279.7,268.8H279v-7.7l-2.3,0.9v-0.7l2.9-1.1h0.1V268.8z"/>
			<path class="st1" d="M288.7,262.4c0,0.4-0.1,0.8-0.4,1.2s-0.6,0.6-1,0.8c0.5,0.2,0.9,0.4,1.2,0.8s0.4,0.8,0.4,1.3
				c0,0.7-0.2,1.3-0.7,1.7s-1.2,0.6-2,0.6c-0.8,0-1.5-0.2-2-0.6s-0.7-1-0.7-1.7c0-0.5,0.1-0.9,0.4-1.3s0.7-0.7,1.2-0.8
				c-0.4-0.2-0.8-0.4-1-0.8s-0.4-0.7-0.4-1.2c0-0.7,0.2-1.3,0.7-1.7s1.1-0.6,1.8-0.6s1.4,0.2,1.8,0.6S288.7,261.7,288.7,262.4z
				 M288.2,266.5c0-0.5-0.2-1-0.6-1.3s-0.9-0.5-1.5-0.5s-1.1,0.2-1.4,0.5s-0.6,0.8-0.6,1.3s0.2,1,0.5,1.3s0.9,0.5,1.5,0.5
				c0.6,0,1.1-0.2,1.5-0.5S288.2,267.1,288.2,266.5z M288,262.4c0-0.5-0.2-0.9-0.5-1.2s-0.8-0.5-1.3-0.5c-0.5,0-1,0.2-1.3,0.5
				s-0.5,0.7-0.5,1.2c0,0.5,0.2,0.9,0.5,1.2s0.8,0.5,1.3,0.5c0.5,0,1-0.2,1.3-0.5S288,262.9,288,262.4z"/>
		</g>
		<g class="st0">
			<path class="st1" d="M332.4,268.8h-0.7v-7.7l-2.3,0.9v-0.7l2.9-1.1h0.1V268.8z"/>
			<path class="st1" d="M341.6,260.6l-3.6,8.1h-0.7l3.6-7.9H336v-0.6h5.6V260.6z"/>
			<path class="st1" d="M343.7,268.3c0-0.1,0-0.3,0.1-0.3s0.2-0.1,0.4-0.1s0.3,0,0.4,0.1s0.1,0.2,0.1,0.3s0,0.2-0.1,0.3
				s-0.2,0.1-0.4,0.1s-0.3,0-0.4-0.1S343.7,268.5,343.7,268.3z"/>
			<path class="st1" d="M350.3,268.8h-0.7v-7.7l-2.3,0.9v-0.7l2.9-1.1h0.1V268.8z"/>
			<path class="st1" d="M359.7,268.8h-5.3v-0.5l2.9-3.3c0.5-0.6,0.8-1,1-1.4s0.3-0.7,0.3-1.1c0-0.5-0.2-1-0.5-1.3s-0.8-0.5-1.3-0.5
				c-0.6,0-1,0.2-1.4,0.6s-0.5,0.8-0.5,1.4h-0.7c0-0.5,0.1-0.9,0.3-1.3s0.5-0.7,0.9-0.9s0.9-0.3,1.4-0.3c0.8,0,1.4,0.2,1.8,0.6
				s0.7,1,0.7,1.7c0,0.4-0.1,0.8-0.4,1.3s-0.7,1.1-1.3,1.8l-2.4,2.7h4.5V268.8z"/>
			<path class="st1" d="M361.6,268.3c0-0.1,0-0.3,0.1-0.3s0.2-0.1,0.4-0.1s0.3,0,0.4,0.1s0.1,0.2,0.1,0.3s0,0.2-0.1,0.3
				s-0.2,0.1-0.4,0.1s-0.3,0-0.4-0.1S361.6,268.5,361.6,268.3z"/>
			<path class="st1" d="M368.3,268.8h-0.7v-7.7l-2.3,0.9v-0.7l2.9-1.1h0.1V268.8z"/>
			<path class="st1" d="M377.3,262.4c0,0.4-0.1,0.8-0.4,1.2s-0.6,0.6-1,0.8c0.5,0.2,0.9,0.4,1.2,0.8s0.4,0.8,0.4,1.3
				c0,0.7-0.2,1.3-0.7,1.7s-1.2,0.6-2,0.6c-0.8,0-1.5-0.2-2-0.6s-0.7-1-0.7-1.7c0-0.5,0.1-0.9,0.4-1.3s0.7-0.7,1.2-0.8
				c-0.4-0.2-0.8-0.4-1-0.8s-0.4-0.7-0.4-1.2c0-0.7,0.2-1.3,0.7-1.7s1.1-0.6,1.8-0.6s1.4,0.2,1.8,0.6S377.3,261.7,377.3,262.4z
				 M376.8,266.5c0-0.5-0.2-1-0.6-1.3s-0.9-0.5-1.5-0.5s-1.1,0.2-1.4,0.5s-0.6,0.8-0.6,1.3s0.2,1,0.5,1.3s0.9,0.5,1.5,0.5
				c0.6,0,1.1-0.2,1.5-0.5S376.8,267.1,376.8,266.5z M376.6,262.4c0-0.5-0.2-0.9-0.5-1.2s-0.8-0.5-1.3-0.5c-0.5,0-1,0.2-1.3,0.5
				s-0.5,0.7-0.5,1.2c0,0.5,0.2,0.9,0.5,1.2s0.8,0.5,1.3,0.5c0.5,0,1-0.2,1.3-0.5S376.6,262.9,376.6,262.4z"/>
		</g>
		<g class="st0">
			<path class="st1" d="M423.1,268.8h-5.3v-0.5l2.9-3.3c0.5-0.6,0.8-1,1-1.4s0.3-0.7,0.3-1.1c0-0.5-0.2-1-0.5-1.3s-0.8-0.5-1.3-0.5
				c-0.6,0-1,0.2-1.4,0.6s-0.5,0.8-0.5,1.4h-0.7c0-0.5,0.1-0.9,0.3-1.3s0.5-0.7,0.9-0.9s0.9-0.3,1.4-0.3c0.8,0,1.4,0.2,1.8,0.6
				s0.7,1,0.7,1.7c0,0.4-0.1,0.8-0.4,1.3s-0.7,1.1-1.3,1.8l-2.4,2.7h4.5V268.8z"/>
			<path class="st1" d="M430,262.4c0,0.4-0.1,0.8-0.4,1.2s-0.6,0.6-1,0.8c0.5,0.2,0.9,0.4,1.2,0.8s0.4,0.8,0.4,1.3
				c0,0.7-0.2,1.3-0.7,1.7s-1.2,0.6-2,0.6c-0.8,0-1.5-0.2-2-0.6s-0.7-1-0.7-1.7c0-0.5,0.1-0.9,0.4-1.3s0.7-0.7,1.2-0.8
				c-0.4-0.2-0.8-0.4-1-0.8s-0.4-0.7-0.4-1.2c0-0.7,0.2-1.3,0.7-1.7s1.1-0.6,1.8-0.6s1.4,0.2,1.8,0.6S430,261.7,430,262.4z
				 M429.6,266.5c0-0.5-0.2-1-0.6-1.3s-0.9-0.5-1.5-0.5s-1.1,0.2-1.4,0.5s-0.6,0.8-0.6,1.3s0.2,1,0.5,1.3s0.9,0.5,1.5,0.5
				c0.6,0,1.1-0.2,1.5-0.5S429.6,267.1,429.6,266.5z M429.3,262.4c0-0.5-0.2-0.9-0.5-1.2s-0.8-0.5-1.3-0.5c-0.5,0-1,0.2-1.3,0.5
				s-0.5,0.7-0.5,1.2c0,0.5,0.2,0.9,0.5,1.2s0.8,0.5,1.3,0.5c0.5,0,1-0.2,1.3-0.5S429.3,262.9,429.3,262.4z"/>
			<path class="st1" d="M432.3,268.3c0-0.1,0-0.3,0.1-0.3s0.2-0.1,0.4-0.1s0.3,0,0.4,0.1s0.1,0.2,0.1,0.3s0,0.2-0.1,0.3
				s-0.2,0.1-0.4,0.1s-0.3,0-0.4-0.1S432.3,268.5,432.3,268.3z"/>
			<path class="st1" d="M439,268.8h-0.7v-7.7l-2.3,0.9v-0.7l2.9-1.1h0.1V268.8z"/>
			<path class="st1" d="M448.3,268.8H443v-0.5l2.9-3.3c0.5-0.6,0.8-1,1-1.4s0.3-0.7,0.3-1.1c0-0.5-0.2-1-0.5-1.3s-0.8-0.5-1.3-0.5
				c-0.6,0-1,0.2-1.4,0.6s-0.5,0.8-0.5,1.4h-0.7c0-0.5,0.1-0.9,0.3-1.3s0.5-0.7,0.9-0.9s0.9-0.3,1.4-0.3c0.8,0,1.4,0.2,1.8,0.6
				s0.7,1,0.7,1.7c0,0.4-0.1,0.8-0.4,1.3s-0.7,1.1-1.3,1.8l-2.4,2.7h4.5V268.8z"/>
			<path class="st1" d="M450.3,268.3c0-0.1,0-0.3,0.1-0.3s0.2-0.1,0.4-0.1s0.3,0,0.4,0.1s0.1,0.2,0.1,0.3s0,0.2-0.1,0.3
				s-0.2,0.1-0.4,0.1s-0.3,0-0.4-0.1S450.3,268.5,450.3,268.3z"/>
			<path class="st1" d="M457,268.8h-0.7v-7.7l-2.3,0.9v-0.7l2.9-1.1h0.1V268.8z"/>
			<path class="st1" d="M466,262.4c0,0.4-0.1,0.8-0.4,1.2s-0.6,0.6-1,0.8c0.5,0.2,0.9,0.4,1.2,0.8s0.4,0.8,0.4,1.3
				c0,0.7-0.2,1.3-0.7,1.7s-1.2,0.6-2,0.6c-0.8,0-1.5-0.2-2-0.6s-0.7-1-0.7-1.7c0-0.5,0.1-0.9,0.4-1.3s0.7-0.7,1.2-0.8
				c-0.4-0.2-0.8-0.4-1-0.8s-0.4-0.7-0.4-1.2c0-0.7,0.2-1.3,0.7-1.7s1.1-0.6,1.8-0.6s1.4,0.2,1.8,0.6S466,261.7,466,262.4z
				 M465.5,266.5c0-0.5-0.2-1-0.6-1.3s-0.9-0.5-1.5-0.5s-1.1,0.2-1.4,0.5s-0.6,0.8-0.6,1.3s0.2,1,0.5,1.3s0.9,0.5,1.5,0.5
				c0.6,0,1.1-0.2,1.5-0.5S465.5,267.1,465.5,266.5z M465.3,262.4c0-0.5-0.2-0.9-0.5-1.2s-0.8-0.5-1.3-0.5c-0.5,0-1,0.2-1.3,0.5
				s-0.5,0.7-0.5,1.2c0,0.5,0.2,0.9,0.5,1.2s0.8,0.5,1.3,0.5c0.5,0,1-0.2,1.3-0.5S465.3,262.9,465.3,262.4z"/>
		</g>
		<g class="st0">
			<path class="st1" d="M511.6,265.2c0,1.2-0.2,2.1-0.7,2.7s-1.1,0.9-2,0.9c-0.8,0-1.5-0.3-1.9-0.9s-0.7-1.5-0.7-2.7v-1.5
				c0-1.2,0.2-2.1,0.7-2.7s1.1-0.9,2-0.9c0.8,0,1.5,0.3,1.9,0.9s0.7,1.5,0.7,2.6V265.2z M510.9,263.7c0-1-0.2-1.7-0.5-2.2
				s-0.8-0.8-1.4-0.8c-0.6,0-1.1,0.2-1.4,0.7s-0.5,1.2-0.5,2.2v1.7c0,1,0.2,1.7,0.5,2.2s0.8,0.8,1.4,0.8c0.6,0,1.1-0.3,1.4-0.8
				s0.5-1.2,0.5-2.2V263.7z"/>
			<path class="st1" d="M518,264.8c-0.3,0.4-0.6,0.7-0.9,0.9s-0.8,0.3-1.2,0.3c-0.5,0-0.9-0.1-1.3-0.4s-0.7-0.6-0.9-1
				s-0.3-0.9-0.3-1.4c0-0.6,0.1-1.1,0.3-1.5s0.5-0.8,0.9-1.1s0.8-0.4,1.3-0.4c0.9,0,1.5,0.3,2,0.9s0.7,1.5,0.7,2.6v0.6
				c0,1.5-0.3,2.7-1,3.5s-1.7,1.2-3,1.2h-0.1l0-0.6h0.2c1,0,1.8-0.3,2.3-0.9S518,265.9,518,264.8z M516,265.4c0.5,0,0.9-0.1,1.3-0.4
				s0.6-0.6,0.8-1.1v-0.4c0-0.9-0.2-1.5-0.5-2s-0.8-0.7-1.5-0.7c-0.6,0-1,0.2-1.4,0.7s-0.5,1-0.5,1.7c0,0.7,0.2,1.2,0.5,1.6
				S515.4,265.4,516,265.4z"/>
			<path class="st1" d="M521,268.3c0-0.1,0-0.3,0.1-0.3s0.2-0.1,0.4-0.1s0.3,0,0.4,0.1s0.1,0.2,0.1,0.3s0,0.2-0.1,0.3
				s-0.2,0.1-0.4,0.1s-0.3,0-0.4-0.1S521,268.5,521,268.3z"/>
			<path class="st1" d="M529.5,265.2c0,1.2-0.2,2.1-0.7,2.7s-1.1,0.9-2,0.9c-0.8,0-1.5-0.3-1.9-0.9s-0.7-1.5-0.7-2.7v-1.5
				c0-1.2,0.2-2.1,0.7-2.7s1.1-0.9,2-0.9c0.8,0,1.5,0.3,1.9,0.9s0.7,1.5,0.7,2.6V265.2z M528.8,263.7c0-1-0.2-1.7-0.5-2.2
				s-0.8-0.8-1.4-0.8c-0.6,0-1.1,0.2-1.4,0.7s-0.5,1.2-0.5,2.2v1.7c0,1,0.2,1.7,0.5,2.2s0.8,0.8,1.4,0.8c0.6,0,1.1-0.3,1.4-0.8
				s0.5-1.2,0.5-2.2V263.7z"/>
			<path class="st1" d="M534.9,268.8h-0.7v-7.7l-2.3,0.9v-0.7l2.9-1.1h0.1V268.8z"/>
			<path class="st1" d="M538.9,268.3c0-0.1,0-0.3,0.1-0.3s0.2-0.1,0.4-0.1s0.3,0,0.4,0.1s0.1,0.2,0.1,0.3s0,0.2-0.1,0.3
				s-0.2,0.1-0.4,0.1s-0.3,0-0.4-0.1S538.9,268.5,538.9,268.3z"/>
			<path class="st1" d="M545.6,268.8h-0.7v-7.7l-2.3,0.9v-0.7l2.9-1.1h0.1V268.8z"/>
			<path class="st1" d="M554,264.8c-0.3,0.4-0.6,0.7-0.9,0.9s-0.8,0.3-1.2,0.3c-0.5,0-0.9-0.1-1.3-0.4s-0.7-0.6-0.9-1
				s-0.3-0.9-0.3-1.4c0-0.6,0.1-1.1,0.3-1.5s0.5-0.8,0.9-1.1s0.8-0.4,1.3-0.4c0.9,0,1.5,0.3,2,0.9s0.7,1.5,0.7,2.6v0.6
				c0,1.5-0.3,2.7-1,3.5s-1.7,1.2-3,1.2h-0.1l0-0.6h0.2c1,0,1.8-0.3,2.3-0.9S553.9,265.9,554,264.8z M551.9,265.4
				c0.5,0,0.9-0.1,1.3-0.4s0.6-0.6,0.8-1.1v-0.4c0-0.9-0.2-1.5-0.5-2s-0.8-0.7-1.5-0.7c-0.6,0-1,0.2-1.4,0.7s-0.5,1-0.5,1.7
				c0,0.7,0.2,1.2,0.5,1.6S551.4,265.4,551.9,265.4z"/>
		</g>
		<g class="st0">
			<path class="st1" d="M600.4,268.8h-5.3v-0.5l2.9-3.3c0.5-0.6,0.8-1,1-1.4s0.3-0.7,0.3-1.1c0-0.5-0.2-1-0.5-1.3s-0.8-0.5-1.3-0.5
				c-0.6,0-1,0.2-1.4,0.6s-0.5,0.8-0.5,1.4h-0.7c0-0.5,0.1-0.9,0.3-1.3s0.5-0.7,0.9-0.9s0.9-0.3,1.4-0.3c0.8,0,1.4,0.2,1.8,0.6
				s0.7,1,0.7,1.7c0,0.4-0.1,0.8-0.4,1.3s-0.7,1.1-1.3,1.8l-2.4,2.7h4.5V268.8z"/>
			<path class="st1" d="M607.5,265.2c0,1.2-0.2,2.1-0.7,2.7s-1.1,0.9-2,0.9c-0.8,0-1.5-0.3-1.9-0.9s-0.7-1.5-0.7-2.7v-1.5
				c0-1.2,0.2-2.1,0.7-2.7s1.1-0.9,2-0.9c0.8,0,1.5,0.3,1.9,0.9s0.7,1.5,0.7,2.6V265.2z M606.8,263.7c0-1-0.2-1.7-0.5-2.2
				s-0.8-0.8-1.4-0.8c-0.6,0-1.1,0.2-1.4,0.7s-0.5,1.2-0.5,2.2v1.7c0,1,0.2,1.7,0.5,2.2s0.8,0.8,1.4,0.8c0.6,0,1.1-0.3,1.4-0.8
				s0.5-1.2,0.5-2.2V263.7z"/>
			<path class="st1" d="M609.6,268.3c0-0.1,0-0.3,0.1-0.3s0.2-0.1,0.4-0.1s0.3,0,0.4,0.1s0.1,0.2,0.1,0.3s0,0.2-0.1,0.3
				s-0.2,0.1-0.4,0.1s-0.3,0-0.4-0.1S609.6,268.5,609.6,268.3z"/>
			<path class="st1" d="M618.2,265.2c0,1.2-0.2,2.1-0.7,2.7s-1.1,0.9-2,0.9c-0.8,0-1.5-0.3-1.9-0.9s-0.7-1.5-0.7-2.7v-1.5
				c0-1.2,0.2-2.1,0.7-2.7s1.1-0.9,2-0.9c0.8,0,1.5,0.3,1.9,0.9s0.7,1.5,0.7,2.6V265.2z M617.5,263.7c0-1-0.2-1.7-0.5-2.2
				s-0.8-0.8-1.4-0.8c-0.6,0-1.1,0.2-1.4,0.7s-0.5,1.2-0.5,2.2v1.7c0,1,0.2,1.7,0.5,2.2s0.8,0.8,1.4,0.8c0.6,0,1.1-0.3,1.4-0.8
				s0.5-1.2,0.5-2.2V263.7z"/>
			<path class="st1" d="M623.5,268.8h-0.7v-7.7l-2.3,0.9v-0.7l2.9-1.1h0.1V268.8z"/>
			<path class="st1" d="M627.6,268.3c0-0.1,0-0.3,0.1-0.3s0.2-0.1,0.4-0.1s0.3,0,0.4,0.1s0.1,0.2,0.1,0.3s0,0.2-0.1,0.3
				s-0.2,0.1-0.4,0.1s-0.3,0-0.4-0.1S627.6,268.5,627.6,268.3z"/>
			<path class="st1" d="M634.3,268.8h-0.7v-7.7l-2.3,0.9v-0.7l2.9-1.1h0.1V268.8z"/>
			<path class="st1" d="M642.6,264.8c-0.3,0.4-0.6,0.7-0.9,0.9s-0.8,0.3-1.2,0.3c-0.5,0-0.9-0.1-1.3-0.4s-0.7-0.6-0.9-1
				s-0.3-0.9-0.3-1.4c0-0.6,0.1-1.1,0.3-1.5s0.5-0.8,0.9-1.1s0.8-0.4,1.3-0.4c0.9,0,1.5,0.3,2,0.9s0.7,1.5,0.7,2.6v0.6
				c0,1.5-0.3,2.7-1,3.5s-1.7,1.2-3,1.2h-0.1l0-0.6h0.2c1,0,1.8-0.3,2.3-0.9S642.6,265.9,642.6,264.8z M640.6,265.4
				c0.5,0,0.9-0.1,1.3-0.4s0.6-0.6,0.8-1.1v-0.4c0-0.9-0.2-1.5-0.5-2s-0.8-0.7-1.5-0.7c-0.6,0-1,0.2-1.4,0.7s-0.5,1-0.5,1.7
				c0,0.7,0.2,1.2,0.5,1.6S640,265.4,640.6,265.4z"/>
		</g>
		<g class="st0">
			<path class="st1" d="M3.1,214.8H0.3v-0.6h2.8V214.8z"/>
			<path class="st1" d="M10.2,218.3H4.8v-0.5l2.9-3.3c0.5-0.6,0.8-1,1-1.4S9,212.3,9,212c0-0.5-0.2-1-0.5-1.3s-0.8-0.5-1.3-0.5
				c-0.6,0-1,0.2-1.4,0.6s-0.5,0.8-0.5,1.4H4.6c0-0.5,0.1-0.9,0.3-1.3s0.5-0.7,0.9-0.9s0.9-0.3,1.4-0.3c0.8,0,1.4,0.2,1.8,0.6
				s0.7,1,0.7,1.7c0,0.4-0.1,0.8-0.4,1.3s-0.7,1.1-1.3,1.8l-2.4,2.7h4.5V218.3z"/>
			<path class="st1" d="M12.1,219.9l-0.4-0.3c0.4-0.5,0.5-1,0.6-1.5v-0.9h0.7v0.7C12.9,218.7,12.6,219.4,12.1,219.9z"/>
			<path class="st1" d="M20.1,214.7c0,1.2-0.2,2.1-0.7,2.7s-1.1,0.9-2,0.9c-0.8,0-1.5-0.3-1.9-0.9s-0.7-1.5-0.7-2.7v-1.5
				c0-1.2,0.2-2.1,0.7-2.7s1.1-0.9,2-0.9c0.8,0,1.5,0.3,1.9,0.9s0.7,1.5,0.7,2.6V214.7z M19.4,213.2c0-1-0.2-1.7-0.5-2.2
				s-0.8-0.8-1.4-0.8c-0.6,0-1.1,0.2-1.4,0.7s-0.5,1.2-0.5,2.2v1.7c0,1,0.2,1.7,0.5,2.2s0.8,0.8,1.4,0.8c0.6,0,1.1-0.3,1.4-0.8
				s0.5-1.2,0.5-2.2V213.2z"/>
			<path class="st1" d="M22.1,211.4c0-0.5,0.2-0.9,0.5-1.3s0.7-0.5,1.2-0.5s0.9,0.2,1.2,0.5s0.5,0.8,0.5,1.3v0.4
				c0,0.5-0.2,0.9-0.5,1.3s-0.7,0.5-1.2,0.5c-0.5,0-0.9-0.2-1.2-0.5s-0.5-0.8-0.5-1.3V211.4z M22.6,211.8c0,0.4,0.1,0.7,0.3,0.9
				c0.2,0.2,0.5,0.4,0.8,0.4c0.3,0,0.6-0.1,0.8-0.4c0.2-0.2,0.3-0.5,0.3-0.9v-0.4c0-0.4-0.1-0.7-0.3-0.9c-0.2-0.2-0.5-0.4-0.8-0.4
				c-0.3,0-0.6,0.1-0.8,0.4c-0.2,0.2-0.3,0.5-0.3,0.9V211.8z M24,217.6l-0.4-0.3l4.2-6.7l0.4,0.3L24,217.6z M26.4,216.2
				c0-0.5,0.2-0.9,0.5-1.3s0.7-0.5,1.2-0.5s0.9,0.2,1.2,0.5s0.5,0.8,0.5,1.3v0.4c0,0.5-0.2,0.9-0.5,1.3s-0.7,0.5-1.2,0.5
				s-0.9-0.2-1.2-0.5s-0.5-0.8-0.5-1.3V216.2z M26.9,216.6c0,0.4,0.1,0.7,0.3,0.9c0.2,0.2,0.5,0.4,0.8,0.4c0.3,0,0.6-0.1,0.8-0.4
				c0.2-0.2,0.3-0.5,0.3-0.9v-0.4c0-0.4-0.1-0.7-0.3-0.9c-0.2-0.2-0.5-0.3-0.8-0.3c-0.3,0-0.6,0.1-0.8,0.3c-0.2,0.2-0.3,0.5-0.3,0.9
				V216.6z"/>
		</g>
		<g class="st0">
			<path class="st1" d="M20.1,156.7c0,1.2-0.2,2.1-0.7,2.7s-1.1,0.9-2,0.9c-0.8,0-1.5-0.3-1.9-0.9s-0.7-1.5-0.7-2.7v-1.5
				c0-1.2,0.2-2.1,0.7-2.7s1.1-0.9,2-0.9c0.8,0,1.5,0.3,1.9,0.9s0.7,1.5,0.7,2.6V156.7z M19.4,155.2c0-1-0.2-1.7-0.5-2.2
				s-0.8-0.8-1.4-0.8c-0.6,0-1.1,0.2-1.4,0.7s-0.5,1.2-0.5,2.2v1.7c0,1,0.2,1.7,0.5,2.2s0.8,0.8,1.4,0.8c0.6,0,1.1-0.3,1.4-0.8
				s0.5-1.2,0.5-2.2V155.2z"/>
			<path class="st1" d="M22.1,153.4c0-0.5,0.2-0.9,0.5-1.3s0.7-0.5,1.2-0.5s0.9,0.2,1.2,0.5s0.5,0.8,0.5,1.3v0.4
				c0,0.5-0.2,0.9-0.5,1.3s-0.7,0.5-1.2,0.5c-0.5,0-0.9-0.2-1.2-0.5s-0.5-0.8-0.5-1.3V153.4z M22.6,153.8c0,0.4,0.1,0.7,0.3,0.9
				c0.2,0.2,0.5,0.4,0.8,0.4c0.3,0,0.6-0.1,0.8-0.4c0.2-0.2,0.3-0.5,0.3-0.9v-0.4c0-0.4-0.1-0.7-0.3-0.9c-0.2-0.2-0.5-0.4-0.8-0.4
				c-0.3,0-0.6,0.1-0.8,0.4c-0.2,0.2-0.3,0.5-0.3,0.9V153.8z M24,159.6l-0.4-0.3l4.2-6.7l0.4,0.3L24,159.6z M26.4,158.2
				c0-0.5,0.2-0.9,0.5-1.3s0.7-0.5,1.2-0.5s0.9,0.2,1.2,0.5c0.3,0.3,0.5,0.8,0.5,1.3v0.4c0,0.5-0.2,0.9-0.5,1.3
				c-0.3,0.3-0.7,0.5-1.2,0.5s-0.9-0.2-1.2-0.5s-0.5-0.8-0.5-1.3V158.2z M26.9,158.6c0,0.4,0.1,0.7,0.3,0.9c0.2,0.2,0.5,0.4,0.8,0.4
				c0.3,0,0.6-0.1,0.8-0.4c0.2-0.2,0.3-0.5,0.3-0.9v-0.4c0-0.4-0.1-0.7-0.3-0.9c-0.2-0.2-0.5-0.3-0.8-0.3c-0.3,0-0.6,0.1-0.8,0.3
				c-0.2,0.2-0.3,0.5-0.3,0.9V158.6z"/>
		</g>
		<g class="st0">
			<path class="st1" d="M10.2,103.8H4.8v-0.5l2.9-3.3c0.5-0.6,0.8-1,1-1.4S9,97.8,9,97.5c0-0.5-0.2-1-0.5-1.3s-0.8-0.5-1.3-0.5
				c-0.6,0-1,0.2-1.4,0.6s-0.5,0.8-0.5,1.4H4.6c0-0.5,0.1-0.9,0.3-1.3s0.5-0.7,0.9-0.9s0.9-0.3,1.4-0.3c0.8,0,1.4,0.2,1.8,0.6
				s0.7,1,0.7,1.7c0,0.4-0.1,0.8-0.4,1.3s-0.7,1.1-1.3,1.8l-2.4,2.7h4.5V103.8z"/>
			<path class="st1" d="M12,105.4l-0.4-0.3c0.4-0.5,0.5-1,0.6-1.5v-0.9h0.7v0.7C12.9,104.2,12.6,104.9,12,105.4z"/>
			<path class="st1" d="M20.1,100.2c0,1.2-0.2,2.1-0.7,2.7s-1.1,0.9-2,0.9c-0.8,0-1.5-0.3-1.9-0.9s-0.7-1.5-0.7-2.7v-1.5
				c0-1.2,0.2-2.1,0.7-2.7s1.1-0.9,2-0.9c0.8,0,1.5,0.3,1.9,0.9s0.7,1.5,0.7,2.6V100.2z M19.4,98.7c0-1-0.2-1.7-0.5-2.2
				s-0.8-0.8-1.4-0.8c-0.6,0-1.1,0.2-1.4,0.7s-0.5,1.2-0.5,2.2v1.7c0,1,0.2,1.7,0.5,2.2s0.8,0.8,1.4,0.8c0.6,0,1.1-0.3,1.4-0.8
				s0.5-1.2,0.5-2.2V98.7z"/>
			<path class="st1" d="M22.1,96.9c0-0.5,0.2-0.9,0.5-1.3s0.7-0.5,1.2-0.5s0.9,0.2,1.2,0.5s0.5,0.8,0.5,1.3v0.4
				c0,0.5-0.2,0.9-0.5,1.3s-0.7,0.5-1.2,0.5c-0.5,0-0.9-0.2-1.2-0.5s-0.5-0.8-0.5-1.3V96.9z M22.6,97.3c0,0.4,0.1,0.7,0.3,0.9
				c0.2,0.2,0.5,0.4,0.8,0.4c0.3,0,0.6-0.1,0.8-0.4c0.2-0.2,0.3-0.5,0.3-0.9v-0.4c0-0.4-0.1-0.7-0.3-0.9c-0.2-0.2-0.5-0.4-0.8-0.4
				c-0.3,0-0.6,0.1-0.8,0.4c-0.2,0.2-0.3,0.5-0.3,0.9V97.3z M24,103.1l-0.4-0.3l4.2-6.7l0.4,0.3L24,103.1z M26.4,101.7
				c0-0.5,0.2-0.9,0.5-1.3s0.7-0.5,1.2-0.5s0.9,0.2,1.2,0.5s0.5,0.8,0.5,1.3v0.4c0,0.5-0.2,0.9-0.5,1.3s-0.7,0.5-1.2,0.5
				s-0.9-0.2-1.2-0.5s-0.5-0.8-0.5-1.3V101.7z M26.9,102.1c0,0.4,0.1,0.7,0.3,0.9c0.2,0.2,0.5,0.4,0.8,0.4c0.3,0,0.6-0.1,0.8-0.4
				c0.2-0.2,0.3-0.5,0.3-0.9v-0.4c0-0.4-0.1-0.7-0.3-0.9c-0.2-0.2-0.5-0.3-0.8-0.3c-0.3,0-0.6,0.1-0.8,0.3c-0.2,0.2-0.3,0.5-0.3,0.9
				V102.1z"/>
		</g>
		<g class="st0">
			<path class="st1" d="M9.1,37.5h1.3v0.6H9.1v2.2H8.4v-2.2h-4v-0.4l3.9-6h0.8V37.5z M5.3,37.5h3.2v-4.9l-0.3,0.5L5.3,37.5z"/>
			<path class="st1" d="M12,41.9l-0.4-0.3c0.4-0.5,0.5-1,0.6-1.5v-0.9h0.7v0.7C12.9,40.7,12.6,41.4,12,41.9z"/>
			<path class="st1" d="M20.1,36.7c0,1.2-0.2,2.1-0.7,2.7s-1.1,0.9-2,0.9c-0.8,0-1.5-0.3-1.9-0.9s-0.7-1.5-0.7-2.7v-1.5
				c0-1.2,0.2-2.1,0.7-2.7c0.4-0.6,1.1-0.9,2-0.9c0.8,0,1.5,0.3,1.9,0.9c0.4,0.6,0.7,1.5,0.7,2.6V36.7z M19.4,35.2
				c0-1-0.2-1.7-0.5-2.2s-0.8-0.8-1.4-0.8c-0.6,0-1.1,0.2-1.4,0.7s-0.5,1.2-0.5,2.2v1.7c0,1,0.2,1.7,0.5,2.2s0.8,0.8,1.4,0.8
				c0.6,0,1.1-0.3,1.4-0.8s0.5-1.2,0.5-2.2V35.2z"/>
			<path class="st1" d="M22.1,33.4c0-0.5,0.2-0.9,0.5-1.3c0.3-0.3,0.7-0.5,1.2-0.5s0.9,0.2,1.2,0.5c0.3,0.3,0.5,0.8,0.5,1.3v0.4
				c0,0.5-0.2,0.9-0.5,1.3s-0.7,0.5-1.2,0.5c-0.5,0-0.9-0.2-1.2-0.5s-0.5-0.8-0.5-1.3V33.4z M22.6,33.8c0,0.4,0.1,0.7,0.3,0.9
				c0.2,0.2,0.5,0.4,0.8,0.4c0.3,0,0.6-0.1,0.8-0.4c0.2-0.2,0.3-0.5,0.3-0.9v-0.4c0-0.4-0.1-0.7-0.3-0.9c-0.2-0.2-0.5-0.4-0.8-0.4
				c-0.3,0-0.6,0.1-0.8,0.4c-0.2,0.2-0.3,0.5-0.3,0.9V33.8z M24,39.6l-0.4-0.3l4.2-6.7l0.4,0.3L24,39.6z M26.4,38.2
				c0-0.5,0.2-0.9,0.5-1.3s0.7-0.5,1.2-0.5s0.9,0.2,1.2,0.5s0.5,0.8,0.5,1.3v0.4c0,0.5-0.2,0.9-0.5,1.3s-0.7,0.5-1.2,0.5
				s-0.9-0.2-1.2-0.5s-0.5-0.8-0.5-1.3V38.2z M26.9,38.6c0,0.4,0.1,0.7,0.3,0.9c0.2,0.2,0.5,0.4,0.8,0.4c0.3,0,0.6-0.1,0.8-0.4
				c0.2-0.2,0.3-0.5,0.3-0.9v-0.4c0-0.4-0.1-0.7-0.3-0.9c-0.2-0.2-0.5-0.3-0.8-0.3c-0.3,0-0.6,0.1-0.8,0.3c-0.2,0.2-0.3,0.5-0.3,0.9
				V38.6z"/>
		</g>
		<g class="st0">
			<path class="st1" d="M5.3,5.9l0.4-4.2H10v0.7H6.3L6,5.3C6.5,5,7,4.8,7.6,4.8c0.8,0,1.4,0.3,1.8,0.8s0.7,1.2,0.7,2
				c0,0.9-0.2,1.6-0.7,2.1s-1.1,0.7-1.9,0.7c-0.7,0-1.3-0.2-1.8-0.6S5.1,8.8,5,8h0.7C5.8,8.6,6,9,6.3,9.3s0.8,0.4,1.3,0.4
				c0.6,0,1.1-0.2,1.4-0.6s0.5-0.9,0.5-1.7c0-0.6-0.2-1.1-0.5-1.5S8.1,5.4,7.5,5.4c-0.3,0-0.6,0-0.9,0.1S6.1,5.8,5.9,6.1L5.3,5.9z"
				/>
			<path class="st1" d="M12,11.9l-0.4-0.3c0.4-0.5,0.5-1,0.6-1.5V9.2h0.7v0.7C12.9,10.7,12.6,11.4,12,11.9z"/>
			<path class="st1" d="M18.2,10.3h-0.7V2.6l-2.3,0.9V2.8l2.9-1.1h0.1V10.3z"/>
			<path class="st1" d="M22.1,3.4c0-0.5,0.2-0.9,0.5-1.3s0.7-0.5,1.2-0.5s0.9,0.2,1.2,0.5s0.5,0.8,0.5,1.3v0.4
				c0,0.5-0.2,0.9-0.5,1.3s-0.7,0.5-1.2,0.5c-0.5,0-0.9-0.2-1.2-0.5s-0.5-0.8-0.5-1.3V3.4z M22.6,3.8c0,0.4,0.1,0.7,0.3,0.9
				c0.2,0.2,0.5,0.4,0.8,0.4c0.3,0,0.6-0.1,0.8-0.4c0.2-0.2,0.3-0.5,0.3-0.9V3.4c0-0.4-0.1-0.7-0.3-0.9c-0.2-0.2-0.5-0.4-0.8-0.4
				c-0.3,0-0.6,0.1-0.8,0.4c-0.2,0.2-0.3,0.5-0.3,0.9V3.8z M24,9.6l-0.4-0.3l4.2-6.7l0.4,0.3L24,9.6z M26.4,8.2
				c0-0.5,0.2-0.9,0.5-1.3s0.7-0.5,1.2-0.5s0.9,0.2,1.2,0.5s0.5,0.8,0.5,1.3v0.4c0,0.5-0.2,0.9-0.5,1.3s-0.7,0.5-1.2,0.5
				s-0.9-0.2-1.2-0.5s-0.5-0.8-0.5-1.3V8.2z M26.9,8.6c0,0.4,0.1,0.7,0.3,0.9c0.2,0.2,0.5,0.4,0.8,0.4c0.3,0,0.6-0.1,0.8-0.4
				C29,9.3,29.1,9,29.1,8.6V8.2c0-0.4-0.1-0.7-0.3-0.9C28.6,7,28.4,6.9,28,6.9c-0.3,0-0.6,0.1-0.8,0.3c-0.2,0.2-0.3,0.5-0.3,0.9V8.6
				z"/>
		</g>
		<line class="st2" x1="53.6" y1="36.4" x2="665.4" y2="36.4"/>
		<line class="st2" x1="53.6" y1="98" x2="665.4" y2="98"/>
		<line class="st2" x1="53.6" y1="155.8" x2="665.4" y2="155.8"/>
		<line class="st2" x1="53.6" y1="213.6" x2="665.4" y2="213.6"/>
		<line class="st2" x1="87.6" y1="5.2" x2="87.6" y2="241.3"/>
		<line class="st2" x1="176.2" y1="5.2" x2="176.2" y2="241.3"/>
		<line class="st2" x1="264.9" y1="5.2" x2="264.9" y2="241.3"/>
		<line class="st2" x1="353.5" y1="5.2" x2="353.5" y2="241.3"/>
		<line class="st2" x1="442.2" y1="5.2" x2="442.2" y2="241.3"/>
		<line class="st2" x1="530.8" y1="5.2" x2="530.8" y2="241.3"/>
		<line class="st2" x1="619.5" y1="5.2" x2="619.5" y2="241.3"/>
		<polyline class="st3" points="53.6,155.8 63,5.2 69.9,170.4 93.8,170.4 100.8,179.7 109.9,168.8 115.8,146 123.3,155.8 
			139.9,155.8 146.7,151.4 154.4,179.7 162,179.7 170.3,155.8 177.8,179.7 192.6,179.7 200.3,197.6 216.1,155.8 223.1,143.3 
			246.2,141.1 254.3,120 264.9,125.4 277.1,140 283.5,134.6 299.4,133.5 315.2,155.8 322.4,175.3 330.2,174.8 337.2,188.4 
			353.5,188.9 360.5,181.3 368.3,189.4 376.6,174.2 384.1,194.3 407.7,193.2 414.2,203 421.4,241.3 436,193.2 451.8,181.8 
			460.8,181.3 467.1,186.2 482.8,184.6 498.2,161.8 521,162.3 528.2,171 536.3,155.8 551.8,105.3 567.9,102.6 575.7,112.9 
			582.9,86.3 598.5,66.2 605,52.1 620.5,52.1 627.5,36.4 639.4,36.4 643.8,31.5 659.1,47.2 665.4,47.2 		"/>
	</g>
</g>
</svg>
