<?xml version="1.0" encoding="utf-8"?>
<!-- Generator: Adobe Illustrator 23.0.1, SVG Export Plug-In . SVG Version: 6.00 Build 0)  -->
<svg version="1.1" id="Слой_1" xmlns="http://www.w3.org/2000/svg" xmlns:xlink="http://www.w3.org/1999/xlink" x="0px" y="0px"
	 viewBox="0 0 272.9 304.5" style="enable-background:new 0 0 272.9 304.5;" xml:space="preserve">
<style type="text/css">
	.st0{enable-background:new    ;}
	.st1{fill:#666666;}
	.st2{fill:none;stroke:#CCCECE;stroke-miterlimit:10;}
	.st3{fill:none;stroke:#00A19B;stroke-miterlimit:10;}
</style>
<title>Ресурс 3</title>
<g>
	<g id="Content">
		<g class="st0">
			<path class="st1" d="M3.1,237.8H0.3v-0.6h2.8V237.8z"/>
			<path class="st1" d="M10.2,241.3H4.8v-0.5l2.9-3.3c0.5-0.6,0.8-1,1-1.4S9,235.3,9,235c0-0.5-0.2-1-0.5-1.3s-0.8-0.5-1.3-0.5
				c-0.6,0-1,0.2-1.4,0.6s-0.5,0.8-0.5,1.4H4.6c0-0.5,0.1-0.9,0.3-1.3s0.5-0.7,0.9-0.9s0.9-0.3,1.4-0.3c0.8,0,1.4,0.2,1.8,0.6
				s0.7,1,0.7,1.7c0,0.4-0.1,0.8-0.4,1.3s-0.7,1.1-1.3,1.8l-2.4,2.7h4.5V241.3z"/>
			<path class="st1" d="M12.1,242.9l-0.4-0.3c0.4-0.5,0.5-1,0.6-1.5v-0.9h0.7v0.7C12.9,241.7,12.6,242.4,12.1,242.9z"/>
			<path class="st1" d="M19.4,237.3c-0.3,0.4-0.6,0.7-0.9,0.9s-0.8,0.3-1.2,0.3c-0.5,0-0.9-0.1-1.3-0.4s-0.7-0.6-0.9-1
				s-0.3-0.9-0.3-1.4c0-0.6,0.1-1.1,0.3-1.5s0.5-0.8,0.9-1.1s0.8-0.4,1.3-0.4c0.9,0,1.5,0.3,2,0.9s0.7,1.5,0.7,2.6v0.6
				c0,1.5-0.3,2.7-1,3.5s-1.7,1.2-3,1.2h-0.1l0-0.6h0.2c1,0,1.8-0.3,2.3-0.9S19.3,238.4,19.4,237.3z M17.3,237.9
				c0.5,0,0.9-0.1,1.3-0.4s0.6-0.6,0.8-1.1V236c0-0.9-0.2-1.5-0.5-2s-0.8-0.7-1.5-0.7c-0.6,0-1,0.2-1.4,0.7s-0.5,1-0.5,1.7
				c0,0.7,0.2,1.2,0.5,1.6S16.8,237.9,17.3,237.9z"/>
			<path class="st1" d="M22.1,234.4c0-0.5,0.2-0.9,0.5-1.3s0.7-0.5,1.2-0.5s0.9,0.2,1.2,0.5s0.5,0.8,0.5,1.3v0.4
				c0,0.5-0.2,0.9-0.5,1.3s-0.7,0.5-1.2,0.5c-0.5,0-0.9-0.2-1.2-0.5s-0.5-0.8-0.5-1.3V234.4z M22.6,234.8c0,0.4,0.1,0.7,0.3,0.9
				c0.2,0.2,0.5,0.4,0.8,0.4c0.3,0,0.6-0.1,0.8-0.4c0.2-0.2,0.3-0.5,0.3-0.9v-0.4c0-0.4-0.1-0.7-0.3-0.9c-0.2-0.2-0.5-0.4-0.8-0.4
				c-0.3,0-0.6,0.1-0.8,0.4c-0.2,0.2-0.3,0.5-0.3,0.9V234.8z M24,240.6l-0.4-0.3l4.2-6.7l0.4,0.3L24,240.6z M26.4,239.2
				c0-0.5,0.2-0.9,0.5-1.3s0.7-0.5,1.2-0.5s0.9,0.2,1.2,0.5s0.5,0.8,0.5,1.3v0.4c0,0.5-0.2,0.9-0.5,1.3s-0.7,0.5-1.2,0.5
				s-0.9-0.2-1.2-0.5s-0.5-0.8-0.5-1.3V239.2z M26.9,239.6c0,0.4,0.1,0.7,0.3,0.9c0.2,0.2,0.5,0.4,0.8,0.4c0.3,0,0.6-0.1,0.8-0.4
				c0.2-0.2,0.3-0.5,0.3-0.9v-0.4c0-0.4-0.1-0.7-0.3-0.9c-0.2-0.2-0.5-0.3-0.8-0.3c-0.3,0-0.6,0.1-0.8,0.3c-0.2,0.2-0.3,0.5-0.3,0.9
				V239.6z"/>
		</g>
		<g class="st0">
			<path class="st1" d="M53.8,300.4v0.7h-7.7l0.9,2.3h-0.7l-1.1-2.9v-0.1H53.8z"/>
			<path class="st1" d="M53.8,291.1v5.3h-0.5l-3.3-2.9c-0.6-0.5-1-0.8-1.4-1s-0.7-0.3-1.1-0.3c-0.5,0-1,0.2-1.3,0.5
				s-0.5,0.8-0.5,1.3c0,0.6,0.2,1,0.6,1.4s0.8,0.5,1.4,0.5v0.7c-0.5,0-0.9-0.1-1.3-0.3s-0.7-0.5-0.9-0.9s-0.3-0.9-0.3-1.4
				c0-0.8,0.2-1.4,0.6-1.8s1-0.7,1.7-0.7c0.4,0,0.8,0.1,1.3,0.4s1.1,0.7,1.8,1.3l2.7,2.4v-4.5H53.8z"/>
			<path class="st1" d="M53.3,289.1c-0.1,0-0.3,0-0.3-0.1s-0.1-0.2-0.1-0.4s0-0.3,0.1-0.4s0.2-0.1,0.3-0.1s0.2,0,0.3,0.1
				s0.1,0.2,0.1,0.4s0,0.3-0.1,0.4S53.5,289.1,53.3,289.1z"/>
			<path class="st1" d="M53.8,282.4v0.7h-7.7l0.9,2.3h-0.7l-1.1-2.9v-0.1H53.8z"/>
			<path class="st1" d="M53.8,275.2v0.7h-7.7l0.9,2.3h-0.7l-1.1-2.9v-0.1H53.8z"/>
			<path class="st1" d="M53.3,271.2c-0.1,0-0.3,0-0.3-0.1s-0.1-0.2-0.1-0.4s0-0.3,0.1-0.4s0.2-0.1,0.3-0.1s0.2,0,0.3,0.1
				s0.1,0.2,0.1,0.4s0,0.3-0.1,0.4S53.5,271.2,53.3,271.2z"/>
			<path class="st1" d="M53.8,264.5v0.7h-7.7l0.9,2.3h-0.7l-1.1-2.9v-0.1H53.8z"/>
			<path class="st1" d="M47.4,255.5c0.4,0,0.8,0.1,1.2,0.4c0.3,0.3,0.6,0.6,0.8,1c0.2-0.5,0.4-0.9,0.8-1.2s0.8-0.4,1.3-0.4
				c0.7,0,1.3,0.2,1.7,0.7c0.4,0.5,0.6,1.2,0.6,2c0,0.8-0.2,1.5-0.6,2s-1,0.7-1.7,0.7c-0.5,0-0.9-0.1-1.3-0.4s-0.7-0.7-0.8-1.2
				c-0.2,0.4-0.4,0.8-0.8,1s-0.7,0.4-1.2,0.4c-0.7,0-1.3-0.2-1.7-0.7s-0.6-1.1-0.6-1.8s0.2-1.4,0.6-1.8
				C46.2,255.7,46.7,255.5,47.4,255.5z M47.4,256.2c-0.5,0-0.9,0.2-1.2,0.5s-0.5,0.8-0.5,1.3c0,0.5,0.2,1,0.5,1.3s0.7,0.5,1.2,0.5
				c0.5,0,0.9-0.2,1.2-0.5s0.5-0.8,0.5-1.3c0-0.5-0.2-1-0.5-1.3S47.9,256.2,47.4,256.2z M51.5,255.9c-0.5,0-1,0.2-1.3,0.6
				s-0.5,0.9-0.5,1.5s0.2,1.1,0.5,1.4s0.8,0.6,1.3,0.6s1-0.2,1.3-0.5s0.5-0.9,0.5-1.5c0-0.6-0.2-1.1-0.5-1.5S52.1,255.9,51.5,255.9z
				"/>
		</g>
		<g class="st0">
			<path class="st1" d="M87.9,298.3v5.3h-0.5l-3.3-2.9c-0.6-0.5-1-0.8-1.4-1s-0.7-0.3-1.1-0.3c-0.5,0-1,0.2-1.3,0.5
				s-0.5,0.8-0.5,1.3c0,0.6,0.2,1,0.6,1.4s0.8,0.5,1.4,0.5v0.7c-0.5,0-0.9-0.1-1.3-0.3s-0.7-0.5-0.9-0.9s-0.3-0.9-0.3-1.4
				c0-0.8,0.2-1.4,0.6-1.8s1-0.7,1.7-0.7c0.4,0,0.8,0.1,1.3,0.4s1.1,0.7,1.8,1.3l2.7,2.4v-4.5H87.9z"/>
			<path class="st1" d="M83.3,294.9v-0.7c0-0.4-0.1-0.8-0.2-1.1s-0.3-0.5-0.6-0.7s-0.5-0.2-0.9-0.2c-0.5,0-1,0.2-1.3,0.5
				s-0.5,0.8-0.5,1.3c0,0.5,0.2,1,0.5,1.3s0.7,0.5,1.3,0.5v0.7c-0.4,0-0.8-0.1-1.2-0.3s-0.6-0.5-0.8-0.9s-0.3-0.8-0.3-1.3
				c0-0.8,0.2-1.4,0.6-1.8s1-0.7,1.7-0.7c0.4,0,0.8,0.1,1.1,0.4s0.6,0.6,0.8,1.1c0.1-0.5,0.4-0.9,0.8-1.2s0.8-0.4,1.3-0.4
				c0.7,0,1.3,0.2,1.8,0.7s0.7,1.1,0.7,1.9c0,0.5-0.1,1-0.3,1.4s-0.5,0.8-0.9,1s-0.8,0.3-1.3,0.3v-0.7c0.5,0,1-0.2,1.3-0.6
				s0.5-0.9,0.5-1.5c0-0.6-0.2-1.1-0.5-1.4s-0.8-0.5-1.4-0.5c-0.6,0-1,0.2-1.3,0.5s-0.5,0.9-0.5,1.6v0.7H83.3z"/>
			<path class="st1" d="M87.5,289.1c-0.1,0-0.3,0-0.3-0.1s-0.1-0.2-0.1-0.4s0-0.3,0.1-0.4s0.2-0.1,0.3-0.1s0.2,0,0.3,0.1
				s0.1,0.2,0.1,0.4s0,0.3-0.1,0.4S87.6,289.1,87.5,289.1z"/>
			<path class="st1" d="M87.9,282.4v0.7h-7.7l0.9,2.3h-0.7l-1.1-2.9v-0.1H87.9z"/>
			<path class="st1" d="M87.9,275.2v0.7h-7.7l0.9,2.3h-0.7l-1.1-2.9v-0.1H87.9z"/>
			<path class="st1" d="M87.5,271.2c-0.1,0-0.3,0-0.3-0.1s-0.1-0.2-0.1-0.4s0-0.3,0.1-0.4s0.2-0.1,0.3-0.1s0.2,0,0.3,0.1
				s0.1,0.2,0.1,0.4s0,0.3-0.1,0.4S87.6,271.2,87.5,271.2z"/>
			<path class="st1" d="M87.9,264.5v0.7h-7.7l0.9,2.3h-0.7l-1.1-2.9v-0.1H87.9z"/>
			<path class="st1" d="M81.6,255.5c0.4,0,0.8,0.1,1.2,0.4c0.3,0.3,0.6,0.6,0.8,1c0.2-0.5,0.4-0.9,0.8-1.2s0.8-0.4,1.3-0.4
				c0.7,0,1.3,0.2,1.7,0.7c0.4,0.5,0.6,1.2,0.6,2c0,0.8-0.2,1.5-0.6,2s-1,0.7-1.7,0.7c-0.5,0-0.9-0.1-1.3-0.4s-0.7-0.7-0.8-1.2
				c-0.2,0.4-0.4,0.8-0.8,1s-0.7,0.4-1.2,0.4c-0.7,0-1.3-0.2-1.7-0.7s-0.6-1.1-0.6-1.8s0.2-1.4,0.6-1.8
				C80.3,255.7,80.9,255.5,81.6,255.5z M81.6,256.2c-0.5,0-0.9,0.2-1.2,0.5s-0.5,0.8-0.5,1.3c0,0.5,0.2,1,0.5,1.3s0.7,0.5,1.2,0.5
				c0.5,0,0.9-0.2,1.2-0.5s0.5-0.8,0.5-1.3c0-0.5-0.2-1-0.5-1.3S82.1,256.2,81.6,256.2z M85.7,255.9c-0.5,0-1,0.2-1.3,0.6
				s-0.5,0.9-0.5,1.5s0.2,1.1,0.5,1.4s0.8,0.6,1.3,0.6s1-0.2,1.3-0.5s0.5-0.9,0.5-1.5c0-0.6-0.2-1.1-0.5-1.5S86.2,255.9,85.7,255.9z
				"/>
		</g>
		<g class="st0">
			<path class="st1" d="M118.5,298.5c1.2,0,2.1,0.2,2.7,0.7s0.9,1.1,0.9,2c0,0.8-0.3,1.5-0.9,1.9s-1.5,0.7-2.7,0.7h-1.5
				c-1.2,0-2.1-0.2-2.7-0.7s-0.9-1.1-0.9-2c0-0.8,0.3-1.5,0.9-1.9s1.5-0.7,2.6-0.7H118.5z M117,299.2c-1,0-1.7,0.2-2.2,0.5
				s-0.8,0.8-0.8,1.4c0,0.6,0.2,1.1,0.7,1.4s1.2,0.5,2.2,0.5h1.7c1,0,1.7-0.2,2.2-0.5s0.8-0.8,0.8-1.4c0-0.6-0.3-1.1-0.8-1.4
				s-1.2-0.5-2.2-0.5H117z"/>
			<path class="st1" d="M117.7,295.9l-4.2-0.4v-4.3h0.7v3.7l2.9,0.3c-0.3-0.5-0.5-1-0.5-1.6c0-0.8,0.3-1.4,0.8-1.8s1.2-0.7,2-0.7
				c0.9,0,1.6,0.2,2.1,0.7s0.7,1.1,0.7,1.9c0,0.7-0.2,1.3-0.6,1.8s-1,0.7-1.7,0.8v-0.7c0.6-0.1,1-0.3,1.3-0.6s0.4-0.8,0.4-1.3
				c0-0.6-0.2-1.1-0.6-1.4s-0.9-0.5-1.7-0.5c-0.6,0-1.1,0.2-1.5,0.5s-0.6,0.8-0.6,1.4c0,0.3,0,0.6,0.1,0.9s0.2,0.5,0.5,0.8
				L117.7,295.9z"/>
			<path class="st1" d="M121.7,289.1c-0.1,0-0.3,0-0.3-0.1s-0.1-0.2-0.1-0.4s0-0.3,0.1-0.4s0.2-0.1,0.3-0.1s0.2,0,0.3,0.1
				s0.1,0.2,0.1,0.4s0,0.3-0.1,0.4S121.8,289.1,121.7,289.1z"/>
			<path class="st1" d="M122.1,282.4v0.7h-7.7l0.9,2.3h-0.7l-1.1-2.9v-0.1H122.1z"/>
			<path class="st1" d="M122.1,273.1v5.3h-0.5l-3.3-2.9c-0.6-0.5-1-0.8-1.4-1s-0.7-0.3-1.1-0.3c-0.5,0-1,0.2-1.3,0.5
				s-0.5,0.8-0.5,1.3c0,0.6,0.2,1,0.6,1.4s0.8,0.5,1.4,0.5v0.7c-0.5,0-0.9-0.1-1.3-0.3s-0.7-0.5-0.9-0.9s-0.3-0.9-0.3-1.4
				c0-0.8,0.2-1.4,0.6-1.8s1-0.7,1.7-0.7c0.4,0,0.8,0.1,1.3,0.4s1.1,0.7,1.8,1.3l2.7,2.4v-4.5H122.1z"/>
			<path class="st1" d="M121.7,271.2c-0.1,0-0.3,0-0.3-0.1s-0.1-0.2-0.1-0.4s0-0.3,0.1-0.4s0.2-0.1,0.3-0.1s0.2,0,0.3,0.1
				s0.1,0.2,0.1,0.4s0,0.3-0.1,0.4S121.8,271.2,121.7,271.2z"/>
			<path class="st1" d="M122.1,264.5v0.7h-7.7l0.9,2.3h-0.7l-1.1-2.9v-0.1H122.1z"/>
			<path class="st1" d="M115.7,255.5c0.4,0,0.8,0.1,1.2,0.4c0.3,0.3,0.6,0.6,0.8,1c0.2-0.5,0.4-0.9,0.8-1.2s0.8-0.4,1.3-0.4
				c0.7,0,1.3,0.2,1.7,0.7c0.4,0.5,0.6,1.2,0.6,2c0,0.8-0.2,1.5-0.6,2s-1,0.7-1.7,0.7c-0.5,0-0.9-0.1-1.3-0.4s-0.7-0.7-0.8-1.2
				c-0.2,0.4-0.4,0.8-0.8,1s-0.7,0.4-1.2,0.4c-0.7,0-1.3-0.2-1.7-0.7s-0.6-1.1-0.6-1.8s0.2-1.4,0.6-1.8
				C114.5,255.7,115,255.5,115.7,255.5z M115.7,256.2c-0.5,0-0.9,0.2-1.2,0.5s-0.5,0.8-0.5,1.3c0,0.5,0.2,1,0.5,1.3s0.7,0.5,1.2,0.5
				c0.5,0,0.9-0.2,1.2-0.5s0.5-0.8,0.5-1.3c0-0.5-0.2-1-0.5-1.3S116.2,256.2,115.7,256.2z M119.8,255.9c-0.5,0-1,0.2-1.3,0.6
				s-0.5,0.9-0.5,1.5s0.2,1.1,0.5,1.4s0.8,0.6,1.3,0.6s1-0.2,1.3-0.5s0.5-0.9,0.5-1.5c0-0.6-0.2-1.1-0.5-1.5
				S120.4,255.9,119.8,255.9z"/>
		</g>
		<g class="st0">
			<path class="st1" d="M156.2,300.4v0.7h-7.7l0.9,2.3h-0.7l-1.1-2.9v-0.1H156.2z"/>
			<path class="st1" d="M148.1,291.2l8.1,3.6v0.7l-7.9-3.6v4.9h-0.6v-5.6H148.1z"/>
			<path class="st1" d="M155.8,289.1c-0.1,0-0.3,0-0.3-0.1s-0.1-0.2-0.1-0.4s0-0.3,0.1-0.4s0.2-0.1,0.3-0.1s0.2,0,0.3,0.1
				s0.1,0.2,0.1,0.4s0,0.3-0.1,0.4S156,289.1,155.8,289.1z"/>
			<path class="st1" d="M156.2,282.4v0.7h-7.7l0.9,2.3h-0.7l-1.1-2.9v-0.1H156.2z"/>
			<path class="st1" d="M156.2,273.1v5.3h-0.5l-3.3-2.9c-0.6-0.5-1-0.8-1.4-1s-0.7-0.3-1.1-0.3c-0.5,0-1,0.2-1.3,0.5
				s-0.5,0.8-0.5,1.3c0,0.6,0.2,1,0.6,1.4s0.8,0.5,1.4,0.5v0.7c-0.5,0-0.9-0.1-1.3-0.3s-0.7-0.5-0.9-0.9s-0.3-0.9-0.3-1.4
				c0-0.8,0.2-1.4,0.6-1.8s1-0.7,1.7-0.7c0.4,0,0.8,0.1,1.3,0.4s1.1,0.7,1.8,1.3l2.7,2.4v-4.5H156.2z"/>
			<path class="st1" d="M155.8,271.2c-0.1,0-0.3,0-0.3-0.1s-0.1-0.2-0.1-0.4s0-0.3,0.1-0.4s0.2-0.1,0.3-0.1s0.2,0,0.3,0.1
				s0.1,0.2,0.1,0.4s0,0.3-0.1,0.4S156,271.2,155.8,271.2z"/>
			<path class="st1" d="M156.2,264.5v0.7h-7.7l0.9,2.3h-0.7l-1.1-2.9v-0.1H156.2z"/>
			<path class="st1" d="M149.9,255.5c0.4,0,0.8,0.1,1.2,0.4c0.3,0.3,0.6,0.6,0.8,1c0.2-0.5,0.4-0.9,0.8-1.2s0.8-0.4,1.3-0.4
				c0.7,0,1.3,0.2,1.7,0.7c0.4,0.5,0.6,1.2,0.6,2c0,0.8-0.2,1.5-0.6,2s-1,0.7-1.7,0.7c-0.5,0-0.9-0.1-1.3-0.4s-0.7-0.7-0.8-1.2
				c-0.2,0.4-0.4,0.8-0.8,1s-0.7,0.4-1.2,0.4c-0.7,0-1.3-0.2-1.7-0.7s-0.6-1.1-0.6-1.8s0.2-1.4,0.6-1.8
				C148.6,255.7,149.2,255.5,149.9,255.5z M149.9,256.2c-0.5,0-0.9,0.2-1.2,0.5s-0.5,0.8-0.5,1.3c0,0.5,0.2,1,0.5,1.3
				s0.7,0.5,1.2,0.5c0.5,0,0.9-0.2,1.2-0.5s0.5-0.8,0.5-1.3c0-0.5-0.2-1-0.5-1.3S150.4,256.2,149.9,256.2z M154,255.9
				c-0.5,0-1,0.2-1.3,0.6s-0.5,0.9-0.5,1.5s0.2,1.1,0.5,1.4s0.8,0.6,1.3,0.6s1-0.2,1.3-0.5s0.5-0.9,0.5-1.5c0-0.6-0.2-1.1-0.5-1.5
				S154.5,255.9,154,255.9z"/>
		</g>
		<g class="st0">
			<path class="st1" d="M190.4,298.3v5.3h-0.5l-3.3-2.9c-0.6-0.5-1-0.8-1.4-1s-0.7-0.3-1.1-0.3c-0.5,0-1,0.2-1.3,0.5
				s-0.5,0.8-0.5,1.3c0,0.6,0.2,1,0.6,1.4s0.8,0.5,1.4,0.5v0.7c-0.5,0-0.9-0.1-1.3-0.3s-0.7-0.5-0.9-0.9s-0.3-0.9-0.3-1.4
				c0-0.8,0.2-1.4,0.6-1.8s1-0.7,1.7-0.7c0.4,0,0.8,0.1,1.3,0.4s1.1,0.7,1.8,1.3l2.7,2.4v-4.5H190.4z"/>
			<path class="st1" d="M184.1,291.4c0.4,0,0.8,0.1,1.2,0.4s0.6,0.6,0.8,1c0.2-0.5,0.4-0.9,0.8-1.2s0.8-0.4,1.3-0.4
				c0.7,0,1.3,0.2,1.7,0.7s0.6,1.2,0.6,2c0,0.8-0.2,1.5-0.6,2s-1,0.7-1.7,0.7c-0.5,0-0.9-0.1-1.3-0.4s-0.7-0.7-0.8-1.2
				c-0.2,0.4-0.4,0.8-0.8,1s-0.7,0.4-1.2,0.4c-0.7,0-1.3-0.2-1.7-0.7s-0.6-1.1-0.6-1.8s0.2-1.4,0.6-1.8S183.4,291.4,184.1,291.4z
				 M184.1,292.1c-0.5,0-0.9,0.2-1.2,0.5s-0.5,0.8-0.5,1.3c0,0.5,0.2,1,0.5,1.3s0.7,0.5,1.2,0.5c0.5,0,0.9-0.2,1.2-0.5
				s0.5-0.8,0.5-1.3c0-0.5-0.2-1-0.5-1.3S184.6,292.1,184.1,292.1z M188.2,291.9c-0.5,0-1,0.2-1.3,0.6s-0.5,0.9-0.5,1.5
				s0.2,1.1,0.5,1.4s0.8,0.6,1.3,0.6s1-0.2,1.3-0.5s0.5-0.9,0.5-1.5c0-0.6-0.2-1.1-0.5-1.5S188.7,291.9,188.2,291.9z"/>
			<path class="st1" d="M190,289.1c-0.1,0-0.3,0-0.3-0.1s-0.1-0.2-0.1-0.4s0-0.3,0.1-0.4s0.2-0.1,0.3-0.1s0.2,0,0.3,0.1
				s0.1,0.2,0.1,0.4s0,0.3-0.1,0.4S190.1,289.1,190,289.1z"/>
			<path class="st1" d="M190.4,282.4v0.7h-7.7l0.9,2.3h-0.7l-1.1-2.9v-0.1H190.4z"/>
			<path class="st1" d="M190.4,273.1v5.3h-0.5l-3.3-2.9c-0.6-0.5-1-0.8-1.4-1s-0.7-0.3-1.1-0.3c-0.5,0-1,0.2-1.3,0.5
				s-0.5,0.8-0.5,1.3c0,0.6,0.2,1,0.6,1.4s0.8,0.5,1.4,0.5v0.7c-0.5,0-0.9-0.1-1.3-0.3s-0.7-0.5-0.9-0.9s-0.3-0.9-0.3-1.4
				c0-0.8,0.2-1.4,0.6-1.8s1-0.7,1.7-0.7c0.4,0,0.8,0.1,1.3,0.4s1.1,0.7,1.8,1.3l2.7,2.4v-4.5H190.4z"/>
			<path class="st1" d="M190,271.2c-0.1,0-0.3,0-0.3-0.1s-0.1-0.2-0.1-0.4s0-0.3,0.1-0.4s0.2-0.1,0.3-0.1s0.2,0,0.3,0.1
				s0.1,0.2,0.1,0.4s0,0.3-0.1,0.4S190.1,271.2,190,271.2z"/>
			<path class="st1" d="M190.4,264.5v0.7h-7.7l0.9,2.3h-0.7l-1.1-2.9v-0.1H190.4z"/>
			<path class="st1" d="M184.1,255.5c0.4,0,0.8,0.1,1.2,0.4c0.3,0.3,0.6,0.6,0.8,1c0.2-0.5,0.4-0.9,0.8-1.2s0.8-0.4,1.3-0.4
				c0.7,0,1.3,0.2,1.7,0.7c0.4,0.5,0.6,1.2,0.6,2c0,0.8-0.2,1.5-0.6,2s-1,0.7-1.7,0.7c-0.5,0-0.9-0.1-1.3-0.4s-0.7-0.7-0.8-1.2
				c-0.2,0.4-0.4,0.8-0.8,1s-0.7,0.4-1.2,0.4c-0.7,0-1.3-0.2-1.7-0.7s-0.6-1.1-0.6-1.8s0.2-1.4,0.6-1.8
				C182.8,255.7,183.4,255.5,184.1,255.5z M184.1,256.2c-0.5,0-0.9,0.2-1.2,0.5s-0.5,0.8-0.5,1.3c0,0.5,0.2,1,0.5,1.3
				s0.7,0.5,1.2,0.5c0.5,0,0.9-0.2,1.2-0.5s0.5-0.8,0.5-1.3c0-0.5-0.2-1-0.5-1.3S184.6,256.2,184.1,256.2z M188.2,255.9
				c-0.5,0-1,0.2-1.3,0.6s-0.5,0.9-0.5,1.5s0.2,1.1,0.5,1.4s0.8,0.6,1.3,0.6s1-0.2,1.3-0.5s0.5-0.9,0.5-1.5c0-0.6-0.2-1.1-0.5-1.5
				S188.7,255.9,188.2,255.9z"/>
		</g>
		<g class="st0">
			<path class="st1" d="M221,298.5c1.2,0,2.1,0.2,2.7,0.7s0.9,1.1,0.9,2c0,0.8-0.3,1.5-0.9,1.9s-1.5,0.7-2.7,0.7h-1.5
				c-1.2,0-2.1-0.2-2.7-0.7s-0.9-1.1-0.9-2c0-0.8,0.3-1.5,0.9-1.9s1.5-0.7,2.6-0.7H221z M219.5,299.2c-1,0-1.7,0.2-2.2,0.5
				s-0.8,0.8-0.8,1.4c0,0.6,0.2,1.1,0.7,1.4s1.2,0.5,2.2,0.5h1.7c1,0,1.7-0.2,2.2-0.5s0.8-0.8,0.8-1.4c0-0.6-0.3-1.1-0.8-1.4
				s-1.2-0.5-2.2-0.5H219.5z"/>
			<path class="st1" d="M220.6,292c0.4,0.3,0.7,0.6,0.9,0.9s0.3,0.8,0.3,1.2c0,0.5-0.1,0.9-0.4,1.3s-0.6,0.7-1,0.9s-0.9,0.3-1.4,0.3
				c-0.6,0-1.1-0.1-1.5-0.3s-0.8-0.5-1.1-0.9s-0.4-0.8-0.4-1.3c0-0.9,0.3-1.5,0.9-2s1.5-0.7,2.6-0.7h0.6c1.5,0,2.7,0.3,3.5,1
				s1.2,1.7,1.2,3v0.1l-0.6,0v-0.2c0-1-0.3-1.8-0.9-2.3S221.8,292.1,220.6,292z M221.2,294.1c0-0.5-0.1-0.9-0.4-1.3
				s-0.6-0.6-1.1-0.8h-0.4c-0.9,0-1.5,0.2-2,0.5s-0.7,0.8-0.7,1.5c0,0.6,0.2,1,0.7,1.4s1,0.5,1.7,0.5c0.7,0,1.2-0.2,1.6-0.5
				S221.2,294.6,221.2,294.1z"/>
			<path class="st1" d="M224.1,289.1c-0.1,0-0.3,0-0.3-0.1s-0.1-0.2-0.1-0.4s0-0.3,0.1-0.4s0.2-0.1,0.3-0.1s0.2,0,0.3,0.1
				s0.1,0.2,0.1,0.4s0,0.3-0.1,0.4S224.3,289.1,224.1,289.1z"/>
			<path class="st1" d="M221,280.6c1.2,0,2.1,0.2,2.7,0.7s0.9,1.1,0.9,2c0,0.8-0.3,1.5-0.9,1.9s-1.5,0.7-2.7,0.7h-1.5
				c-1.2,0-2.1-0.2-2.7-0.7s-0.9-1.1-0.9-2c0-0.8,0.3-1.5,0.9-1.9s1.5-0.7,2.6-0.7H221z M219.5,281.3c-1,0-1.7,0.2-2.2,0.5
				s-0.8,0.8-0.8,1.4c0,0.6,0.2,1.1,0.7,1.4s1.2,0.5,2.2,0.5h1.7c1,0,1.7-0.2,2.2-0.5s0.8-0.8,0.8-1.4c0-0.6-0.3-1.1-0.8-1.4
				s-1.2-0.5-2.2-0.5H219.5z"/>
			<path class="st1" d="M224.6,275.2v0.7h-7.7l0.9,2.3h-0.7l-1.1-2.9v-0.1H224.6z"/>
			<path class="st1" d="M224.1,271.2c-0.1,0-0.3,0-0.3-0.1s-0.1-0.2-0.1-0.4s0-0.3,0.1-0.4s0.2-0.1,0.3-0.1s0.2,0,0.3,0.1
				s0.1,0.2,0.1,0.4s0,0.3-0.1,0.4S224.3,271.2,224.1,271.2z"/>
			<path class="st1" d="M224.6,264.5v0.7h-7.7l0.9,2.3h-0.7l-1.1-2.9v-0.1H224.6z"/>
			<path class="st1" d="M220.6,256.1c0.4,0.3,0.7,0.6,0.9,0.9s0.3,0.8,0.3,1.2c0,0.5-0.1,0.9-0.4,1.3s-0.6,0.7-1,0.9
				s-0.9,0.3-1.4,0.3c-0.6,0-1.1-0.1-1.5-0.3s-0.8-0.5-1.1-0.9s-0.4-0.8-0.4-1.3c0-0.9,0.3-1.5,0.9-2c0.6-0.5,1.5-0.7,2.6-0.7h0.6
				c1.5,0,2.7,0.3,3.5,1c0.8,0.7,1.2,1.7,1.2,3v0.1l-0.6,0v-0.2c0-1-0.3-1.8-0.9-2.3S221.8,256.1,220.6,256.1z M221.2,258.2
				c0-0.5-0.1-0.9-0.4-1.3s-0.6-0.6-1.1-0.8h-0.4c-0.9,0-1.5,0.2-2,0.5s-0.7,0.8-0.7,1.5c0,0.6,0.2,1,0.7,1.4s1,0.5,1.7,0.5
				c0.7,0,1.2-0.2,1.6-0.5S221.2,258.7,221.2,258.2z"/>
		</g>
		<g class="st0">
			<path class="st1" d="M258.7,298.3v5.3h-0.5l-3.3-2.9c-0.6-0.5-1-0.8-1.4-1s-0.7-0.3-1.1-0.3c-0.5,0-1,0.2-1.3,0.5
				s-0.5,0.8-0.5,1.3c0,0.6,0.2,1,0.6,1.4s0.8,0.5,1.4,0.5v0.7c-0.5,0-0.9-0.1-1.3-0.3s-0.7-0.5-0.9-0.9s-0.3-0.9-0.3-1.4
				c0-0.8,0.2-1.4,0.6-1.8s1-0.7,1.7-0.7c0.4,0,0.8,0.1,1.3,0.4s1.1,0.7,1.8,1.3l2.7,2.4v-4.5H258.7z"/>
			<path class="st1" d="M255.2,291.3c1.2,0,2.1,0.2,2.7,0.7s0.9,1.1,0.9,2c0,0.8-0.3,1.5-0.9,1.9s-1.5,0.7-2.7,0.7h-1.5
				c-1.2,0-2.1-0.2-2.7-0.7s-0.9-1.1-0.9-2c0-0.8,0.3-1.5,0.9-1.9s1.5-0.7,2.6-0.7H255.2z M253.6,292c-1,0-1.7,0.2-2.2,0.5
				s-0.8,0.8-0.8,1.4c0,0.6,0.2,1.1,0.7,1.4s1.2,0.5,2.2,0.5h1.7c1,0,1.7-0.2,2.2-0.5s0.8-0.8,0.8-1.4c0-0.6-0.3-1.1-0.8-1.4
				s-1.2-0.5-2.2-0.5H253.6z"/>
			<path class="st1" d="M258.3,289.1c-0.1,0-0.3,0-0.3-0.1s-0.1-0.2-0.1-0.4s0-0.3,0.1-0.4s0.2-0.1,0.3-0.1s0.2,0,0.3,0.1
				s0.1,0.2,0.1,0.4s0,0.3-0.1,0.4S258.4,289.1,258.3,289.1z"/>
			<path class="st1" d="M255.2,280.6c1.2,0,2.1,0.2,2.7,0.7s0.9,1.1,0.9,2c0,0.8-0.3,1.5-0.9,1.9s-1.5,0.7-2.7,0.7h-1.5
				c-1.2,0-2.1-0.2-2.7-0.7s-0.9-1.1-0.9-2c0-0.8,0.3-1.5,0.9-1.9s1.5-0.7,2.6-0.7H255.2z M253.6,281.3c-1,0-1.7,0.2-2.2,0.5
				s-0.8,0.8-0.8,1.4c0,0.6,0.2,1.1,0.7,1.4s1.2,0.5,2.2,0.5h1.7c1,0,1.7-0.2,2.2-0.5s0.8-0.8,0.8-1.4c0-0.6-0.3-1.1-0.8-1.4
				s-1.2-0.5-2.2-0.5H253.6z"/>
			<path class="st1" d="M258.7,275.2v0.7H251l0.9,2.3h-0.7l-1.1-2.9v-0.1H258.7z"/>
			<path class="st1" d="M258.3,271.2c-0.1,0-0.3,0-0.3-0.1s-0.1-0.2-0.1-0.4s0-0.3,0.1-0.4s0.2-0.1,0.3-0.1s0.2,0,0.3,0.1
				s0.1,0.2,0.1,0.4s0,0.3-0.1,0.4S258.4,271.2,258.3,271.2z"/>
			<path class="st1" d="M258.7,264.5v0.7H251l0.9,2.3h-0.7l-1.1-2.9v-0.1H258.7z"/>
			<path class="st1" d="M254.8,256.1c0.4,0.3,0.7,0.6,0.9,0.9s0.3,0.8,0.3,1.2c0,0.5-0.1,0.9-0.4,1.3s-0.6,0.7-1,0.9
				s-0.9,0.3-1.4,0.3c-0.6,0-1.1-0.1-1.5-0.3s-0.8-0.5-1.1-0.9s-0.4-0.8-0.4-1.3c0-0.9,0.3-1.5,0.9-2c0.6-0.5,1.5-0.7,2.6-0.7h0.6
				c1.5,0,2.7,0.3,3.5,1c0.8,0.7,1.2,1.7,1.2,3v0.1l-0.6,0v-0.2c0-1-0.3-1.8-0.9-2.3S255.9,256.1,254.8,256.1z M255.3,258.2
				c0-0.5-0.1-0.9-0.4-1.3s-0.6-0.6-1.1-0.8h-0.4c-0.9,0-1.5,0.2-2,0.5s-0.7,0.8-0.7,1.5c0,0.6,0.2,1,0.7,1.4s1,0.5,1.7,0.5
				c0.7,0,1.2-0.2,1.6-0.5S255.3,258.7,255.3,258.2z"/>
		</g>
		<g class="st0">
			<path class="st1" d="M3.1,214.8H0.3v-0.6h2.8V214.8z"/>
			<path class="st1" d="M10.2,218.3H4.8v-0.5l2.9-3.3c0.5-0.6,0.8-1,1-1.4S9,212.3,9,212c0-0.5-0.2-1-0.5-1.3s-0.8-0.5-1.3-0.5
				c-0.6,0-1,0.2-1.4,0.6s-0.5,0.8-0.5,1.4H4.6c0-0.5,0.1-0.9,0.3-1.3s0.5-0.7,0.9-0.9s0.9-0.3,1.4-0.3c0.8,0,1.4,0.2,1.8,0.6
				s0.7,1,0.7,1.7c0,0.4-0.1,0.8-0.4,1.3s-0.7,1.1-1.3,1.8l-2.4,2.7h4.5V218.3z"/>
			<path class="st1" d="M12.1,219.9l-0.4-0.3c0.4-0.5,0.5-1,0.6-1.5v-0.9h0.7v0.7C12.9,218.7,12.6,219.4,12.1,219.9z"/>
			<path class="st1" d="M20.1,214.7c0,1.2-0.2,2.1-0.7,2.7s-1.1,0.9-2,0.9c-0.8,0-1.5-0.3-1.9-0.9s-0.7-1.5-0.7-2.7v-1.5
				c0-1.2,0.2-2.1,0.7-2.7s1.1-0.9,2-0.9c0.8,0,1.5,0.3,1.9,0.9s0.7,1.5,0.7,2.6V214.7z M19.4,213.2c0-1-0.2-1.7-0.5-2.2
				s-0.8-0.8-1.4-0.8c-0.6,0-1.1,0.2-1.4,0.7s-0.5,1.2-0.5,2.2v1.7c0,1,0.2,1.7,0.5,2.2s0.8,0.8,1.4,0.8c0.6,0,1.1-0.3,1.4-0.8
				s0.5-1.2,0.5-2.2V213.2z"/>
			<path class="st1" d="M22.1,211.4c0-0.5,0.2-0.9,0.5-1.3s0.7-0.5,1.2-0.5s0.9,0.2,1.2,0.5s0.5,0.8,0.5,1.3v0.4
				c0,0.5-0.2,0.9-0.5,1.3s-0.7,0.5-1.2,0.5c-0.5,0-0.9-0.2-1.2-0.5s-0.5-0.8-0.5-1.3V211.4z M22.6,211.8c0,0.4,0.1,0.7,0.3,0.9
				c0.2,0.2,0.5,0.4,0.8,0.4c0.3,0,0.6-0.1,0.8-0.4c0.2-0.2,0.3-0.5,0.3-0.9v-0.4c0-0.4-0.1-0.7-0.3-0.9c-0.2-0.2-0.5-0.4-0.8-0.4
				c-0.3,0-0.6,0.1-0.8,0.4c-0.2,0.2-0.3,0.5-0.3,0.9V211.8z M24,217.6l-0.4-0.3l4.2-6.7l0.4,0.3L24,217.6z M26.4,216.2
				c0-0.5,0.2-0.9,0.5-1.3s0.7-0.5,1.2-0.5s0.9,0.2,1.2,0.5s0.5,0.8,0.5,1.3v0.4c0,0.5-0.2,0.9-0.5,1.3s-0.7,0.5-1.2,0.5
				s-0.9-0.2-1.2-0.5s-0.5-0.8-0.5-1.3V216.2z M26.9,216.6c0,0.4,0.1,0.7,0.3,0.9c0.2,0.2,0.5,0.4,0.8,0.4c0.3,0,0.6-0.1,0.8-0.4
				c0.2-0.2,0.3-0.5,0.3-0.9v-0.4c0-0.4-0.1-0.7-0.3-0.9c-0.2-0.2-0.5-0.3-0.8-0.3c-0.3,0-0.6,0.1-0.8,0.3c-0.2,0.2-0.3,0.5-0.3,0.9
				V216.6z"/>
		</g>
		<g class="st0">
			<path class="st1" d="M20.1,156.7c0,1.2-0.2,2.1-0.7,2.7s-1.1,0.9-2,0.9c-0.8,0-1.5-0.3-1.9-0.9s-0.7-1.5-0.7-2.7v-1.5
				c0-1.2,0.2-2.1,0.7-2.7c0.4-0.6,1.1-0.9,2-0.9c0.8,0,1.5,0.3,1.9,0.9c0.4,0.6,0.7,1.5,0.7,2.6V156.7z M19.4,155.2
				c0-1-0.2-1.7-0.5-2.2s-0.8-0.8-1.4-0.8c-0.6,0-1.1,0.2-1.4,0.7s-0.5,1.2-0.5,2.2v1.7c0,1,0.2,1.7,0.5,2.2s0.8,0.8,1.4,0.8
				c0.6,0,1.1-0.3,1.4-0.8s0.5-1.2,0.5-2.2V155.2z"/>
			<path class="st1" d="M22.1,153.4c0-0.5,0.2-0.9,0.5-1.3c0.3-0.3,0.7-0.5,1.2-0.5s0.9,0.2,1.2,0.5c0.3,0.3,0.5,0.8,0.5,1.3v0.4
				c0,0.5-0.2,0.9-0.5,1.3s-0.7,0.5-1.2,0.5c-0.5,0-0.9-0.2-1.2-0.5s-0.5-0.8-0.5-1.3V153.4z M22.6,153.8c0,0.4,0.1,0.7,0.3,0.9
				c0.2,0.2,0.5,0.4,0.8,0.4c0.3,0,0.6-0.1,0.8-0.4c0.2-0.2,0.3-0.5,0.3-0.9v-0.4c0-0.4-0.1-0.7-0.3-0.9c-0.2-0.2-0.5-0.4-0.8-0.4
				c-0.3,0-0.6,0.1-0.8,0.4c-0.2,0.2-0.3,0.5-0.3,0.9V153.8z M24,159.6l-0.4-0.3l4.2-6.7l0.4,0.3L24,159.6z M26.4,158.2
				c0-0.5,0.2-0.9,0.5-1.3s0.7-0.5,1.2-0.5s0.9,0.2,1.2,0.5c0.3,0.3,0.5,0.8,0.5,1.3v0.4c0,0.5-0.2,0.9-0.5,1.3
				c-0.3,0.3-0.7,0.5-1.2,0.5s-0.9-0.2-1.2-0.5s-0.5-0.8-0.5-1.3V158.2z M26.9,158.6c0,0.4,0.1,0.7,0.3,0.9c0.2,0.2,0.5,0.4,0.8,0.4
				c0.3,0,0.6-0.1,0.8-0.4c0.2-0.2,0.3-0.5,0.3-0.9v-0.4c0-0.4-0.1-0.7-0.3-0.9c-0.2-0.2-0.5-0.3-0.8-0.3c-0.3,0-0.6,0.1-0.8,0.3
				c-0.2,0.2-0.3,0.5-0.3,0.9V158.6z"/>
		</g>
		<g class="st0">
			<path class="st1" d="M10.2,103.8H4.8v-0.5l2.9-3.3c0.5-0.6,0.8-1,1-1.4S9,97.8,9,97.5c0-0.5-0.2-1-0.5-1.3s-0.8-0.5-1.3-0.5
				c-0.6,0-1,0.2-1.4,0.6s-0.5,0.8-0.5,1.4H4.6c0-0.5,0.1-0.9,0.3-1.3s0.5-0.7,0.9-0.9s0.9-0.3,1.4-0.3c0.8,0,1.4,0.2,1.8,0.6
				s0.7,1,0.7,1.7c0,0.4-0.1,0.8-0.4,1.3s-0.7,1.1-1.3,1.8l-2.4,2.7h4.5V103.8z"/>
			<path class="st1" d="M12,105.4l-0.4-0.3c0.4-0.5,0.5-1,0.6-1.5v-0.9h0.7v0.7C12.9,104.2,12.6,104.9,12,105.4z"/>
			<path class="st1" d="M20.1,100.2c0,1.2-0.2,2.1-0.7,2.7s-1.1,0.9-2,0.9c-0.8,0-1.5-0.3-1.9-0.9s-0.7-1.5-0.7-2.7v-1.5
				c0-1.2,0.2-2.1,0.7-2.7s1.1-0.9,2-0.9c0.8,0,1.5,0.3,1.9,0.9s0.7,1.5,0.7,2.6V100.2z M19.4,98.7c0-1-0.2-1.7-0.5-2.2
				s-0.8-0.8-1.4-0.8c-0.6,0-1.1,0.2-1.4,0.7s-0.5,1.2-0.5,2.2v1.7c0,1,0.2,1.7,0.5,2.2s0.8,0.8,1.4,0.8c0.6,0,1.1-0.3,1.4-0.8
				s0.5-1.2,0.5-2.2V98.7z"/>
			<path class="st1" d="M22.1,96.9c0-0.5,0.2-0.9,0.5-1.3s0.7-0.5,1.2-0.5s0.9,0.2,1.2,0.5s0.5,0.8,0.5,1.3v0.4
				c0,0.5-0.2,0.9-0.5,1.3s-0.7,0.5-1.2,0.5c-0.5,0-0.9-0.2-1.2-0.5s-0.5-0.8-0.5-1.3V96.9z M22.6,97.3c0,0.4,0.1,0.7,0.3,0.9
				c0.2,0.2,0.5,0.4,0.8,0.4c0.3,0,0.6-0.1,0.8-0.4c0.2-0.2,0.3-0.5,0.3-0.9v-0.4c0-0.4-0.1-0.7-0.3-0.9c-0.2-0.2-0.5-0.4-0.8-0.4
				c-0.3,0-0.6,0.1-0.8,0.4c-0.2,0.2-0.3,0.5-0.3,0.9V97.3z M24,103.1l-0.4-0.3l4.2-6.7l0.4,0.3L24,103.1z M26.4,101.7
				c0-0.5,0.2-0.9,0.5-1.3s0.7-0.5,1.2-0.5s0.9,0.2,1.2,0.5s0.5,0.8,0.5,1.3v0.4c0,0.5-0.2,0.9-0.5,1.3s-0.7,0.5-1.2,0.5
				s-0.9-0.2-1.2-0.5s-0.5-0.8-0.5-1.3V101.7z M26.9,102.1c0,0.4,0.1,0.7,0.3,0.9c0.2,0.2,0.5,0.4,0.8,0.4c0.3,0,0.6-0.1,0.8-0.4
				c0.2-0.2,0.3-0.5,0.3-0.9v-0.4c0-0.4-0.1-0.7-0.3-0.9c-0.2-0.2-0.5-0.3-0.8-0.3c-0.3,0-0.6,0.1-0.8,0.3c-0.2,0.2-0.3,0.5-0.3,0.9
				V102.1z"/>
		</g>
		<g class="st0">
			<path class="st1" d="M9.1,37.5h1.3v0.6H9.1v2.2H8.4v-2.2h-4v-0.4l3.9-6h0.8V37.5z M5.3,37.5h3.2v-4.9l-0.3,0.5L5.3,37.5z"/>
			<path class="st1" d="M12,41.9l-0.4-0.3c0.4-0.5,0.5-1,0.6-1.5v-0.9h0.7v0.7C12.9,40.7,12.6,41.4,12,41.9z"/>
			<path class="st1" d="M20.1,36.7c0,1.2-0.2,2.1-0.7,2.7s-1.1,0.9-2,0.9c-0.8,0-1.5-0.3-1.9-0.9s-0.7-1.5-0.7-2.7v-1.5
				c0-1.2,0.2-2.1,0.7-2.7c0.4-0.6,1.1-0.9,2-0.9c0.8,0,1.5,0.3,1.9,0.9c0.4,0.6,0.7,1.5,0.7,2.6V36.7z M19.4,35.2
				c0-1-0.2-1.7-0.5-2.2s-0.8-0.8-1.4-0.8c-0.6,0-1.1,0.2-1.4,0.7s-0.5,1.2-0.5,2.2v1.7c0,1,0.2,1.7,0.5,2.2s0.8,0.8,1.4,0.8
				c0.6,0,1.1-0.3,1.4-0.8s0.5-1.2,0.5-2.2V35.2z"/>
			<path class="st1" d="M22.1,33.4c0-0.5,0.2-0.9,0.5-1.3c0.3-0.3,0.7-0.5,1.2-0.5s0.9,0.2,1.2,0.5c0.3,0.3,0.5,0.8,0.5,1.3v0.4
				c0,0.5-0.2,0.9-0.5,1.3s-0.7,0.5-1.2,0.5c-0.5,0-0.9-0.2-1.2-0.5s-0.5-0.8-0.5-1.3V33.4z M22.6,33.8c0,0.4,0.1,0.7,0.3,0.9
				c0.2,0.2,0.5,0.4,0.8,0.4c0.3,0,0.6-0.1,0.8-0.4c0.2-0.2,0.3-0.5,0.3-0.9v-0.4c0-0.4-0.1-0.7-0.3-0.9c-0.2-0.2-0.5-0.4-0.8-0.4
				c-0.3,0-0.6,0.1-0.8,0.4c-0.2,0.2-0.3,0.5-0.3,0.9V33.8z M24,39.6l-0.4-0.3l4.2-6.7l0.4,0.3L24,39.6z M26.4,38.2
				c0-0.5,0.2-0.9,0.5-1.3s0.7-0.5,1.2-0.5s0.9,0.2,1.2,0.5s0.5,0.8,0.5,1.3v0.4c0,0.5-0.2,0.9-0.5,1.3s-0.7,0.5-1.2,0.5
				s-0.9-0.2-1.2-0.5s-0.5-0.8-0.5-1.3V38.2z M26.9,38.6c0,0.4,0.1,0.7,0.3,0.9c0.2,0.2,0.5,0.4,0.8,0.4c0.3,0,0.6-0.1,0.8-0.4
				c0.2-0.2,0.3-0.5,0.3-0.9v-0.4c0-0.4-0.1-0.7-0.3-0.9c-0.2-0.2-0.5-0.3-0.8-0.3c-0.3,0-0.6,0.1-0.8,0.3c-0.2,0.2-0.3,0.5-0.3,0.9
				V38.6z"/>
		</g>
		<g class="st0">
			<path class="st1" d="M5.3,5.9l0.4-4.2H10v0.7H6.3L6,5.3C6.5,5,7,4.8,7.6,4.8c0.8,0,1.4,0.3,1.8,0.8s0.7,1.2,0.7,2
				c0,0.9-0.2,1.6-0.7,2.1s-1.1,0.7-1.9,0.7c-0.7,0-1.3-0.2-1.8-0.6S5.1,8.8,5,8h0.7C5.8,8.6,6,9,6.3,9.3s0.8,0.4,1.3,0.4
				c0.6,0,1.1-0.2,1.4-0.6s0.5-0.9,0.5-1.7c0-0.6-0.2-1.1-0.5-1.5S8.1,5.4,7.5,5.4c-0.3,0-0.6,0-0.9,0.1S6.1,5.8,5.9,6.1L5.3,5.9z"
				/>
			<path class="st1" d="M12,11.9l-0.4-0.3c0.4-0.5,0.5-1,0.6-1.5V9.2h0.7v0.7C12.9,10.7,12.6,11.4,12,11.9z"/>
			<path class="st1" d="M18.2,10.3h-0.7V2.6l-2.3,0.9V2.8l2.9-1.1h0.1V10.3z"/>
			<path class="st1" d="M22.1,3.4c0-0.5,0.2-0.9,0.5-1.3s0.7-0.5,1.2-0.5s0.9,0.2,1.2,0.5s0.5,0.8,0.5,1.3v0.4
				c0,0.5-0.2,0.9-0.5,1.3s-0.7,0.5-1.2,0.5c-0.5,0-0.9-0.2-1.2-0.5s-0.5-0.8-0.5-1.3V3.4z M22.6,3.8c0,0.4,0.1,0.7,0.3,0.9
				c0.2,0.2,0.5,0.4,0.8,0.4c0.3,0,0.6-0.1,0.8-0.4c0.2-0.2,0.3-0.5,0.3-0.9V3.4c0-0.4-0.1-0.7-0.3-0.9c-0.2-0.2-0.5-0.4-0.8-0.4
				c-0.3,0-0.6,0.1-0.8,0.4c-0.2,0.2-0.3,0.5-0.3,0.9V3.8z M24,9.6l-0.4-0.3l4.2-6.7l0.4,0.3L24,9.6z M26.4,8.2
				c0-0.5,0.2-0.9,0.5-1.3s0.7-0.5,1.2-0.5s0.9,0.2,1.2,0.5s0.5,0.8,0.5,1.3v0.4c0,0.5-0.2,0.9-0.5,1.3s-0.7,0.5-1.2,0.5
				s-0.9-0.2-1.2-0.5s-0.5-0.8-0.5-1.3V8.2z M26.9,8.6c0,0.4,0.1,0.7,0.3,0.9c0.2,0.2,0.5,0.4,0.8,0.4c0.3,0,0.6-0.1,0.8-0.4
				C29,9.3,29.1,9,29.1,8.6V8.2c0-0.4-0.1-0.7-0.3-0.9C28.6,7,28.4,6.9,28,6.9c-0.3,0-0.6,0.1-0.8,0.3c-0.2,0.2-0.3,0.5-0.3,0.9V8.6
				z"/>
		</g>
		<line class="st2" x1="37.2" y1="36.4" x2="272.9" y2="36.4"/>
		<line class="st2" x1="37.2" y1="98" x2="272.9" y2="98"/>
		<line class="st2" x1="37.2" y1="155.8" x2="272.9" y2="155.8"/>
		<line class="st2" x1="37.2" y1="213.6" x2="272.9" y2="213.6"/>
		<line class="st2" x1="50.3" y1="5.2" x2="50.3" y2="241.3"/>
		<line class="st2" x1="84.4" y1="5.2" x2="84.4" y2="241.3"/>
		<line class="st2" x1="118.6" y1="5.2" x2="118.6" y2="241.3"/>
		<line class="st2" x1="152.7" y1="5.2" x2="152.7" y2="241.3"/>
		<line class="st2" x1="186.9" y1="5.2" x2="186.9" y2="241.3"/>
		<line class="st2" x1="221.1" y1="5.2" x2="221.1" y2="241.3"/>
		<line class="st2" x1="255.2" y1="5.2" x2="255.2" y2="241.3"/>
		<polyline class="st3" points="37.2,155.8 40.8,5.2 43.5,170.4 52.7,170.4 55.3,179.7 58.8,168.8 61.1,146 64,155.8 70.4,155.8 
			73,151.4 76,179.7 78.9,179.7 82.1,155.8 85,179.7 90.7,179.7 93.7,197.6 99.8,155.8 102.5,143.3 111.4,141.1 114.5,120 
			118.6,125.4 123.3,140 125.8,134.6 131.9,133.5 137.9,155.8 140.8,175.3 143.8,174.8 146.4,188.4 152.7,188.9 155.4,181.3 
			158.4,189.4 161.6,174.2 164.5,194.3 173.6,193.2 176.1,203 178.9,241.3 184.5,193.2 190.6,181.8 194.1,181.3 196.5,186.2 
			202.6,184.6 208.5,161.8 217.3,162.3 220.1,171 223.2,155.8 229.2,105.3 235.4,102.6 238.3,112.9 241.1,86.3 247.1,66.2 
			249.6,52.1 255.6,52.1 258.3,36.4 262.9,36.4 264.6,31.5 270.5,47.2 272.9,47.2 		"/>
	</g>
</g>
</svg>
