<svg xmlns="http://www.w3.org/2000/svg" viewBox="0 0 32.08 29.53"><defs><style>.cls-1{fill:#fff;}</style></defs><title>Ресурс 6</title><g id="Слой_2" data-name="Слой 2"><g id="Content"><path class="cls-1" d="M21.93,13.54a.66.66,0,0,0-.72-.44l-3,.51a8.47,8.47,0,0,0-1-1.27L18.26,9.5a.66.66,0,0,0-.3-.8L15.58,7.43a.66.66,0,0,0-.83.19L13,10.11A8,8,0,0,0,11.36,10L10.12,7.16a.66.66,0,0,0-.77-.35L6.76,7.6a.66.66,0,0,0-.45.72l.51,3a7.92,7.92,0,0,0-1.26,1L2.71,11.27a.65.65,0,0,0-.79.3L.64,14a.65.65,0,0,0,.2.83l2.48,1.76a8,8,0,0,0-.16,1.63L.38,19.41a.66.66,0,0,0-.35.77l.78,2.59a.67.67,0,0,0,.72.45l3-.51a7.86,7.86,0,0,0,1,1.26L4.48,26.82a.66.66,0,0,0,.3.79l2.39,1.28a.64.64,0,0,0,.82-.2l1.76-2.48a8.12,8.12,0,0,0,1.63.16l1.25,2.78a.65.65,0,0,0,.77.35L16,28.72a.66.66,0,0,0,.44-.72l-.51-3a8.41,8.41,0,0,0,1.27-1L20,25.05a.68.68,0,0,0,.8-.3l1.27-2.39a.65.65,0,0,0-.19-.82l-2.49-1.76a8.12,8.12,0,0,0,.16-1.63l2.79-1.25a.66.66,0,0,0,.35-.77ZM12.8,22.87a4.92,4.92,0,1,1,3.28-6.14A4.92,4.92,0,0,1,12.8,22.87Zm1.93-5.73a3.51,3.51,0,1,1-4.38-2.34A3.51,3.51,0,0,1,14.73,17.14ZM31.84,9.35,30.11,8.22a5.88,5.88,0,0,0,0-1.11A5.65,5.65,0,0,0,29.88,6l1.46-1.45a.56.56,0,0,0,.06-.71l-.94-1.31a.57.57,0,0,0-.7-.16l-1.84.93a5.52,5.52,0,0,0-2-.91l-.53-2A.58.58,0,0,0,24.78,0l-1.6.17a.56.56,0,0,0-.49.51l-.11,2.07a5.29,5.29,0,0,0-1.8,1.3l-2-.54a.58.58,0,0,0-.65.3l-.66,1.47a.59.59,0,0,0,.2.69l1.73,1.12a7,7,0,0,0,0,1.12,5.55,5.55,0,0,0,.23,1.09l-1.46,1.46a.57.57,0,0,0-.06.71l.95,1.3a.56.56,0,0,0,.69.17L21.6,12a5.5,5.5,0,0,0,2,.9l.54,2a.55.55,0,0,0,.58.4l1.6-.16a.56.56,0,0,0,.49-.52L27,12.57a5.29,5.29,0,0,0,1.79-1.3l2,.54a.55.55,0,0,0,.64-.31L32,10A.57.57,0,0,0,31.84,9.35Zm-6.79,1.14A2.85,2.85,0,1,1,27.6,7.37,2.84,2.84,0,0,1,25.05,10.49Z"/></g></g></svg>