<svg xmlns="http://www.w3.org/2000/svg" viewBox="0 0 25.93 29.53"><defs><style>.cls-1{fill:#fff;}.cls-2{fill:none;stroke:#fff;stroke-miterlimit:10;stroke-width:0.5px;}</style></defs><title>Ресурс 8</title><g id="Слой_2" data-name="Слой 2"><g id="Content"><g id="Слой_2-2" data-name="Слой 2"><g id="Content-2" data-name="Content"><path class="cls-1" d="M5.46,15.74h-.7V16.8a.55.55,0,0,1-.1.35.36.36,0,0,1-.27.12.36.36,0,0,1-.28-.12A.48.48,0,0,1,4,16.81V13.92a.48.48,0,0,1,.12-.36.52.52,0,0,1,.36-.11h1a2.15,2.15,0,0,1,.67.07,1,1,0,0,1,.65.57,1.18,1.18,0,0,1,.08.49,1,1,0,0,1-.35.86A1.58,1.58,0,0,1,5.46,15.74ZM5.28,14H4.76v1.15h.52a1.74,1.74,0,0,0,.45-.06A.57.57,0,0,0,6,14.93a.58.58,0,0,0,.09-.34.53.53,0,0,0-.14-.4A1,1,0,0,0,5.28,14Z"/><path class="cls-1" d="M8,13.45H9a2.47,2.47,0,0,1,.66.07,1.26,1.26,0,0,1,.51.27,1.88,1.88,0,0,1,.58,1.53,3.15,3.15,0,0,1-.06.61,1.55,1.55,0,0,1-.18.51,2,2,0,0,1-.31.4,1.15,1.15,0,0,1-.33.21,1.27,1.27,0,0,1-.39.12H8a.59.59,0,0,1-.32-.06A.26.26,0,0,1,7.54,17a1.41,1.41,0,0,1,0-.29V13.92a.44.44,0,0,1,.11-.36A.49.49,0,0,1,8,13.45Zm.3.6V16.6h.87l.22-.05a.82.82,0,0,0,.2-.12A1.42,1.42,0,0,0,10,15.32a1.59,1.59,0,0,0-.17-.83.68.68,0,0,0-.41-.35,2,2,0,0,0-.59-.08Z"/><path class="cls-1" d="M13.62,14h-1.5v1h1.26a.41.41,0,0,1,.26.07.32.32,0,0,1,.08.21.27.27,0,0,1-.09.21.33.33,0,0,1-.25.08H12.12V16.8a.48.48,0,0,1-.1.35.36.36,0,0,1-.27.12.36.36,0,0,1-.28-.12.49.49,0,0,1-.11-.35V13.92a.86.86,0,0,1,.05-.27.29.29,0,0,1,.16-.15.58.58,0,0,1,.26-.05h1.79a.38.38,0,0,1,.27.08.27.27,0,0,1,.09.21.31.31,0,0,1-.09.22A.42.42,0,0,1,13.62,14Z"/><path class="cls-2" d="M3.85,10.57V2.1A1.85,1.85,0,0,1,5.7.25H17.85l7.83,7.53V27.42a1.85,1.85,0,0,1-1.84,1.86H5.7a1.85,1.85,0,0,1-1.85-1.85h0V20.14"/><path class="cls-2" d="M25.68,7.8H19.25a1.42,1.42,0,0,1-1.4-1.43V.25"/><rect class="cls-2" x="0.25" y="10.57" width="17.48" height="9.57" rx="2.38" ry="2.38"/></g></g></g></g></svg>