<svg xmlns="http://www.w3.org/2000/svg" viewBox="0 0 38.52 60"><defs><style>.cls-1{fill:#b92c32;}</style></defs><title>Ресурс 6</title><g id="Слой_2" data-name="Слой 2"><g id="Content"><path class="cls-1" d="M19.26,0c4.09,0,5.37,2.93,6.44,5.85C26.16,7.09,36.77,36.15,37.09,37a.61.61,0,0,1-.35.79l-6.19,2.4a.59.59,0,0,1-.76-.36c-.12-.3-2.4-6.63-2.66-7.34H11.41c-.26.71-2.57,7.05-2.68,7.34a.58.58,0,0,1-.75.36l-6.19-2.4A.61.61,0,0,1,1.44,37C1.83,35.93,12.28,7.34,12.81,5.85,13.84,3,15.18,0,19.26,0ZM.6,52a.6.6,0,0,0-.6.61v6.79A.6.6,0,0,0,.6,60H37.93a.6.6,0,0,0,.59-.61V52.6a.6.6,0,0,0-.59-.61ZM19.23,9.49l-5.32,16H24.63l-5.34-16Z"/></g></g></svg>