<svg xmlns="http://www.w3.org/2000/svg" viewBox="0 0 62.47 60"><defs><style>.cls-1{fill:#4d824d;fill-rule:evenodd;}</style></defs><title>Ресурс 5</title><g id="Слой_2" data-name="Слой 2"><g id="Content"><path class="cls-1" d="M19,17.83,47,1.79A30.23,30.23,0,0,0,43.42,0L19.25,13.9l-11-6.32A32.48,32.48,0,0,0,6,10.38Z"/><path class="cls-1" d="M19,25.68,52.8,6.18a30.82,30.82,0,0,0-2.68-2.29L19,21.76,4.16,13.18a33.48,33.48,0,0,0-1.54,3.05Z"/><path class="cls-1" d="M19,33.54l38.26-22a29,29,0,0,0-2-2.76L19,29.61,1.41,19.46a30.68,30.68,0,0,0-.86,3.46Z"/><path class="cls-1" d="M19,37.46.08,26.58C0,27.3,0,28,0,28.77A31.24,31.24,0,1,0,59,14.49Z"/></g></g></svg>