<svg xmlns="http://www.w3.org/2000/svg" viewBox="0 0 41.96 51"><defs><style>.cls-1{fill:none;stroke:#fff;stroke-miterlimit:10;}</style></defs><title>Ресурс 3</title><g id="Слой_2" data-name="Слой 2"><g id="Content"><path class="cls-1" d="M28,31.35a2.71,2.71,0,0,1,3.37,2.51m-3.44-1.62c1.62-.18,3.47,2,1.8,4.33M27.59,32.8c1.53.54,2.26,3.09.24,4.88M26.9,33.3c1.19,1.1,1,3.33-1.6,4.74m.81-4.55c.44,1.75-.79,3.6-4.22,3.72m3.18-3.84c-.3,1.81-2.32,3-5.37,2.19m4.49-2.73c-1.15,1.81-4,1.46-6.16-.3m5.53-.66c-1.71,1.28-4.44-.16-5.87-2.58m5.66,1.32c-2.08.56-4.38-1.32-4.79-4.45m5.15,3.13c-2.29-.12-3.9-2.44-3.05-5.95m3.79,5c-2.44-1.12-2.29-4.73-.8-6.95m2.13,6.17C24,25.33,25.24,22,28.17,20.73m-.67,6.73c-1.12-3.25,1.27-5.55,5.5-5.79m-4.08,6.14c.44-3.27,3.78-5,8.16-3.77M30.53,29c1.37-3.3,6-3.1,9.9-.13m-8.93,2.1c2.91-2.22,8.61-.94,10,3.78m-10-1.37c2.67-.76,5.49-.14,7,1.74s1.62,5.12.85,7.35m-8.67-7a5.44,5.44,0,0,1,6.77,4.38,9.11,9.11,0,0,1-1.69,6.69m-6.85-9.31C36.21,40.61,34,46.34,28.57,50M25.73,38c3.7,2,3.33,5.86,1.78,8.34-1.4,2.25-5,3.61-7.8,3.71m2.81-12.61c2.52,3.88.17,7.22-2.73,8.64a11.73,11.73,0,0,1-10.45-.56M19.52,35.35c1.09,4.87-2.63,7.06-5.16,7.38-4.52.58-10-1.26-11.89-5.88M17.9,32c-.2,2.9-2.86,5.23-5.22,5.88-4.4,1.2-9.82-2-11.89-7M29,20.85s2.12-5.28,1-9.48C28.76,6.72,28.93,3.77,31.41.5,15.59.49.5,11,.5,27c0,15.1,12,23.5,23.66,23.5,9.19,0,17.3-6.37,17.3-15.78,0-8.55-5.56-14-14.25-14a9.6,9.6,0,0,0-9.55,9.14c0,5.09,3.55,8.19,7.93,8.19a5.72,5.72,0,0,0,6-6,4.51,4.51,0,0,0-4.81-4.67,3.48,3.48,0,0,0-3.46,3.3,2.61,2.61,0,0,0,2.44,2.8A2,2,0,0,0,28,31.67c0-1.8-2.25-1.75-2.25-.66"/></g></g></svg>