<svg xmlns="http://www.w3.org/2000/svg" viewBox="0 0 37.44 51.37"><defs><style>.cls-1{fill:none;stroke:#666;stroke-miterlimit:10;stroke-width:0.75px;}</style></defs><title>Ресурс 3</title><g id="Слой_2" data-name="Слой 2"><g id="Head"><g id="menu"><path class="cls-1" d="M19.82,25.91V23.77a3,3,0,0,0-1.43-2.38l-4-2.13a.93.93,0,0,1-.12-1.71l.31-.22a3.58,3.58,0,0,0,1.31-2.57V13a2.62,2.62,0,0,0-1.5-2.25l-.9-.38h-2l-.9.38A2.62,2.62,0,0,0,9.07,13v1.79a3.58,3.58,0,0,0,1.31,2.57l.31.22a.93.93,0,0,1-.12,1.71l-4,2.13a3,3,0,0,0-1.43,2.38v2.14"/><path class="cls-1" d="M25.45.38V11a.87.87,0,0,0,.87.86H37.07"/><polygon class="cls-1" points="37.07 50.99 0.38 50.99 0.38 0.38 25.45 0.38 37.07 11.83 37.07 50.99"/><line class="cls-1" x1="5.2" y1="37.51" x2="32.51" y2="37.51"/><line class="cls-1" x1="5.2" y1="32.87" x2="32.51" y2="32.87"/><line class="cls-1" x1="5.2" y1="42.16" x2="17.73" y2="42.16"/></g></g></g></svg>