<svg xmlns="http://www.w3.org/2000/svg" viewBox="0 0 183.49 55.3"><defs><style>.cls-1{fill:#e69724;}.cls-1,.cls-2{fill-rule:evenodd;}</style></defs><title>Ресурс 10</title><g id="Слой_2" data-name="Слой 2"><g id="Content"><path class="cls-1" d="M113.83,43.24C103.17,51.11,87.72,55.3,74.41,55.3A71.32,71.32,0,0,1,26.25,36.92c-1-.9-.11-2.13,1.09-1.43A96.92,96.92,0,0,0,75.53,48.27a95.93,95.93,0,0,0,36.76-7.52C114.09,40,115.6,41.94,113.83,43.24Z"/><path class="cls-1" d="M118.27,38.18c-1.36-1.75-9-.83-12.45-.42-1,.13-1.2-.78-.26-1.44,6.1-4.29,16.1-3,17.26-1.61s-.31,11.47-6,16.25c-.88.74-1.71.35-1.32-.63C116.75,47.12,119.64,39.93,118.27,38.18Z"/><path class="cls-2" d="M106.06,6V1.87A1,1,0,0,1,107.12.82h18.67a1,1,0,0,1,1.07,1.05V5.44c0,.6-.51,1.38-1.4,2.62l-9.67,13.81a20.65,20.65,0,0,1,10.64,2.29,1.87,1.87,0,0,1,1,1.62v4.45c0,.61-.67,1.32-1.37.95a21.51,21.51,0,0,0-19.72,0c-.65.35-1.33-.35-1.33-1V26a5,5,0,0,1,.69-2.86L116.9,7.09h-9.76A1.05,1.05,0,0,1,106.06,6Z"/><path class="cls-2" d="M38,32.05H32.29a1.06,1.06,0,0,1-1-1V2a1.07,1.07,0,0,1,1.1-1h5.28a1.06,1.06,0,0,1,1,1V5.68h.1c1.38-3.68,4-5.4,7.48-5.4S52.06,2,53.65,5.68A8.39,8.39,0,0,1,68.07,3.47c1.8,2.45,1.43,6,1.43,9.14V31a1.07,1.07,0,0,1-1.09,1H62.72a1.05,1.05,0,0,1-1-1V15.55a36.53,36.53,0,0,0-.16-5.45c-.42-2-1.69-2.52-3.33-2.52A3.78,3.78,0,0,0,54.81,10c-.58,1.47-.53,3.93-.53,5.58V31a1.07,1.07,0,0,1-1.09,1H47.51a1,1,0,0,1-1-1V15.55c0-3.25.53-8-3.5-8s-3.92,4.66-3.92,8V31A1.07,1.07,0,0,1,38,32.05Z"/><path class="cls-2" d="M142.93.28c8.43,0,13,7.24,13,16.44,0,8.89-5,16-13,16-8.27,0-12.77-7.24-12.77-16.26S134.72.28,142.93.28Zm.06,6c-4.19,0-4.46,5.71-4.46,9.26s-.05,11.17,4.4,11.17,4.61-6.14,4.61-9.88a27.06,27.06,0,0,0-.84-7.73A3.56,3.56,0,0,0,143,6.23Z"/><path class="cls-2" d="M166.85,32.05h-5.66a1.05,1.05,0,0,1-1-1V1.85a1.08,1.08,0,0,1,1.1-.95h5.26a1.06,1.06,0,0,1,1,.81V6.17h.11c1.59-4,3.82-5.89,7.74-5.89A7.45,7.45,0,0,1,182,3.72c1.48,2.33,1.48,6.25,1.48,9.07V31.13a1.08,1.08,0,0,1-1.09.92h-5.69a1.06,1.06,0,0,1-1-.92V15.31c0-3.19.37-7.85-3.55-7.85a3.71,3.71,0,0,0-3.29,2.33,12.89,12.89,0,0,0-.9,5.52V31A1.08,1.08,0,0,1,166.85,32.05Z"/><path class="cls-2" d="M91.18,18.13c0,2.22.06,4.06-1.06,6a4.61,4.61,0,0,1-3.93,2.58c-2.18,0-3.46-1.66-3.46-4.12,0-4.84,4.34-5.72,8.45-5.72ZM96.91,32a1.16,1.16,0,0,1-1.34.13,13.86,13.86,0,0,1-3.26-3.78C89.19,31.5,87,32.46,83,32.46c-4.78,0-8.5-2.95-8.5-8.86a9.64,9.64,0,0,1,6-9.28c3.08-1.35,7.39-1.6,10.68-2v-.74c0-1.35.11-2.95-.69-4.12A3.79,3.79,0,0,0,87.3,6a4.32,4.32,0,0,0-4.56,3.41,1.2,1.2,0,0,1-1,1.05l-5.5-.6A1,1,0,0,1,75.4,8.7C76.67,2,82.7,0,88.1,0c2.76,0,6.38.74,8.55,2.83,2.77,2.58,2.5,6,2.5,9.77v8.85c0,2.66,1.11,3.83,2.14,5.26a1.07,1.07,0,0,1,0,1.51c-1.16,1-3.22,2.76-4.36,3.77Z"/><path class="cls-2" d="M16.73,18.13c0,2.22.06,4.06-1.06,6a4.61,4.61,0,0,1-3.93,2.58c-2.18,0-3.45-1.66-3.45-4.12,0-4.84,4.34-5.72,8.44-5.72ZM22.46,32a1.16,1.16,0,0,1-1.34.13,13.86,13.86,0,0,1-3.26-3.78c-3.11,3.17-5.32,4.13-9.36,4.13C3.72,32.46,0,29.51,0,23.6a9.65,9.65,0,0,1,6.06-9.28c3.08-1.35,7.38-1.6,10.67-2v-.74c0-1.35.11-2.95-.69-4.12A3.78,3.78,0,0,0,12.86,6,4.33,4.33,0,0,0,8.29,9.43a1.2,1.2,0,0,1-1,1.05l-5.5-.6A1,1,0,0,1,1,8.7C2.22,2,8.25,0,13.65,0c2.77,0,6.38.74,8.56,2.83,2.76,2.58,2.49,6,2.49,9.77v8.85c0,2.66,1.11,3.83,2.15,5.26a1.08,1.08,0,0,1,0,1.51c-1.16,1-3.22,2.76-4.36,3.77Z"/></g></g></svg>