<svg xmlns="http://www.w3.org/2000/svg" viewBox="0 0 466.42 466.41"><defs><style>.cls-1{fill:#e5dc3b;}.cls-1,.cls-2,.cls-3,.cls-4,.cls-5,.cls-6,.cls-7,.cls-8{stroke:#fff;stroke-miterlimit:10;stroke-width:3px;}.cls-2{fill:#00a1a7;}.cls-3{fill:#00b453;}.cls-4{fill:#9b6d8c;}.cls-5{fill:#28a8c6;}.cls-6{fill:#347272;}.cls-7{fill:#dbadc7;}.cls-8{fill:#36ad8a;}</style></defs><title>Ресурс 11</title><g id="Слой_2" data-name="Слой 2"><g id="Content"><path class="cls-1" d="M28.55,233.2A205.32,205.32,0,0,1,33,190.4L7,184.87c-7.58,35.64-7.33,64.7.87,100.2l25.86-6A205.27,205.27,0,0,1,28.55,233.2Z"/><path class="cls-2" d="M233.42,1.5v27c112.94.12,204.46,91.7,204.46,204.66A203.78,203.78,0,0,1,394.67,359l21.18,16.54c33.69-43.12,49.07-87.8,49.07-142.52C464.92,105.14,361.28,1.5,233.42,1.5Z"/><path class="cls-3" d="M233.21,437.87a205.62,205.62,0,0,1-42.4-4.41l-5.52,26c89.29,19,174.35-12,230.56-83.92L394.67,359A204.31,204.31,0,0,1,233.21,437.87Z"/><path class="cls-4" d="M33.72,279.1l-25.86,6C28.39,374,96,440.46,185.29,459.44l5.52-26A204.94,204.94,0,0,1,33.72,279.1Z"/><path class="cls-5" d="M47.81,146.44,23.62,135.16A223,223,0,0,0,7,184.87L33,190.4A203,203,0,0,1,47.81,146.44Z"/><path class="cls-6" d="M72.11,107,51,90.47a223.5,223.5,0,0,0-27.38,44.69l24.19,11.28A204.41,204.41,0,0,1,72.11,107Z"/><path class="cls-7" d="M143.73,49.09,131.94,24.93C99.19,40.9,73.43,61.76,51,90.47L72.11,107A205.53,205.53,0,0,1,143.73,49.09Z"/><path class="cls-8" d="M233.21,28.54h.21V1.5C197,1.5,164.69,9,131.94,24.93l11.79,24.16A203.85,203.85,0,0,1,233.21,28.54Z"/></g></g></svg>