<svg xmlns="http://www.w3.org/2000/svg" viewBox="0 0 253 252.99"><defs><style>.cls-1{fill:#00b453;}.cls-1,.cls-2,.cls-3{stroke:#fff;stroke-miterlimit:10;stroke-width:3px;}.cls-2{fill:#9b6d8c;}.cls-3{fill:#00a1a7;}</style></defs><title>Ресурс 12</title><g id="Слой_2" data-name="Слой 2"><g id="Content"><path class="cls-1" d="M126.61,1.5V16.09a110.41,110.41,0,0,1,87,178.26L225,203.27C243.2,180,251.5,155.91,251.5,126.39A124.88,124.88,0,0,0,126.61,1.5Z"/><path class="cls-2" d="M213.6,194.35A110.42,110.42,0,0,1,18.88,151.26L4.93,154.48c11.08,48,47.55,83.82,95.72,94.06s94.06-6.46,124.38-45.27Z"/><path class="cls-3" d="M71.87,14.14A124.82,124.82,0,0,0,13.43,73.61a120.6,120.6,0,0,0-9,26.81c-4.09,19.23-3.95,34.9.47,54.06l14-3.22a111.1,111.1,0,0,1-.36-47.85,109.4,109.4,0,0,1,8-23.72A110.65,110.65,0,0,1,78.23,27.18,109.82,109.82,0,0,1,126.5,16.09h.11V1.5A120.61,120.61,0,0,0,71.87,14.14Z"/></g></g></svg>