<svg xmlns="http://www.w3.org/2000/svg" viewBox="0 0 253 252.99"><defs><style>.cls-1{fill:#36ad8a;}.cls-1,.cls-2{stroke:#fff;stroke-miterlimit:10;stroke-width:3px;}.cls-2{fill:#dbadc7;}</style></defs><title>Ресурс 14</title><g id="Слой_2" data-name="Слой 2"><g id="Content"><path class="cls-1" d="M126.61,1.5V16.09a110.41,110.41,0,1,1-23,218.44l-3,14c48.17,10.24,94.06-6.46,124.38-45.27C243.2,180,251.5,155.9,251.5,126.38A124.88,124.88,0,0,0,126.61,1.5Z"/><path class="cls-2" d="M71.87,14.14A124.82,124.82,0,0,0,13.43,73.61a120.6,120.6,0,0,0-9,26.81c-4.09,19.23-3.95,34.9.47,54.06,11.08,48,47.55,83.82,95.72,94.06l3-14A110.48,110.48,0,0,1,18.52,103.41a109.4,109.4,0,0,1,8-23.72A110.65,110.65,0,0,1,78.23,27.18,109.82,109.82,0,0,1,126.5,16.09h.11V1.5A120.61,120.61,0,0,0,71.87,14.14Z"/></g></g></svg>