<svg xmlns="http://www.w3.org/2000/svg" viewBox="0 0 1280.35 272.02"><defs><style>.cls-1{font-size:12px;fill:#666;font-family:Roboto-Light, Roboto;font-weight:300;letter-spacing:0.05em;}.cls-2,.cls-3{fill:none;stroke-miterlimit:10;}.cls-2{stroke:#cccece;}.cls-3{stroke:#00a19b;}</style></defs><title>Ресурс 15</title><g id="Слой_2" data-name="Слой 2"><g id="Content"><text class="cls-1" transform="translate(0 241.27)">-2,9%</text><text class="cls-1" transform="translate(96.49 268.77)">12.11.18</text><text class="cls-1" transform="translate(274.26 268.77)">23.11.18</text><text class="cls-1" transform="translate(452.04 268.77)">05.12.18</text><text class="cls-1" transform="translate(629.81 268.77)">17.12.18</text><text class="cls-1" transform="translate(807.58 268.77)">28.12.18</text><text class="cls-1" transform="translate(985.35 268.77)">09.01.19</text><text class="cls-1" transform="translate(1163.13 268.77)">20.01.19</text><text class="cls-1" transform="translate(0 218.27)">-2,0%</text><text class="cls-1" transform="translate(14.18 160.27)">0%</text><text class="cls-1" transform="translate(4.03 103.77)">2,0%</text><text class="cls-1" transform="translate(4.03 40.27)">4,0%</text><text class="cls-1" transform="translate(4.03 10.27)">5,1%</text><line class="cls-2" x1="53.61" y1="36.38" x2="1280.35" y2="36.38"/><line class="cls-2" x1="53.61" y1="97.98" x2="1280.35" y2="97.98"/><line class="cls-2" x1="53.61" y1="155.78" x2="1280.35" y2="155.78"/><line class="cls-2" x1="53.61" y1="213.59" x2="1280.35" y2="213.59"/><line class="cls-2" x1="121.71" y1="5.17" x2="121.71" y2="241.27"/><line class="cls-2" x1="299.48" y1="5.17" x2="299.48" y2="241.27"/><line class="cls-2" x1="477.25" y1="5.17" x2="477.25" y2="241.27"/><line class="cls-2" x1="655.02" y1="5.17" x2="655.02" y2="241.27"/><line class="cls-2" x1="832.8" y1="5.17" x2="832.8" y2="241.27"/><line class="cls-2" x1="1010.57" y1="5.17" x2="1010.57" y2="241.27"/><line class="cls-2" x1="1188.34" y1="5.17" x2="1188.34" y2="241.27"/><polyline class="cls-3" points="53.61 155.78 72.33 5.17 86.36 170.44 134.18 170.44 148.22 179.66 166.41 168.81 178.37 146.01 193.44 155.78 226.71 155.78 240.22 151.44 255.82 179.66 270.89 179.66 287.52 155.78 302.6 179.66 332.23 179.66 347.82 197.57 379.53 155.78 393.56 143.3 439.83 141.13 455.94 119.96 477.25 125.39 501.68 140.04 514.68 134.62 546.39 133.53 578.09 155.78 592.65 175.32 608.24 174.78 622.28 188.35 655.02 188.89 669.06 181.29 684.65 189.43 701.29 174.24 716.36 194.32 763.66 193.23 776.66 203 791.21 241.27 820.32 193.23 852.03 181.84 870.22 181.29 882.7 186.18 914.26 184.55 945.08 161.75 990.82 162.3 1005.37 170.98 1021.49 155.78 1052.67 105.31 1084.9 102.59 1100.5 112.91 1115.05 86.31 1146.24 66.23 1159.23 52.12 1190.42 52.12 1204.46 36.38 1228.37 36.38 1237.2 31.49 1267.87 47.23 1280.35 47.23"/></g></g></svg>