<svg xmlns="http://www.w3.org/2000/svg" viewBox="0 0 150 107.59"><defs><style>.cls-1{fill:#5c9e38;fill-rule:evenodd;}</style></defs><title>Ресурс 16</title><g id="Слой_2" data-name="Слой 2"><g id="Content"><polygon class="cls-1" points="0.02 106.65 0.02 105.57 149.98 105.57 149.98 107.59 0.02 107.59 0.02 106.65 0.02 106.65"/><path class="cls-1" d="M15,98.1a9,9,0,0,1-1.08.4,9.29,9.29,0,0,1-1.31.28,12.25,12.25,0,0,1-1.7.1,6,6,0,0,1-3.08-.71A5,5,0,0,1,6,96.23a8.72,8.72,0,0,1-.93-2.92,25.64,25.64,0,0,1-.25-3.65c0-1,0-2,.15-3.1a9,9,0,0,1,.7-2.83,5.12,5.12,0,0,1,1.66-2,4.92,4.92,0,0,1,3-.79,4.83,4.83,0,0,1,3,.93,4.11,4.11,0,0,1,1.55,2.81h1.29v-4.1a8,8,0,0,0-1.31-.45,12.64,12.64,0,0,0-1.58-.3c-.55-.07-1.09-.12-1.62-.16s-1-.06-1.44-.06a12.86,12.86,0,0,0-4.62.74,7.82,7.82,0,0,0-3.14,2.13A8.87,8.87,0,0,0,.58,85.85,16.43,16.43,0,0,0,0,90.43a14.83,14.83,0,0,0,.58,4.33A8.43,8.43,0,0,0,2.34,98a7.72,7.72,0,0,0,3,2,12.12,12.12,0,0,0,4.36.7,13.88,13.88,0,0,0,2.32-.17,13.5,13.5,0,0,0,1.94-.46,14.62,14.62,0,0,0,1.54-.6c.45-.22.84-.42,1.18-.62l-.65-1.27-1,.46Zm17.86-9.48a7.42,7.42,0,0,0-2.8-1.09,21.81,21.81,0,0,0-4.19-.34H24.18V82.3c0-.53.1-.86.32-1a2.87,2.87,0,0,1,1.36-.21h2.47a15.74,15.74,0,0,1,1.87.09,2.7,2.7,0,0,1,1.19.41,2.28,2.28,0,0,1,.77,1,13.08,13.08,0,0,1,.59,1.73h1.09V79.83H18.64v.66l.38.12a1.12,1.12,0,0,1,.5.26.87.87,0,0,1,.23.5c0,.21,0,.49,0,.83v4.12h0v7.51h0V98c0,.34,0,.62,0,.83a.89.89,0,0,1-.22.5,1.12,1.12,0,0,1-.51.27c-.21,0-.29.09-.38.11v.66h7.71a25.1,25.1,0,0,0,3.14-.18,6.94,6.94,0,0,0,2.75-.86,5,5,0,0,0,1.95-2.06,8,8,0,0,0,.74-3.76,7.74,7.74,0,0,0-.49-2.9,4.36,4.36,0,0,0-1.56-1.94ZM30,96.55a3.88,3.88,0,0,1-.89,1.62,2.61,2.61,0,0,1-1.29.72,6.58,6.58,0,0,1-1.48.17A4.83,4.83,0,0,1,25.15,99a1.19,1.19,0,0,1-.63-.34,1.16,1.16,0,0,1-.29-.61,8.64,8.64,0,0,1-.05-1V88.46h1.76a4.11,4.11,0,0,1,3.38,1.22,6.42,6.42,0,0,1,1,4A9.59,9.59,0,0,1,30,96.55Zm20.23.92a2.24,2.24,0,0,1-.63,1.06,2.2,2.2,0,0,1-1.17.44c-.49,0-1.19.09-2.07.09A18.31,18.31,0,0,1,44.39,99a2.4,2.4,0,0,1-1-.33A1,1,0,0,1,42.9,98a6.24,6.24,0,0,1-.08-1.16V90.34h2.76l.84,0,1,.09a6,6,0,0,1,1,.19,2.89,2.89,0,0,1,.79.34V88.37a2.89,2.89,0,0,1-.79.32,9.16,9.16,0,0,1-1,.19,8.64,8.64,0,0,1-1,.09l-.84,0H42.82V82.18A1.37,1.37,0,0,1,43,81.3a1.11,1.11,0,0,1,.81-.21H46a15.86,15.86,0,0,1,1.87.09,2.75,2.75,0,0,1,1.19.41,2.27,2.27,0,0,1,.76,1,10.69,10.69,0,0,1,.59,1.73h1.09V79.83H37.31v.66l.38.12a1.18,1.18,0,0,1,.5.26.86.86,0,0,1,.22.5,6.41,6.41,0,0,1,.05.86V97.92a6.41,6.41,0,0,1-.05.86.83.83,0,0,1-.22.5,1.09,1.09,0,0,1-.5.27c-.21,0-.3.09-.38.11v.66H52V95.55H50.65a18.41,18.41,0,0,1-.46,1.92ZM68,80.76a6.17,6.17,0,0,0-2.4-.77,23.29,23.29,0,0,0-2.8-.16h-8.1v.66l.38.12a1.12,1.12,0,0,1,.5.26.87.87,0,0,1,.23.5,6.68,6.68,0,0,1,0,.86V97.92a6.68,6.68,0,0,1,0,.86.84.84,0,0,1-.23.5,1,1,0,0,1-.5.27c-.21,0-.3.09-.38.11v.66h6.71v-.66L61,99.55a1.14,1.14,0,0,1-.5-.27.89.89,0,0,1-.22-.5,6.61,6.61,0,0,1,0-.85V92.2h2a18.42,18.42,0,0,0,3-.24A6.94,6.94,0,0,0,67.86,91a4.85,4.85,0,0,0,1.75-2,7.26,7.26,0,0,0,.65-3.35,6.88,6.88,0,0,0-.62-3.18A4.28,4.28,0,0,0,68,80.76Zm-3,8.77a2.76,2.76,0,0,1-2.64,1.4H60.25V82.21a2.64,2.64,0,0,1,0-.51.6.6,0,0,1,.21-.36,1.18,1.18,0,0,1,.5-.19,5.47,5.47,0,0,1,.92-.06,5.06,5.06,0,0,1,1.49.21,2.94,2.94,0,0,1,1.21.72,3.52,3.52,0,0,1,.8,1.37,7.27,7.27,0,0,1,.27,2.15,8.72,8.72,0,0,1-.74,4Zm21.58-.91a7.42,7.42,0,0,0-2.8-1.09,21.84,21.84,0,0,0-4.2-.34h-1.7V82.3c0-.53.1-.86.32-1a2.87,2.87,0,0,1,1.36-.21H82a15.74,15.74,0,0,1,1.87.09,2.7,2.7,0,0,1,1.19.41,2.28,2.28,0,0,1,.77,1,11.9,11.9,0,0,1,.58,1.73h1.1V79.83H72.29v.66l.38.12a1.12,1.12,0,0,1,.5.26.87.87,0,0,1,.23.5c0,.22,0,.5,0,.86v11.6h0v4.09c0,.36,0,.64,0,.86a.84.84,0,0,1-.23.5,1,1,0,0,1-.5.27c-.21,0-.3.09-.38.11v.66H80a24.94,24.94,0,0,0,3.13-.18,7,7,0,0,0,2.76-.86,5.09,5.09,0,0,0,1.94-2.06,8,8,0,0,0,.74-3.76,7.74,7.74,0,0,0-.49-2.9,4.23,4.23,0,0,0-1.56-1.94Zm-2.92,7.93a3.78,3.78,0,0,1-.9,1.62,2.5,2.5,0,0,1-1.28.72,6.58,6.58,0,0,1-1.48.17A4.83,4.83,0,0,1,78.8,99a1.19,1.19,0,0,1-.63-.34,1.08,1.08,0,0,1-.28-.61,6.61,6.61,0,0,1-.06-1V88.46h1.76A4.07,4.07,0,0,1,83,89.68a6.35,6.35,0,0,1,1,4,9.59,9.59,0,0,1-.34,2.88Zm43.45-16.72h-5.53v.66l.38.12a1.24,1.24,0,0,1,.5.26.86.86,0,0,1,.22.5,6.68,6.68,0,0,1,0,.86v6.55h-7.92V82.23a6.41,6.41,0,0,1,0-.86.86.86,0,0,1,.22-.5,1.18,1.18,0,0,1,.5-.26l.38-.12v-.66h-6.68v.66l.38.12a1.24,1.24,0,0,1,.5.26.86.86,0,0,1,.22.5,6.11,6.11,0,0,1,0,.82V96.82s0,.05,0,.07V98a5.87,5.87,0,0,1-.05.82.83.83,0,0,1-.22.5,1.14,1.14,0,0,1-.5.27c-.21,0-.3.09-.38.11v.66h6.68v-.66l-.38-.11a1.09,1.09,0,0,1-.5-.27.83.83,0,0,1-.22-.5,6.36,6.36,0,0,1,0-.85v-4.1h0v-3.7h7.92v7.79a6.68,6.68,0,0,1,0,.86.83.83,0,0,1-.22.5,1.14,1.14,0,0,1-.5.27c-.22,0-.3.09-.38.11v.66h6.68v-.66l-.38-.11a1.09,1.09,0,0,1-.5-.27.83.83,0,0,1-.22-.5,6.36,6.36,0,0,1,0-.85v-4.1l0,.09V86.23l0,.09V82.23a6.41,6.41,0,0,1,0-.86.86.86,0,0,1,.22-.5,1.18,1.18,0,0,1,.5-.26l.38-.12v-.66Zm-20.79,15.9L101.59,82.3a9.52,9.52,0,0,1-.43-1.49c-.07-.38-.12-.71-.16-1H95.14v.66l.38.12a1.12,1.12,0,0,1,.5.26.87.87,0,0,1,.23.5q0,.19,0,.45A4.09,4.09,0,0,1,96,83.16l-3.26,8.09c-.61,1.52-1.13,2.78-1.56,3.8s-.8,1.88-1.11,2.56-.57,1.24-.79,1.65-.43.77-.61,1.06H92.4a23,23,0,0,1,.46-2.52c.27-1.18.74-2.82,1.43-4.9h6.5l.89,2.62c.39,1.18.71,2.17.94,3a10.32,10.32,0,0,1,.41,1.82h5.22c-.22-.41-.49-1-.81-1.66s-.72-1.67-1.17-2.93ZM94.76,91.55l2.83-8.28,2.76,8.28Zm53.12,6.59c-.69-.74-1.25-1.36-1.68-1.85l-1.77-2c-.54-.63-1.07-1.25-1.56-1.86s-1-1.22-1.4-1.84-.87-1.28-1.31-2l.33-.41q.73-.94,1.74-2.16c.66-.82,1.35-1.62,2.06-2.42s1.41-1.53,2.12-2.21a12.36,12.36,0,0,1,1.91-1.54v0h-4.8a12.16,12.16,0,0,1-.72,1.51c-.32.6-.7,1.25-1.13,1.93l-1.36,2.14c-.47.73-.94,1.44-1.41,2.1l-1.31,1.86q-.6.85-1,1.38l1.34,1.83,1.15,1.57,1.06,1.48,1.07,1.51a17,17,0,0,1,1.05,1.62q.45.8.84,1.56l6.92.06c-.73-.75-1.43-1.49-2.12-2.24Zm-11.39,1.14a.84.84,0,0,1-.23-.5,6.61,6.61,0,0,1,0-.85V82.23a6.68,6.68,0,0,1,0-.86.87.87,0,0,1,.23-.5,1.12,1.12,0,0,1,.5-.26l.38-.12v-.66h-6.68v.66l.37.12a1.22,1.22,0,0,1,.51.26.93.93,0,0,1,.22.5c0,.22,0,.5,0,.86V97.92c0,.36,0,.64,0,.86a.89.89,0,0,1-.22.5,1.12,1.12,0,0,1-.51.27c-.21,0-.29.09-.38.11v.66h6.68v-.66l-.38-.11a1,1,0,0,1-.5-.27Z"/><path class="cls-1" d="M57.71,17.6,85.29,1.76A32,32,0,0,0,81.78,0L57.93,13.72,47.1,7.48a33.15,33.15,0,0,0-2.26,2.76Z"/><path class="cls-1" d="M57.71,25.35,91,6.1a30.09,30.09,0,0,0-2.65-2.26L57.71,21.47,43,13a30.29,30.29,0,0,0-1.52,3Z"/><path class="cls-1" d="M57.71,33.1,95.47,11.4a28.59,28.59,0,0,0-2-2.72L57.71,29.22l-17.39-10a32.05,32.05,0,0,0-.85,3.41Z"/><path class="cls-1" d="M57.71,37,39,26.23c0,.71-.08,1.43-.08,2.16A30.83,30.83,0,1,0,97.17,14.3Z"/></g></g></svg>