<svg xmlns="http://www.w3.org/2000/svg" viewBox="0 0 166.7 63.32"><defs><style>.cls-1{fill:#c4343a;}.cls-2{fill:#3863cd;}.cls-3{fill:#e2ac29;}.cls-4{fill:#94b632;}</style></defs><title>Ресурс 15</title><g id="Слой_2" data-name="Слой 2"><g id="Content"><path class="cls-1" d="M20.15,19.14c6.67,0,11.22,4.09,11.22,10.22h-23c0-6.51,5.93-10.22,11.8-10.22Zm.28-5.33C9.29,13.81,0,18.54,0,32.81c0,11.3,6.25,18.42,20.72,18.42,17,0,18.13-11.22,18.13-11.22H30.6s-1.77,6-10.38,6c-7,0-12.06-4.74-12.06-11.38H39.72V30.51c0-6.57-4.17-16.7-19.29-16.7Z"/><path class="cls-2" d="M60.15,19.37c7.56,0,12.37,5.62,12.37,13.15,0,8.08-5.55,13.37-12.32,13.37-8.07,0-12.43-6.31-12.43-13.3,0-6.51,3.91-13.22,12.38-13.22ZM39.71,0V44.07c0,2.5-.18,6-.18,6h7.88s.28-2.52.28-4.83c0,0,3.89,6.09,14.47,6.09,11.14,0,18.71-7.74,18.71-18.82,0-10.31-7-18.6-18.69-18.6-11,0-14.41,5.94-14.41,5.94V0Z"/><path class="cls-3" d="M109.65,33.39v2.3c0,3-1.85,10.47-12.77,10.47-6,0-8.53-3-8.53-6.44,0-6.29,8.63-6.33,21.3-6.33Zm-9.21-19.58c-16.77,0-17.85,9.19-17.85,10.65h8.35s.44-5.36,8.92-5.36c5.52,0,9.79,2.53,9.79,7.38V28.2H99.86C86.87,28.2,80,32,80,39.72s6.35,11.72,14.92,11.72c11.69,0,15.46-6.46,15.46-6.46,0,2.57.19,5.1.19,5.1H118s-.28-3.14-.28-5.15V27.58c0-11.37-9.18-13.77-17.27-13.77Z"/><polygon class="cls-4" points="113.21 15.26 122.6 15.26 136.08 42.25 149.52 15.26 158.03 15.26 133.54 63.32 124.62 63.32 131.68 49.92 113.21 15.26 113.21 15.26 113.21 15.26"/><path d="M162.4,11.83c0-.34,0-.62,0-.87H163l0,.43h0a1,1,0,0,1,.9-.5.85.85,0,0,1,.81.54h0a1,1,0,0,1,.36-.36.94.94,0,0,1,.59-.18c.48,0,1,.33,1,1.27v1.72H166V12.26c0-.48-.17-.77-.53-.77a.56.56,0,0,0-.51.39.93.93,0,0,0,0,.25v1.75h-.71V12.19c0-.41-.17-.7-.51-.7a.57.57,0,0,0-.52.42.64.64,0,0,0,0,.24v1.73h-.71V11.83Zm-1.25-1.7V11h.7v.55h-.7V12.8c0,.35.09.54.37.54a1,1,0,0,0,.29,0v.56a1.64,1.64,0,0,1-.53.07.83.83,0,0,1-.63-.24,1.12,1.12,0,0,1-.23-.81V11.51H160V11h.42V10.3l.72-.17Z"/></g></g></svg>