<svg xmlns="http://www.w3.org/2000/svg" viewBox="0 0 100 122.81"><title>Ресурс 14</title><g id="Слой_2" data-name="Слой 2"><g id="Content"><path d="M83.52,65.25C83.69,83.83,99.82,90,100,90.1a67.48,67.48,0,0,1-8.5,17.46C86.38,115,81.07,122.5,72.7,122.65s-10.87-4.87-20.27-4.87-12.34,4.72-20.12,5c-8.08.31-14.23-8.09-19.39-15.54C2.37,92-5.69,64.17,5.14,45.38A30,30,0,0,1,30.55,30c7.93-.15,15.42,5.34,20.27,5.34s13.94-6.6,23.51-5.63c4,.16,15.24,1.61,22.46,12.18-.58.36-13.41,7.83-13.27,23.37M68.06,19.61C72.35,14.42,75.24,7.19,74.45,0,68.27.25,60.79,4.12,56.36,9.31c-4,4.59-7.46,12-6.52,19,6.89.54,13.93-3.5,18.22-8.69"/></g></g></svg>