<svg xmlns="http://www.w3.org/2000/svg" viewBox="0 0 184 55.45"><defs><style>.cls-1{fill:#e69724;}.cls-1,.cls-2{fill-rule:evenodd;}</style></defs><title>Ресурс 10</title><g id="Слой_2" data-name="Слой 2"><g id="Content"><path class="cls-1" d="M114.15,43.36C103.46,51.25,88,55.45,74.62,55.45A71.51,71.51,0,0,1,26.32,37c-1-.9-.11-2.13,1.09-1.43A97.26,97.26,0,0,0,75.74,48.41a96.22,96.22,0,0,0,36.86-7.54C114.41,40.1,115.92,42.06,114.15,43.36Z"/><path class="cls-1" d="M118.6,38.29c-1.37-1.76-9-.83-12.49-.42-1,.12-1.2-.79-.26-1.45,6.12-4.3,16.15-3.06,17.31-1.62s-.31,11.51-6,16.31c-.88.73-1.72.34-1.33-.64C117.08,47.25,120,40,118.6,38.29Z"/><path class="cls-2" d="M106.36,6.06V1.88A1,1,0,0,1,107.42.82h18.72a1.06,1.06,0,0,1,1.08,1.06V5.46c0,.6-.51,1.38-1.41,2.63l-9.69,13.84a20.8,20.8,0,0,1,10.68,2.29,1.94,1.94,0,0,1,1,1.63v4.46a1,1,0,0,1-1.38,1,21.6,21.6,0,0,0-19.78,0c-.65.35-1.33-.35-1.33-1V26.1a5,5,0,0,1,.7-2.87L117.22,7.11h-9.78A1,1,0,0,1,106.36,6.06Z"/><path class="cls-2" d="M38.08,32.14h-5.7a1.07,1.07,0,0,1-1-1V2a1.07,1.07,0,0,1,1.1-1h5.3a1.07,1.07,0,0,1,1,1V5.7h.11C40.29,2,42.9.28,46.41.28S52.2,2,53.8,5.7A8.4,8.4,0,0,1,68.25,3.48c1.81,2.46,1.44,6,1.44,9.17V31.09a1.08,1.08,0,0,1-1.1,1.05H62.9a1.06,1.06,0,0,1-1-1.05V15.6a38.34,38.34,0,0,0-.16-5.48c-.43-2-1.7-2.52-3.35-2.52A3.79,3.79,0,0,0,55,10c-.58,1.48-.53,3.94-.53,5.6V31.09a1.07,1.07,0,0,1-1.09,1.05H47.65a1.07,1.07,0,0,1-1-1.05V15.6c0-3.26.53-8.06-3.51-8.06s-3.93,4.67-3.93,8.06V31.09A1.07,1.07,0,0,1,38.08,32.14Z"/><path class="cls-2" d="M143.33.28c8.45,0,13,7.26,13,16.49,0,8.91-5,16-13,16-8.29,0-12.81-7.26-12.81-16.3S135.09.28,143.33.28Zm0,6c-4.2,0-4.46,5.72-4.46,9.29s-.06,11.19,4.41,11.19,4.62-6.15,4.62-9.9a26.85,26.85,0,0,0-.85-7.75A3.56,3.56,0,0,0,143.38,6.25Z"/><path class="cls-2" d="M167.31,32.14h-5.67a1.06,1.06,0,0,1-1-1.05V1.85A1.08,1.08,0,0,1,161.7.9H167a1.08,1.08,0,0,1,1,.82V6.19h.11c1.59-4,3.82-5.91,7.76-5.91a7.46,7.46,0,0,1,6.64,3.45C184,6.06,184,10,184,12.83V31.22a1.08,1.08,0,0,1-1.09.92H177.2a1.06,1.06,0,0,1-1-.92V15.35c0-3.2.37-7.87-3.57-7.87a3.72,3.72,0,0,0-3.29,2.34,12.92,12.92,0,0,0-.91,5.53V31.09A1.09,1.09,0,0,1,167.31,32.14Z"/><path class="cls-2" d="M91.44,18.18c0,2.22,0,4.07-1.07,6a4.61,4.61,0,0,1-3.94,2.59c-2.19,0-3.47-1.66-3.47-4.13C83,17.83,87.32,17,91.44,17Zm5.74,13.89a1.18,1.18,0,0,1-1.35.13,13.88,13.88,0,0,1-3.26-3.79c-3.13,3.18-5.34,4.14-9.39,4.14-4.8,0-8.53-3-8.53-8.88a9.68,9.68,0,0,1,6.08-9.31c3.09-1.35,7.4-1.6,10.71-2v-.74c0-1.36.1-3-.7-4.13A3.79,3.79,0,0,0,87.55,6,4.33,4.33,0,0,0,83,9.46a1.21,1.21,0,0,1-1,1l-5.52-.6a1,1,0,0,1-.85-1.19C76.88,2,82.93,0,88.35,0c2.77,0,6.39.74,8.57,2.84,2.77,2.58,2.51,6,2.51,9.8v8.87c0,2.67,1.11,3.84,2.15,5.28a1.08,1.08,0,0,1,0,1.51c-1.17,1-3.23,2.77-4.37,3.78Z"/><path class="cls-2" d="M16.78,18.18c0,2.22,0,4.07-1.06,6a4.63,4.63,0,0,1-4,2.59c-2.18,0-3.46-1.66-3.46-4.13,0-4.85,4.35-5.73,8.47-5.73Zm5.74,13.89a1.16,1.16,0,0,1-1.34.13,14.12,14.12,0,0,1-3.27-3.79c-3.12,3.18-5.34,4.14-9.39,4.14-4.79,0-8.52-3-8.52-8.88a9.67,9.67,0,0,1,6.07-9.31c3.09-1.35,7.41-1.6,10.71-2v-.74c0-1.36.11-3-.69-4.13A3.81,3.81,0,0,0,12.89,6,4.32,4.32,0,0,0,8.32,9.46a1.22,1.22,0,0,1-1,1l-5.52-.6A1,1,0,0,1,1,8.72C2.22,2,8.27,0,13.69,0c2.77,0,6.39.74,8.58,2.84,2.77,2.58,2.5,6,2.5,9.8v8.87c0,2.67,1.11,3.84,2.15,5.28a1.07,1.07,0,0,1,0,1.51c-1.16,1-3.23,2.77-4.36,3.78Z"/></g></g></svg>