<svg xmlns="http://www.w3.org/2000/svg" viewBox="0 0 175.6 95.12"><defs><style>.cls-1{fill:#4479be;fill-rule:evenodd;}</style></defs><title>Ресурс 11</title><g id="Слой_2" data-name="Слой 2"><g id="Content"><path class="cls-1" d="M45.14,63v0C51.68,53.23,55,43.31,55,31.56S51.49,9.73,45.14,0h0c-5.74,9.16-9.39,18.75-9.74,29.43A56.3,56.3,0,0,0,45.14,63Zm0-2.28v0a25,25,0,0,1-2.77-11.4,24.67,24.67,0,0,1,2.77-11.37v0a25.88,25.88,0,0,1,2.78,11.41,26,26,0,0,1-2.78,11.44ZM37.81,29.16c.64-8.67,3.27-16.46,7.3-24.29l0,0A57.35,57.35,0,0,1,52.67,31a46.65,46.65,0,0,1-1.06,12.35,53,53,0,0,0-.8-12.28,56,56,0,0,0-5.67-16l0,0a59.18,59.18,0,0,0-5.25,14.33,63.17,63.17,0,0,0-1.26,14,65.43,65.43,0,0,1-.79-14.18Z"/><path class="cls-1" d="M35.11,74.56C37,72.7,38.8,71.75,41.5,72c4.33.42,7.1,3,7.33,7.3.42,8.22-10.45,13.2-17.26,12.82-9.85-.5-16.39-6.85-18-15.9a19.09,19.09,0,0,1,5-15.74c3.84-4.1,9-5.74,14.44-5.85V30C14.61,30,1,43,.05,61c-1,20,13.46,33.5,31.94,34.14,9.81.38,17.15-3.31,23.88-9.66V64.18H35.11V74.56Z"/><polygon class="cls-1" points="60.78 94.38 66.95 94.38 66.95 69.04 69.79 69.04 69.79 64.22 60.78 64.22 60.78 94.38 60.78 94.38"/><path class="cls-1" d="M73,64.22,70.05,94.38h5.5l.63-5.53h2.39l.68,5.53h5.49L81.79,64.22Zm3.44,19.1.82-10.88h.3l.86,10.88Z"/><path class="cls-1" d="M99.21,78.83V78.5c1.34-.23,1.3-2.88,1.3-4.08V69.6c0-3.7-.26-5.38-4.56-5.38H90.83c-4.33,0-4.59,2.17-4.59,5.38v4H92.4v-3.4a1,1,0,0,1,1-1,1,1,0,0,1,1,1v3.59c0,1.87-.6,2.24-2.36,2.24H90.83v5.27h1c2.32,0,2.47,1,2.47,2v5.5a1,1,0,0,1-1,1,1,1,0,0,1-1-1V83.43H86.24V89c0,4.3.26,5.42,4.59,5.42H96c4,0,4.56-.75,4.56-5.42v-6c0-1.09.19-4.08-1.3-4.08Z"/><polygon class="cls-1" points="103.28 94.38 109.44 94.38 109.44 69.11 111.39 69.11 111.39 94.38 117.56 94.38 117.56 64.22 103.28 64.22 103.28 94.38 103.28 94.38"/><path class="cls-1" d="M130.45,64.22h-9.68V94.38h6.17V84.1h3.51c4.34,0,4.6-1.94,4.6-5.38V69.6c0-2.65-.26-5.38-4.6-5.38ZM128.88,77.9c0,1-.49,1.53-1.16,1.53h-.78V69h.78c.67,0,1.16.56,1.16,1.5V77.9Z"/><path class="cls-1" d="M147.35,64.22h-5.12c-4.3,0-4.57,2.47-4.57,5.31V89c0,3.51.27,5.42,4.57,5.42h5.12c4.33,0,4.59-1.68,4.59-5.42V69.6c0-2.91-.26-5.38-4.59-5.38Zm-1.57,24.37a1,1,0,0,1-1,1,.91.91,0,0,1-1-1V70.09a.91.91,0,0,1,1-1,1,1,0,0,1,1,1v18.5Z"/><polygon class="cls-1" points="167.56 64.22 165.1 78.01 162.86 64.22 154.82 64.22 154.82 94.38 161.03 94.38 161.03 80.7 161.25 80.7 163.3 94.38 167.08 94.38 169.21 80.7 169.43 80.7 169.43 94.38 175.6 94.38 175.6 64.22 167.56 64.22 167.56 64.22"/></g></g></svg>