<svg xmlns="http://www.w3.org/2000/svg" viewBox="0 0 152.81 70.28"><defs><style>.cls-1{fill:#5699e1;}</style></defs><title>Ресурс 13</title><g id="Слой_2" data-name="Слой 2"><g id="Content"><g id="g17375"><path id="path17377" class="cls-1" d="M69.44,68.32c-.1-.21-.19-.38-.24-.51a.94.94,0,0,0-.08-.15v-7h-.21s-5.07-.16-10-.16c-2.31,0-4.58,0-6.28.14a18.06,18.06,0,0,0-2.06.22A3.67,3.67,0,0,0,50,61a.5.5,0,0,0-.31.31A4.92,4.92,0,0,1,47,62c-1.87,0-3.55-.83-4.5-.84a1,1,0,0,0-.24,0h0l0,0c-.84.55-1.08.62-1.54,1.33a10.32,10.32,0,0,1-1.64.13c-.93,0-1.69-.13-2.7-.14A2.19,2.19,0,0,0,36,61.18a1.89,1.89,0,0,0-.23-.22c0-.05,0,0,0-.05a.41.41,0,0,1,0-.18c.14-.42.12-.53.47-.78l.09-.07V56.14a4.06,4.06,0,0,1,.46-.36l.09-.07V53.16a2.59,2.59,0,0,0,.44-.42A1.22,1.22,0,0,0,37.4,52c0-.07,0-.13,0-.18s0-.22,0-.31a.52.52,0,0,0-.19-.31c-.07-.09-.17-.2-.33-.43.13-.39.2-.73.3-1a.69.69,0,0,1,.61-.43l.17,0v-.17s0-1.15,0-2.09A7.84,7.84,0,0,0,38,46l0-.08-.07,0c-.15-.1-.28-.23-.46-.37v-4a4.14,4.14,0,0,1,.46-.37l.09-.06V41s.3-4.7.3-8.25A12.82,12.82,0,0,0,37.93,29a1.53,1.53,0,0,0-.5-.6c-.16-.12-.33-.23-.58-.45V16.22a4.06,4.06,0,0,1,.46-.36l.09-.07v-2.6l-.09-.07c-1-.69-1-1.07-1-1.11v0c0-.41.07-.43.46-.72l.09-.07V5.6l-.09-.07A12,12,0,0,1,35.27,4l-1-1.12,0,0,0,0A.53.53,0,0,0,34,2.77c-.24,0-.41.1-.6.09s-.63-.13-1.27-1.15l-.06-.1H27.65a4.48,4.48,0,0,1-.33-.48L27.25,1h-1l0,.17a1.35,1.35,0,0,1-.16.56c-.05.07-.16.16-.34.39l-.14.18.18.13A7.79,7.79,0,0,1,28,4.59a2.62,2.62,0,0,1,.22.47.57.57,0,0,0,.28.38l.05,0H29a3,3,0,0,1,.71.08c.22,0,.36.15.39.24v0h0a8,8,0,0,1,.41.94,7.43,7.43,0,0,1,.52,2.1s0,0,0,0a7.92,7.92,0,0,1-.93,2.65l-.13.18.18.12a4.66,4.66,0,0,1,.49.39,7.69,7.69,0,0,1,.09,1.42c0,1-.08,2.22-.11,2.54a11.54,11.54,0,0,1-1,1l-.08.06v4.54l.08.06a4.37,4.37,0,0,1,.46.37v8.35l.09.07a1.81,1.81,0,0,1,.61,1.09v.09a2,2,0,0,1-.61,1.3l-.09.06v6a5.72,5.72,0,0,1-.46.37l-.08,0v.1a12.82,12.82,0,0,0-.15,2,14.22,14.22,0,0,0,.13,2l-.14.25s-.08.08-.28.17l-.13,0v7.58l.08.06a1.85,1.85,0,0,1,1,1.47c0,.21,0,.35,0,.42s0,.06,0,.11a3.24,3.24,0,0,1-.44.34l-.08.07V56.1c-.17.13-.29.25-.47.37l-.09.06v4.55l.08.06c.32.21.48.34.48.57s-.32.48-.47.57l-.09.06v2.55c-1.38,1.26-1.32,1-1.94,1.61l-1.62.88,0,.1a1.5,1.5,0,0,1-.15.56c-.05.07-.17.16-.34.38l-.15.18.19.13a1.65,1.65,0,0,1,.49.54l.11.18.18-.11a3.81,3.81,0,0,1,1.69-.27,20.57,20.57,0,0,1,2.19.15c.62.07,1.07.16,1.07.16l.17,0,.06-.17a6.61,6.61,0,0,1,1.86-1.76c.71-.52,1.39-1,1.59-1.07h2c.22,0,1.41.4,1.6.78l.06.11H40.4c3.63,0,10.55,0,11.64.11a1.37,1.37,0,0,0,1.26.79h5.28a1.23,1.23,0,0,0,1,.59l.33,0c.12,0,.24,0,.57.52l0,.11h1.81a4.52,4.52,0,0,1,.34.48l.06.1H70.4l-.22-.32c-.26-.41-.54-.92-.74-1.32M39,4.34a.52.52,0,0,0,.37.19,3.17,3.17,0,0,0,.53,0,.77.77,0,0,0,.39.49c.7.37,1.74.35,1.94,1.11l.71,12,.09.07c.14.1.28.13.35.19s.1.05.1.12a.11.11,0,0,1,0,.05,4.21,4.21,0,0,0-.47.34l-.09.07.18,23.52a3.92,3.92,0,0,0-.72,2.35A2.3,2.3,0,0,0,42.63,46c.15.28.26.43.25.64s0,.42,0,.52a.17.17,0,0,1-.07.15,1.78,1.78,0,0,1-.42.35l-.08.07v.5c0,1.35-.05,5.85-.48,7.15a6.2,6.2,0,0,0-1.35,1c-.21.26-.35.56-1.17,1.6l-.14.17.18.13a2.73,2.73,0,0,1,.42.38c.11.1.15.21.34.25a.38.38,0,0,0,.23.1h0c.29,0,.51-.22,1.29-1a17.54,17.54,0,0,1,4.25-.43c.54,0,1,0,1.42.06a2.62,2.62,0,0,1,.75.18l.1.07.11-.06a2.12,2.12,0,0,1,.84-.28h.06l0,.06h.49a1.72,1.72,0,0,1,.81.18l.34.12-.27-2-.07-.06c-1.7-1.2-2.56-1.59-3-1.89s-.49-.43-.73-1.41a6.44,6.44,0,0,1-.28-1.27,1,1,0,0,1,.24-.64,2.09,2.09,0,0,1,.5-.4l.09-.06.3-4.19L47.55,46a7.22,7.22,0,0,1-.44-1,9,9,0,0,1-.32-1.07v-.18a22.09,22.09,0,0,0-.53-3.17,1.31,1.31,0,0,1,.48-1,3,3,0,0,1,.51-.42l.08-.05,0-.09a11.17,11.17,0,0,0,.07-1.24,7.65,7.65,0,0,0-.07-1.06l0-.1-.09,0a1.83,1.83,0,0,1-.09-.71,6.5,6.5,0,0,0,0-.94,6.9,6.9,0,0,1-.17-1.42c0-.36,0-.48,0-.64s-.1-.8-.1-1.32a2,2,0,0,1,.41-1.35,3,3,0,0,1,.51-.41l.11-.08-.3-1.75-.07,0a2.77,2.77,0,0,1-.19-.83,4.93,4.93,0,0,0-.12-.54.62.62,0,0,0-.14-.31,39.64,39.64,0,0,0,.23-4.95c0-4.05-.25-8.82-.25-10.6,0-.27.11-.32.33-.5a1.18,1.18,0,0,0,.5-1,1.86,1.86,0,0,0-.1-.73c-.15-.25-.35-.27-.33-.29s-.12-.18-.12-.76c0-1,1.43-2.28,2.77-2.63l.16,0V3.54l-.05-.06a7.15,7.15,0,0,1-.68-.87l-.08-.16-.18.07a27.52,27.52,0,0,1-4.81.27A38,38,0,0,1,39,2.52l-.16,0-.08.14a8.72,8.72,0,0,1-.53.72l-.14.18.18.13a3,3,0,0,1,.7.7M146.84,28.87a4.83,4.83,0,0,0-1,2.22c-.18.76-.31,1.5-.35,1.76a2.66,2.66,0,0,0-1.08,2.36c0,.09,0,.18,0,.27a13.22,13.22,0,0,0-.21,2.23c-.17,3.4-.17,9.45-.17,9.92h0c-.21,1.25-.88,2-1.5,4.06V52c0,2.56-1.83,5.11-2.64,6.11L140,31.83l-.11-.07a1,1,0,0,1-.29-.46,10.71,10.71,0,0,1-.69-2.92v0l0,0s-.11-.27-.24-.53-.11-.27-.17-.38l0,0c0-.13,0-.28,0-.48,0-2.24-.23-8.24-.23-8.24h0l-.15-.7.22-2.06.85,0c.78,0,1.33.08,2.38.08.27,0,.44.2.75.54a1.85,1.85,0,0,0,1.25.64,2.2,2.2,0,0,0,.8,1.52,8,8,0,0,1,1.3,1.23,4.4,4.4,0,0,1,.17.58c.11.48.24,1.15.4,1.74a2.77,2.77,0,0,0,.62,1.24v5.45Zm5.77-8.42v-.1l-.07-.05,0-.07c-.08-.2-.19-.62-.3-1-.06-.2-.11-.37-.17-.52a.85.85,0,0,0-.12-.27l.16-5.69-.09-.07c-.34-.24-.38-.36-.61-1A31.75,31.75,0,0,0,149.83,8a6,6,0,0,0-1.19-1.15,7.56,7.56,0,0,1-1.58-1.7l-.06-.1h-2.56a3.49,3.49,0,0,1-.33-.49l-.06-.11h-2.36a3.43,3.43,0,0,1-.34-.48l-.06-.11h-1.81a5.57,5.57,0,0,1-.61-.79L138.81,3H137a6.09,6.09,0,0,0-2.37-1.37,8.8,8.8,0,0,1-1.08-.44c-.28-.15-.41-.29-.43-.39l0-.17h-1.86a3.23,3.23,0,0,1-.33-.49L130.82,0h-3.18l.28.34c.06.09.38.39.86.85,1.29,1.25,3.63,3.48,4.05,3.88V8.16c-.17.13-.28.24-.46.36l-.1.07v4.33a4,4,0,0,1-.45.37l-.09.06V24.6l.08,0a7.07,7.07,0,0,1,.19,1c0,.22.06.43.1.61a1.44,1.44,0,0,0,.11.35L132,30.41l.1.06a3,3,0,0,1,.42.34,8.4,8.4,0,0,0-.1,1.52c0,1.52.14,3.5.14,3.5a1.15,1.15,0,0,0,.31.77.8.8,0,0,1,.24.55V38.8a4.19,4.19,0,0,0,.22.88c.42,1.33,1.3,3.83,2.25,4.85l-1,10.1,1.12,2.58.64,1.59a.33.33,0,0,0,.3.23,1,1,0,0,1,.21,0h0a.83.83,0,0,1,0,.23c0,.1-.31.44-.82.69s-1.12.5-1.52.67l-.19.07.08.2s.16.42.32,1a8.45,8.45,0,0,1,.33,2,1.27,1.27,0,0,1,0,.28A6.22,6.22,0,0,1,133.3,68l-.2.2.25.13a1.29,1.29,0,0,0,.56.09,13.3,13.3,0,0,0,2.23-.25,6.63,6.63,0,0,0,1-.27c.24-.11.46-.2.56-.41h0a2,2,0,0,1,.69.31,2.11,2.11,0,0,0,.92.36.41.41,0,0,0,.15,0h.05A20.85,20.85,0,0,1,143.22,67c.69-.2,1.33-.39,1.81-.58a2.57,2.57,0,0,0,.6-.31.68.68,0,0,0,.28-.38,1.34,1.34,0,0,1,.43-.35c.17-.11.3-.29.57-.87A6.38,6.38,0,0,0,148.07,62v0l.58-3.06a8.51,8.51,0,0,0,.46-3.2v-.82a7,7,0,0,1,.42-2.83v0h0a15.3,15.3,0,0,0,.21-3.14c0-3.06-.28-7.12-.32-7.73a.47.47,0,0,0,.07-.24,4.44,4.44,0,0,1,.33-1.78v0l.36-2.69a5.79,5.79,0,0,0,1.29-1.89,4,4,0,0,0,.36-1.84c0-.76-.1-1.55-.1-2.2,0-.14,0-.28,0-.4a3,3,0,0,0,.42-.8,1.93,1.93,0,0,1,.34-.63l0,0,0-.07a10.34,10.34,0,0,0,.21-2.73c0-2.39-.2-5.39-.2-5.4m-30.79-.75c-.19.45-.45,1.27-.73,2.08a8.76,8.76,0,0,1-.88,2,4.2,4.2,0,0,1-2.07,1.12,3.79,3.79,0,0,1-.62,0,5.79,5.79,0,0,1-.65,0V8.6h.47a2.37,2.37,0,0,1,1.16.69,22.59,22.59,0,0,1,2.24,2.49c.61.77,1.05,1.41,1.11,1.49a4.5,4.5,0,0,1,.59,2.17,2.79,2.79,0,0,1-.06.64v1.16a1.71,1.71,0,0,0-.21.43c0,.07,0,.14-.06.19L122,17.8l0,.27a7,7,0,0,0-.13,1.21,3,3,0,0,0,0,.42m10.29,33.49v-.07a5.94,5.94,0,0,0-.75-2l0-.08-.07,0a1.16,1.16,0,0,1-.57-.21c0-.12.05-.56.11-1a5.36,5.36,0,0,1,.22-1l.06-.07,0-.08c0-.2-.24-1.71-.45-3.21-.11-.75-.23-1.5-.33-2.08a6.43,6.43,0,0,0-.26-1.18l-.11-.2-.19.12c-.12.08-.2.1-.23.09s-.11,0-.18-.15a3.69,3.69,0,0,1-.24-.84c0-.15,0-.29-.07-.41s0-.2-.13-.28h0a4,4,0,0,1-.15-1c-.06-.78-.08-1.84-.12-2.75,0-.46,0-.88-.09-1.21a1.91,1.91,0,0,0-.16-.75l0,0v0a1.71,1.71,0,0,1-.21-.78,5.21,5.21,0,0,0-.19-1,1.36,1.36,0,0,1-.17-.64V32a.45.45,0,0,0-.26-.4,6.42,6.42,0,0,0-.82-.34s-.06,0-.09-.16,0-.54-.1-.88a1.11,1.11,0,0,0-.61-.84c-1.2-1.42-1.91-1.78-2.56-1.79-.46,0-.81.17-1.22.17h-.16a2,2,0,0,0,.2-.18.75.75,0,0,0,.16-.56c0-.21,0-.51,0-1,3.52-.13,5.43-3.4,6.46-7.45l0,0V16.21a3.13,3.13,0,0,0,.25-.68c0-.15.09-.28.13-.39a1.3,1.3,0,0,1,.06-.12l0,0,.08-.06v-.1s.08-1.26.08-2.27a4.14,4.14,0,0,0-.11-1.25l-2.82-5.94h-.15a14.61,14.61,0,0,1-1.42-1.16A5,5,0,0,0,122.47,3a5.29,5.29,0,0,0-.66,0h-.5l-2.18-.68-1.53-.5-.51-.17L117,1.55l0-.06H114a4.15,4.15,0,0,0-.33-.44.8.8,0,0,0-.59-.16,2.61,2.61,0,0,0-1.4.37l-8,.23,0,.42,2,.43a1,1,0,0,0,.2.16,23.35,23.35,0,0,1,2.29,1.78,4.53,4.53,0,0,1,1.66,2.49V6.9l.09,0a1.08,1.08,0,0,0,.55.17,2,2,0,0,0,.59-.15.84.84,0,0,0,.41-.33.35.35,0,0,1,.09-.11l1,.24.67.2.15.06c-1.7,2.34-4.22,3.61-5.12,4.5l0,.05v.07a23.34,23.34,0,0,0-.13,2.57,23,23,0,0,0,.13,2.55l0,.1.07,0a2.38,2.38,0,0,1,.4.35c0,.08,0,.07,0,.09s0,.09,0,.17c0,.24.12.5.56,1l0,2.83.08.05a7,7,0,0,1,.11,1.1c0,.25,0,.5,0,.7a1,1,0,0,0,.11.46,4,4,0,0,1,.31,1.66v.31l.09.06a3.3,3.3,0,0,1,.14.76c0,.19.06.36.1.51a1.08,1.08,0,0,0,.09.32V28c0,.58,0,1.16,0,1.16v.12l.1.05a1.93,1.93,0,0,1,.2.43,2.69,2.69,0,0,0,.26.57l.27,2.34.08.05h0a3.15,3.15,0,0,1,.08.55,1.47,1.47,0,0,0,.12.58c0,.69,0,6.83,0,11.12,0,2.27,0,4,0,4.14v.12l.1.06c.18.14.31.24.47.38a11.32,11.32,0,0,1,.12,1.53,2.09,2.09,0,0,1-.1.78,5.34,5.34,0,0,0-.78,1.53c-.89,2.25-2,6.12-2,6.13v.06a.82.82,0,0,0,.31.53c1.11,1,5.28,2.74,7.41,8.53l.24.68.16-.7a15.85,15.85,0,0,0,.53-3.61,6.07,6.07,0,0,0-.1-1.11,1.83,1.83,0,0,0,.22-.13.78.78,0,0,0,.28-.29l0,0v0a3.49,3.49,0,0,0,0-.5c0-1.44-.52-4.48-.59-5.69a9,9,0,0,0,.49-3.32c0-.82,0-1.62-.1-2.29a1.26,1.26,0,0,0-.28-.64.92.92,0,0,1-.2-.34v0a.81.81,0,0,1,.14-.43A1.32,1.32,0,0,1,118,50l0,0,.09-.06v-.16c0-1.08-1.41-12.64-1.4-14.09v-.08h0v-.13a3.48,3.48,0,0,1,.53-1.23,4.84,4.84,0,0,0,.65-2.09,6.88,6.88,0,0,0-.06-.74,2,2,0,0,1,.57.44,26.16,26.16,0,0,1,2.82,4.58h0s0,.09,0,.19c0,.7-.36,2.49-.52,3.81l0,.19.18,0c.26,0,.68.61,1,1.47a37.69,37.69,0,0,1,1.82,8h0v.05a12.88,12.88,0,0,1,.06,1.75,45.59,45.59,0,0,1-.24,5.37,29,29,0,0,1-1.06,3.39,14.15,14.15,0,0,0-.88,2.92.48.48,0,0,0,0,.2l.06.14h1c1.24,0,2,.17,5,3a5,5,0,0,0,1.43.71c.56.22,1.07.37,1.08.37l.22.08,0-.24c1.31-6.41,1.12-6.61,1.41-7.3a2.47,2.47,0,0,0,.24-1,1.49,1.49,0,0,0-.21-.79,1.83,1.83,0,0,0-.13-.22.08.08,0,0,1,0,0,14.64,14.64,0,0,0,.34-2.86,13.38,13.38,0,0,0-.21-1.85,1,1,0,0,1,.22-.56l.05-.07ZM17.79,11.53h0a.28.28,0,0,0-.12.26,9.79,9.79,0,0,0,.54,1.9A2.4,2.4,0,0,0,17.78,15a15.62,15.62,0,0,0-.11,2.06c0,.52,0,1,0,1.24A3,3,0,0,0,15.05,20c-.4.77-.59,1.46-1.13,1.66a.36.36,0,0,0-.13-.08,1.11,1.11,0,0,0-.45-.1h0a1.54,1.54,0,0,0-.56.1V11.06a1.73,1.73,0,0,0,.4-.3.88.88,0,0,0,.15-.6,1.89,1.89,0,0,1,.12-.59l.19-.09h0a.42.42,0,0,1,0,.18l-.15.35,2.42-.35h.27c.39.82.84,1.1,1.31,1.15a5.13,5.13,0,0,1,1.16.18l-.8.54Zm.4,38.11h0a14.16,14.16,0,0,1-.44,2.07c-.12.43-.25.85-.35,1.15s-.1.3-.14.38,0,.09-.05.1h0l0,0,0,.09a19.36,19.36,0,0,0-.21,2.8,2.89,2.89,0,0,1-.56,1.91A12.71,12.71,0,0,0,15,59.69a2.74,2.74,0,0,1-1.5,1.07h-.07l-1.26,1.15a7.87,7.87,0,0,1-1.49.33c.1-.2.24-.45.38-.72l.42-.78.14-.28a.64.64,0,0,0,.06-.22.21.21,0,0,0,0-.12.17.17,0,0,0-.08-.06c0-.6-.07-1.93-.07-1.93,0-2.63,0-3.86,0-4.39l0-.06a1.89,1.89,0,0,0,.13-.56c0-.25.21-.32.5-.63l0-.06V42L12.06,42a.61.61,0,0,1-.42-.61.13.13,0,0,1,0-.06.59.59,0,0,1,.41-.57l.11,0,.59-2.84,0-.05a11.29,11.29,0,0,1-.34-2.49A2.32,2.32,0,0,1,12.69,34l.05-.05v-.06c0-.49.05-1.29.05-2.16,0-1.19,0-2.49,0-3.21l1.36,1.41a12.75,12.75,0,0,0,2.27,1.74c0,.06.25.24.44.47a1.57,1.57,0,0,1,.44.83.2.2,0,0,1-.08.19.38.38,0,0,0-.14.32,1.2,1.2,0,0,0,.23.59,1.84,1.84,0,0,1,.19.35l-.14,0-.45,0,.31.33a2.3,2.3,0,0,1,.26.37,1.83,1.83,0,0,1,.27.9,1.32,1.32,0,0,1-.15.59l-.09.18.18.1c.11.05.15.15.15.38,0,.64-.51,1.74-.53,2.34a3.41,3.41,0,0,0,.16,1.22c.16.39.39.49.48.67A2.58,2.58,0,0,1,18.18,43a1.66,1.66,0,0,0-.65,1.36c0,1.08.76,2.22.74,2.86a.51.51,0,0,1-.2.45l-.26.18.26.17c.22.15.24.25.24.38s-.18.57-.18.94a.8.8,0,0,0,.06.3m7.42,3.47c0-1.28-.39-2.61-.39-3.28a.56.56,0,0,1,.06-.33,5.08,5.08,0,0,0,.95-3.25c0-1.52-.32-3.18-.32-4.92V38.76a.62.62,0,0,0,.17-.41c0-.38-.31-.57-.57-.78a2,2,0,0,1-.59-.62,6.89,6.89,0,0,1-.44-2.65,18.3,18.3,0,0,1,.45-3.77l0-.13-.11-.08a4.27,4.27,0,0,1-.51-.41s0,0,0,0h0a.68.68,0,0,0-.16-.41,6.51,6.51,0,0,0-.81-.9l-.19-.19-.14.22c-.07.11-.08.1-.08.1a.09.09,0,0,1-.07,0A1,1,0,0,1,22.6,28c0-.12,0-.16,0-.17l0,0,0,0a3.42,3.42,0,0,0,.59-1.56.82.82,0,0,0-.72-.85h0a4.39,4.39,0,0,1-1.86-.58,2.08,2.08,0,0,1-.5-.37.63.63,0,0,1-.11-.15s0,0,0,0a33,33,0,0,0,3.21-4.36l2-3.81a2.36,2.36,0,0,0,.55-1.73c0-1.18-.36-2.66-.36-4.24s-1-4.58-2.84-5.84a2.61,2.61,0,0,0-1.44-.41l-.31,0c-.19-.17-.47-.31-.74-.53a2,2,0,0,1-.73-1l0-.15-.15,0a15.45,15.45,0,0,0-2.51-.23c-1.56,0-2.62.29-5.57.29L8.25,2.09c-.36,0-1.42.07-2.45.2-.53.07-1,.14-1.43.23a2.25,2.25,0,0,0-.8.28H.65l-.06.09a2.69,2.69,0,0,1-.47.6C0,3.68,0,3.82,0,4.35c0,.3,0,.47,0,.57a.59.59,0,0,0,0,.25c.13.14.13.1.19.15a2.18,2.18,0,0,1,.36.48v0L2.4,7.53c.06.08.17.21.29.34s-.06.06-.08.16a.24.24,0,0,0,.24.23H3l0,0c.07,0,0,.06.2.08a.24.24,0,0,0,.17-.08.13.13,0,0,0,0,0l.46,0a2.73,2.73,0,0,0,.31.33h0a5.93,5.93,0,0,0,0,.63c0,.4,0,.63,0,.73s0,0,0,.09a5.45,5.45,0,0,1-.45.36l-.1.05v14l.6,1a10.22,10.22,0,0,1,.07,1.27,2.49,2.49,0,0,1-.08.83,3.09,3.09,0,0,0-.53,1.2h0l-.06,4,.43.88.13,2.77,0,0a.81.81,0,0,1-.65.45l-.21,0,0,.19c0,.29,0,.64,0,1,0,2.11-.2,5.68-.2,9.17h0c.27,2.14.43,5.12.49,5.51a20.92,20.92,0,0,1,.19,2.78c0,1.69-.19,3.34-.2,6.56-.18,1-.45,2.2-.71,3.21-.13.51-.26,1-.37,1.29,0,.16-.1.29-.13.38l0,.1h0a4.07,4.07,0,0,1-1,.57c-.38.17-.69.29-.69.29L.3,68.2l.35.23c.09.07.41.36.65.58l.21.17L1.62,69l.21,0c.43,0,1.2.12,1.8.13A1.64,1.64,0,0,0,4.28,69a23.56,23.56,0,0,0,3.35.32,6.16,6.16,0,0,0,1.29-.12,1,1,0,0,0,.73-.51c.39-.37.64-.46.81-.46s.35.14.53.33.32.44.67.47a.8.8,0,0,0,.53-.32,2.43,2.43,0,0,1,.7-.24c1.1-.27,2.94-.54,2.95-.54H16l0-.12c.26-.77,1.41-1.5,2.54-2.33a25.89,25.89,0,0,1,3.56-2l.11,0V63.3A17,17,0,0,1,23,59.52a18.51,18.51,0,0,1,1.59-2.78v0h0A15.88,15.88,0,0,0,25.54,54a6.11,6.11,0,0,0,.07-.86m46.26-9.82v-.76H70.33l-.06.07a3.64,3.64,0,0,0-.65,1.55c-.14.44-.38.83-1.24,1.23-.1-.14-.19-.26-.29-.43L68,44.71l-.18.18a4.84,4.84,0,0,0-1,2.33c-1.36.11-2.37,1.23-3.15,2.33-.41.58-.75,1.17-1,1.63a3,3,0,0,1-.66.83,5.43,5.43,0,0,1-1.75.51,4,4,0,0,0-.87.08c-1.06.52-1.63.86-2,1.07a1.57,1.57,0,0,1-.79.25A5.11,5.11,0,0,0,56,54h0l-.05-.05a2.89,2.89,0,0,1-.27-.36A10.49,10.49,0,0,0,56.36,52c.49-1.21,1.07-2.81,1.54-4.11.23-.66.45-1.23.61-1.64.09-.21.16-.37.2-.48l.06-.1h0l-.1-.11.22,0V44a9.18,9.18,0,0,1,.45-1.56,39,39,0,0,1,1.93-4.64c.77-1.56,1.66-2.88,2.31-3.13l.16-.07,0-.17A7.91,7.91,0,0,1,63.55,33a2.75,2.75,0,0,1,.15-1,3.62,3.62,0,0,1,1.47-1.49,8.51,8.51,0,0,1,1.16-.62l.13-.06V27.25A13.61,13.61,0,0,0,67.87,24a8,8,0,0,1,2-3.45l.12-.09,0-.15a5.74,5.74,0,0,1-.2-1.47,2.36,2.36,0,0,1,.69-1.87l.07-.07V6.79A1.21,1.21,0,0,0,70.18,6,.79.79,0,0,1,70,5.45v-3h-.21c-7.66,0-8.35-.06-16.14-.06h-.25l0,.24a.36.36,0,0,1,0,.1,2,2,0,0,1-.26.81,4,4,0,0,1-.26.41L52.83,4V9.23l.09.06a3,3,0,0,1,.52.41,2.13,2.13,0,0,1,.47,1.52,8.33,8.33,0,0,1-.51,2.58l-.07.16.14.09s.07.09.09.25,0,.36.07.57c.14.72.31,1.87.31,1.87v.09l.07.05c.44.32.47.47.47.62s0,.26,0,.47A1.29,1.29,0,0,0,55,19l.19.17.14-.21c.77-1.3,1.1-1.76,1.13-2.2V12.24c0-.31.33-.69.8-1a3.14,3.14,0,0,1,1.19-.46h.21V10.6c0-3.16,2.41-3.25,3.31-4.11L68,6.55v3.72C66.14,12,65.43,14,64.24,14.81l0,0v0a3.76,3.76,0,0,0-.33,1.66,7.85,7.85,0,0,0,.27,1.94c-1.82,1.7-2.15,2.59-2.2,2.91l-.6.45-.49.35-.15.13-.06,0s0,0-.07.07c-1,1.48-1.95,6.42-2.07,7a8.78,8.78,0,0,0-2,3.14c-.25.75-.27,1.3-.35,1.46a18.92,18.92,0,0,0-1.93,2.71,7.28,7.28,0,0,0-.56,2.15c-.09.67-.22,1.19-.47,1.35l-.1.06v.12a.41.41,0,0,1,0,.11c0,1.05-.61,3.09-.61,4.84a5.06,5.06,0,0,0,.07.88v.06l0,0,0,.07a1.81,1.81,0,0,1,.29.94,1.61,1.61,0,0,1-.34,1l-.13.17.18.12a4.27,4.27,0,0,1,.61,1c.12.23.22.46.3.63l.08.23a.18.18,0,0,1,0,.06h0c0,.21,0,.35,0,.42s0,.05,0,.12-.19.16-.43.33l-.11.06v3.59l-.45.44-.23.26-.08.11a.32.32,0,0,0-.06.18.69.69,0,0,0,.19.52,2,2,0,0,1,.4.48l.06.1h4.28a4.16,4.16,0,0,0,1.85.89h.06a1.2,1.2,0,0,0,1-.69,1.1,1.1,0,0,1,1.06-.51,6,6,0,0,0,.67,0h0l0,0,.33.49.05.11h6.3l.06-.11a2.66,2.66,0,0,1,1-.74,3.49,3.49,0,0,1,1-.34h.22v-.22s-.19-3.34-.19-5.8c0-.62,0-1.18,0-1.61a3.4,3.4,0,0,1,.11-.79,2.45,2.45,0,0,0,.54-1.07A.8.8,0,0,1,72,46.2l.23-.07-.09-.22a9,9,0,0,1-.28-2.62m29.71-4.1h-.46c-1.09-.34-2-1.44-3.57-1.79a7.57,7.57,0,0,0-1.61-.16c-.36,0-.7,0-1,.05v-.07a4.26,4.26,0,0,0,.09-1c0-1-.13-2.4-.13-3.42A5.82,5.82,0,0,1,95,32a2,2,0,0,0,.29-.83,18.79,18.79,0,0,0,.27-2.76,1.25,1.25,0,0,0,.95-1,1.89,1.89,0,0,1,.62-1.14l.08-.06v-.11l.1-2.49a5.75,5.75,0,0,0,1,1.85,2.19,2.19,0,0,0,1.2.61,2.17,2.17,0,0,1,1.09.48,3.59,3.59,0,0,1,.6,2.1c0,.44.08.88.14,1.24a1.66,1.66,0,0,0,.3.78c0,.42.08,1.47.08,2.68,0,2.23-.07,5-.08,5.78m7.08-1.56,0,0c0-.1-.09-.42-.16-.83a47.85,47.85,0,0,1-.57-5.09v-.17l.17,0V28.25l-.09-.06c-.46-.33-.48-.48-.48-.59s.05-.26.05-.5A1.42,1.42,0,0,0,107,26V23.63l-.09-.05a5.65,5.65,0,0,1-.48-.4l-1.73-6.83,0,0s-.5-1.28-1-2.76a16.72,16.72,0,0,1-1-3.82V8.11a.67.67,0,0,0-.14-.45,12,12,0,0,1-1.81-3.06,6.64,6.64,0,0,1-.13-.66,6.71,6.71,0,0,0-.38-1.71,1.45,1.45,0,0,0-1.33-1,1.05,1.05,0,0,0-1,.57,2.66,2.66,0,0,0-.18,1.13c0,.22,0,.43,0,.63a2.7,2.7,0,0,1-.11.88.51.51,0,0,1-.47.36H97l0,0a1.72,1.72,0,0,0-.75.72c-.08.16-.06.21-.41.48l-.09.06V8.45a4.61,4.61,0,0,0-1.08,1.64,16.75,16.75,0,0,0-1.19,3.11,2.29,2.29,0,0,0-.54.43,1,1,0,0,0-.21.62c0,.43.21.77.2,1.16a1.37,1.37,0,0,1,0,.19,9.12,9.12,0,0,0-1.51,2.69,10.13,10.13,0,0,0-.62,3.43c-.09,1.07-.25,1.89-.85,2.23l-.1.06v.12a8.2,8.2,0,0,1-.32,2.23,5.18,5.18,0,0,1-.31.87,10.3,10.3,0,0,0-1,1.89,2.59,2.59,0,0,0-.11.73c0,.5.14.85.14,1.38a3.85,3.85,0,0,1-.1.81,2.47,2.47,0,0,0,0,.44.74.74,0,0,0,.42.75c.09,0,.13.06.14.08s0,0,0,.12c0,.41-.07.42-.47.72l-.09.06V36.6a2.12,2.12,0,0,0-.49.41,1.67,1.67,0,0,0-.35,1.13,5.12,5.12,0,0,0,.27,1.52c0,.05,0,.09-.06.16-.2.74-.48,3.11-.48,3.12v.13l.11.07c.33.21.48.36.45.42s0,.12-.12.22c-.31.28-1.15.49-1.56,1.17a5.35,5.35,0,0,0-.51,2.24,11.43,11.43,0,0,0-1.95,2.23l-.1.12.09.12c.34.52.34.63.36.8a2.35,2.35,0,0,0,.42,1l.09.15.16-.06s3-1.12,5.62-2a6.88,6.88,0,0,1,1.53-.09c1.37,0,3.06.1,3.06.1h.19l0-.18a2.13,2.13,0,0,1,.45-.87,3.54,3.54,0,0,1,.26-.35.85.85,0,0,0,.16-.36.36.36,0,0,0-.29-.32,2.08,2.08,0,0,1-.82-.59,2.06,2.06,0,0,0-.85-.57v-3L93.26,42h1a6.42,6.42,0,0,0,1.3.88c1,.57,2.36,1.26,3.46,1.94a11.07,11.07,0,0,1,1.37.94c.34.28.51.56.49.64h0a13.36,13.36,0,0,1-1.83,6.09,16.2,16.2,0,0,1-1.17,1.78c-.33.42-.52.63-.52.63l-.06.06V55a4.06,4.06,0,0,0,1.44,2.89c.71.71,1.33,1.28,1.32,1.88v1.67l1.64,5.36v3.45l.32-.17.3-.14a.61.61,0,0,1,0,.06.34.34,0,0,0,.25.11.64.64,0,0,0,.5-.22,2.38,2.38,0,0,1,.45-.42l.08-.06V66.89a4.47,4.47,0,0,1,.47-.36l.08-.07v-2a5.32,5.32,0,0,0,.84-2,3.57,3.57,0,0,1,.73-1.73l.1-.07V57.5a10.06,10.06,0,0,0,1.56-3.42c.21-.66.39-1.3.58-1.81a2.41,2.41,0,0,1,.51-.94l.07-.06,0-.07a53.25,53.25,0,0,0,.25-6.72c0-2.93-.07-5.86-.17-6.75ZM95.38,54c0-.77-.58-1.12-.86-1.61l-.06-.1H91.69c-.17-.2-.32-.35-.51-.54L91,51.57l-.14.22a4.28,4.28,0,0,1-2,1.91,12.64,12.64,0,0,0-2.6,1.3,7.05,7.05,0,0,1-1.38.48,3.92,3.92,0,0,0-1.69.89,2.37,2.37,0,0,0-.54,1.41,1.92,1.92,0,0,1-.1.45c-.06.09-.08.13-.2.16-.85,0-1.49.24-2.1.24a2.19,2.19,0,0,1-1-.21l-.17-.09-.1.17a3.92,3.92,0,0,1-.25.39c-.08.09-.1.1-.12.1s-.21-.07-.44-.28a3.83,3.83,0,0,0,.51-1.25,6.72,6.72,0,0,0,.52-1.83.76.76,0,0,0,0-.15,14.44,14.44,0,0,0,2-4.59,8.3,8.3,0,0,0,.08-1.25c0-.73-.06-1.41-.08-1.58l1.65-4.76V37.18a2.86,2.86,0,0,1,.79-1.45,3.3,3.3,0,0,0,.86-1.19V32.62a6.27,6.27,0,0,0,1.28-2.92c.24-1,.47-2,.84-2.21l.08-.06L86.87,22v0a2.71,2.71,0,0,1,0-.47c0-1,.67-1.78,1-3.1s.58-3.43.58-3.43c.05-.58.2-.7.41-.86a1.35,1.35,0,0,0,.69-.75,3.66,3.66,0,0,0,.11-.88,6.85,6.85,0,0,0-.09-1c1.07-1,1.36-1.2,1.63-2.25a3.74,3.74,0,0,0,.09-.89,7.78,7.78,0,0,0-.07-1c1.6-1.61,1.79-3.55,2.29-4.11l0,0V2.4l-.19,0h-.12c-.16,0-.26,0-.31,0h0l0,0a3.63,3.63,0,0,1-.31-.47l-.06-.1h-.12c-10.11,0-14.8,0-16.93,0-1.06,0-1.51,0-1.68,0h-.2V12a2.29,2.29,0,0,0-.83,1.29c0,.65.3.95.29,1.53a3.56,3.56,0,0,1-.27,1.22l-.06.16.14.09c.1.07.41.36.66.59l.19.16.13-.22c.31-.47.48-.48.72-.49h.3a1,1,0,0,0,1-.65,11.63,11.63,0,0,0,.81-3.11,15.7,15.7,0,0,1,1-3.6c.36-.82.78-1.17.88-1.14a14.65,14.65,0,0,1,1.88-.35,1.15,1.15,0,0,1,.86.29,2.06,2.06,0,0,1,.38.55l.06.11h2.93c.11.14.21.22.24.26s0,0,.05.13v0c0,.16-.35.48-.46.54l-.09.06v2a16.68,16.68,0,0,0-2.47,4c-.39.79-.74,1.54-1,2.12-.12.3-.22.55-.29.74a1.45,1.45,0,0,0-.11.42s0,.45,0,.93c0,.25,0,.49,0,.69a6.7,6.7,0,0,1-.84,2.28,8.11,8.11,0,0,0-.81,1.58c0,.12,0,.2,0,.29s0,.35,0,.63a2.38,2.38,0,0,1-.38,1.15,2.82,2.82,0,0,1-.39.49l-.07.07v.09c0,.2,0,.3,0,.5a1,1,0,0,0,0,.32,1.2,1.2,0,0,0,.4.45c.1.09.14.12.15.18L75.12,37.1h0a30.8,30.8,0,0,0-.53,5.37,12.17,12.17,0,0,0,.55,4,2.72,2.72,0,0,0,.36.67,1.15,1.15,0,0,1,.18.6v0A16,16,0,0,1,75.86,50a6.17,6.17,0,0,1-.18,1.66,6.5,6.5,0,0,1-.33.78,2.5,2.5,0,0,0-.23.61v0l0,0a3.46,3.46,0,0,1,.17,1,.89.89,0,0,1-.15.58,1.4,1.4,0,0,1-.5.4l-.12.08,0,.15a4.94,4.94,0,0,1,.14,1.08,1.56,1.56,0,0,1-.13.71c-.23.47-.53.61-1,1l-.13.09,0,.15a4.09,4.09,0,0,1,.2,1.11,1,1,0,0,1-.17.63,1.72,1.72,0,0,1-.5.4l-.1.07v2.2c0,.18-.07.53-.07.92a2,2,0,0,0,.54,1.43l.07.07h.09c1.15,0,2.61-.89,3.19-1,1.23,0,2.4-.1,4.48-.1h.06a5.59,5.59,0,0,0,2.1-1.39l2.72.3a2.15,2.15,0,0,1,.35.5l.06.11h8.3l0-.19a1.12,1.12,0,0,0,0-.24c0-.08,0-.13,0-.17h0s.18-.15.45-.34l.09-.07V57.41c0-.61-.56-.81-.55-1.78a1.85,1.85,0,0,1,.24-1.08c.11-.19.28-.26.31-.56"/></g></g></g></svg>