<svg xmlns="http://www.w3.org/2000/svg" viewBox="0 0 184 48.14"><defs><style>.cls-1,.cls-2{isolation:isolate;}.cls-2{font-size:10.44px;font-family:ArialMT, Arial;}</style></defs><title>Ресурс 12</title><g id="Слой_2" data-name="Слой 2"><g id="Content"><g id="text17359" class="cls-1"><text class="cls-2" transform="translate(176.29 44.75)">®</text></g><g id="g17371"><path id="path17373" d="M133.33,25.56a6.8,6.8,0,1,1,6.8,6.8,6.8,6.8,0,0,1-6.8-6.8m6.8,13.67a13.68,13.68,0,1,0-13.68-13.67,13.68,13.68,0,0,0,13.68,13.67M15.5,26.87l-2.06-6.79-2.07,6.79H15.5Zm11.68,12H19.77L17.91,34H9.26L7.41,38.91H0L13.58,0Zm91-.09h7V12.26h-7Zm-24.62,0h7V12.26h-7ZM111.52,18H116V12.26h-7.26c-2.37,0-5.87,1.43-5.87,6.28,0,6.38,7.88,10.55,7.11,13.12-.37,1.24-1.86,1.29-2.64,1.29h-4.78v5.87h7.83c3.34,0,6.69-2.06,6.69-6,0-7.47-9.15-11.54-7.21-14.31.36-.52,1.65-.52,1.65-.52m-18-8h33.16l-3.81-7H88.34l-8,21-8-21H36.65L33,10h16l0,28.86h7.2l0-28.86h11L80.31,45ZM38.71,11.91a13.65,13.65,0,1,0,9,24l-4.51-5.12a6.83,6.83,0,1,1-.06-10.4l4.51-5.12a13.59,13.59,0,0,0-8.9-3.31m135.82.45h-6.95v10L155,11.54V38.79l7,0V27.59l12.56,12.3ZM60.07,12.27h7V38.83h-7Z"/></g></g></g></svg>