<svg xmlns="http://www.w3.org/2000/svg" viewBox="0 0 25.93 29.53"><defs><style>.cls-1{fill:#fff;}.cls-2{fill:none;stroke:#fff;stroke-miterlimit:10;stroke-width:0.5px;}</style></defs><title>Ресурс 16</title><g id="Слой_2" data-name="Слой 2"><g id="Content"><path class="cls-1" d="M5.46,15.74h-.7V16.8a.52.52,0,0,1-.1.35.36.36,0,0,1-.27.12.35.35,0,0,1-.28-.12A.5.5,0,0,1,4,16.81V13.92a.46.46,0,0,1,.12-.36.53.53,0,0,1,.36-.11h1a2.36,2.36,0,0,1,.67.07,1,1,0,0,1,.65.57,1.29,1.29,0,0,1,.08.49,1,1,0,0,1-.35.86A1.57,1.57,0,0,1,5.46,15.74ZM5.28,14H4.76v1.15h.52a1.53,1.53,0,0,0,.45-.06A.54.54,0,0,0,6,14.93a.59.59,0,0,0,.09-.34.54.54,0,0,0-.14-.4A1,1,0,0,0,5.28,14Z"/><path class="cls-1" d="M8,13.45H9a2.52,2.52,0,0,1,.66.07,1.26,1.26,0,0,1,.51.27,1.89,1.89,0,0,1,.58,1.53,2.87,2.87,0,0,1-.06.61,1.62,1.62,0,0,1-.18.51,2,2,0,0,1-.31.4,1.15,1.15,0,0,1-.33.21,1.27,1.27,0,0,1-.39.12,3.23,3.23,0,0,1-.46,0H8a.67.67,0,0,1-.32-.06A.27.27,0,0,1,7.54,17a1.12,1.12,0,0,1,0-.29V13.92a.46.46,0,0,1,.11-.36A.49.49,0,0,1,8,13.45Zm.3.6V16.6h.87l.22-.05a.67.67,0,0,0,.2-.12,1.39,1.39,0,0,0,.38-1.11,1.54,1.54,0,0,0-.17-.83.69.69,0,0,0-.41-.35,2,2,0,0,0-.59-.08Z"/><path class="cls-1" d="M13.62,14h-1.5v1h1.26a.4.4,0,0,1,.26.07.32.32,0,0,1,.08.21.26.26,0,0,1-.09.21.36.36,0,0,1-.25.08H12.12V16.8a.49.49,0,0,1-.1.35.34.34,0,0,1-.27.12.35.35,0,0,1-.28-.12.51.51,0,0,1-.11-.35V13.92a.68.68,0,0,1,.05-.27.33.33,0,0,1,.16-.15.6.6,0,0,1,.26-.05h1.79a.41.41,0,0,1,.27.08.26.26,0,0,1,.09.21.29.29,0,0,1-.09.22A.41.41,0,0,1,13.62,14Z"/><path class="cls-2" d="M3.85,10.57V2.1A1.85,1.85,0,0,1,5.7.25H17.85l7.83,7.53V27.42a1.85,1.85,0,0,1-1.85,1.86H5.7a1.85,1.85,0,0,1-1.85-1.86V20.14"/><path class="cls-2" d="M25.68,7.8H19.25a1.42,1.42,0,0,1-1.4-1.43V.25"/><rect class="cls-2" x="0.25" y="10.57" width="17.48" height="9.57" rx="2.38"/></g></g></svg>