<svg xmlns="http://www.w3.org/2000/svg" viewBox="0 0 73.24 100.75"><defs><style>.cls-1{fill:none;stroke:#666;stroke-miterlimit:10;stroke-width:0.75px;}</style></defs><title>Ресурс 3</title><g id="Слой_2" data-name="Слой 2"><g id="Content"><path class="cls-1" d="M38.79,50.38V46.15A5.88,5.88,0,0,0,36,41.44L28,37.24c-1.56-.82-1.66-2.34-.23-3.38l.59-.43A7.07,7.07,0,0,0,31,28.34V24.8a5.22,5.22,0,0,0-3-4.44l-1.78-.74H22.29l-1.78.74a5.22,5.22,0,0,0-3,4.44v3.54a7.07,7.07,0,0,0,2.6,5.09l.6.43a1.84,1.84,0,0,1-.24,3.38l-8,4.2a5.88,5.88,0,0,0-2.83,4.71v4.23"/><path class="cls-1" d="M49.92.38V21.3a1.7,1.7,0,0,0,1.7,1.7H72.86"/><polygon class="cls-1" points="72.86 100.38 0.38 100.38 0.38 0.38 49.92 0.38 72.86 23 72.86 100.38"/><line class="cls-1" x1="9.9" y1="70.69" x2="63.86" y2="70.69"/><line class="cls-1" x1="9.9" y1="64.66" x2="63.86" y2="64.66"/><line class="cls-1" x1="9.9" y1="76.71" x2="63.86" y2="76.71"/><line class="cls-1" x1="9.9" y1="83.02" x2="34.66" y2="83.02"/></g></g></svg>